<svg viewBox="0 0 400 400" xmlns="http://www.w3.org/2000/svg" id="Support-Team-2--Streamline-Brooklyn.svg" height="400" width="400"><desc>Support Team 2 Streamline Illustration: https://streamlinehq.com</desc><path d="M96.012 60.886c5.57 1.722 20.476 0.27 36.722 0 1.668 -0.028 1.668 -2.742 0 -2.712 -26.2 0.452 -13.104 1.042 -31.922 1.042a33.906 33.906 0 0 0 -4.6 -0.2c-1.242 -0.016 -1.46 1.48 -0.2 1.87Z" fill="#191919" stroke-width="1"></path><path d="M131.274 71.944a1.252 1.252 0 0 0 0 -2.504c-38.85 0 -33.518 -0.07 -34.01 0a0.958 0.958 0 0 0 -0.2 1.878 216.9 216.9 0 0 0 34.21 0.626Z" fill="#191919" stroke-width="1"></path><path d="M96.43 79.664a0.846 0.846 0 0 0 0 1.668c3.868 1.29 31.492 2.2 37.346 0.626a1.4 1.4 0 0 0 -0.416 -2.712c-0.202 -0.024 -36.73 0.354 -36.93 0.418Z" fill="#191919" stroke-width="1"></path><path d="M111.034 89.47c-4.6 0 -9.18 0 -13.56 0.418 -1.252 0.2 -1.252 1.876 0 1.876 4.59 0.418 9.18 0.21 13.56 0.21 1.462 0 1.462 -2.712 0 -2.504Z" fill="#191919" stroke-width="1"></path><path d="M23.2 173.344c9.818 5.776 24.306 7.118 35.468 6.258a44.016 44.016 0 0 0 23.574 18.778c1.454 0.444 2.296 -1.46 1.462 -2.504a27.022 27.022 0 0 1 -7.094 -17.526 89.18 89.18 0 0 0 11.684 -3.338c15.056 -7.058 24.036 -25.06 15.856 -40.476C88.946 105.884 35.426 110 17.564 130.364a28.07 28.07 0 0 0 5.636 42.98Zm12.308 -30.044a5.566 5.566 0 0 1 6.466 3.546c2.052 5.23 -4.954 9.964 -8.97 5.842a5.504 5.504 0 0 1 2.504 -9.388Zm27.956 3.338a5.782 5.782 0 0 1 -4.172 7.51 5.626 5.626 0 0 1 -6.468 -6.468 5.568 5.568 0 0 1 10.64 -1.042Zm21.7 0.2a5.81 5.81 0 0 1 -4.174 7.512 5.646 5.646 0 0 1 -6.468 -6.468 5.504 5.504 0 0 1 10.642 -1.036Z" fill="#f2b420" stroke-width="1"></path><path d="M31.126 97.4a16.462 16.462 0 0 0 13.352 0 12.536 12.536 0 0 0 2.722 -1.88 2.266 2.266 0 0 0 0 -3.13c-1.25 -1.252 -2.49 -0.4 -3.546 0.418 -4.292 3.324 -15.216 1.31 -19.82 -7.51 -5.274 -10.104 1.388 -23.6 11.684 -26.082 9.074 -2.184 16.898 4.026 16.898 16.484 0 11.174 -7.718 8.212 -7.718 -3.756 0 -0.96 -6.2 -7.344 -11.476 -1.878 -4.028 4.18 -4.276 12.842 0.834 15.856a6.924 6.924 0 0 0 9.4 -3.128c2.388 4.778 6.696 5.2 9.18 2.712 4.354 -4.356 5.686 -19.776 -3.13 -27.124 -6.588 -5.49 -17.512 -5.274 -25.246 2.712 -11.696 12.06 -8.396 30.13 6.866 36.306Zm9.6 -19.612c-0.2 2.296 -1.044 4.8 -3.756 4.6 -6.788 0 -0.016 -16.512 3.546 -9.388a13.234 13.234 0 0 1 0.208 4.786Zm8.762 5Z" fill="#f2b420" stroke-width="1"></path><path d="M249.156 61.512c7.51 1.67 16.11 0.342 22.95 4.6 6.932 4.306 8.6 13.358 7.72 21.072 -0.8 7.098 -3.964 13.772 -6.886 20.238 -17.02 -5.374 -32.426 17.5 -22.532 32.34 -0.2 0.062 -18.366 6.546 -19.2 7.928a2.298 2.298 0 0 0 1.252 3.13c2.734 1.42 6.476 0.882 9.388 0.418 5.388 -0.86 12.022 -2.632 15.858 -6.468 21.468 6.314 35.262 -25.506 18.986 -35.678 4.382 -9.18 8.986 -19.2 7.51 -29.626a24.51 24.51 0 0 0 -4.8 -11.894c-4.886 -6.19 -12.314 -7.6 -19.612 -7.928a89.758 89.758 0 0 0 -9.8 -0.2c-1.67 0.19 -2.086 1.86 -0.834 2.068Zm27.122 53.83a1.726 1.726 0 0 1 -2.086 2.712c-7.702 -3.852 -13.05 0.436 -16.9 8.136 -0.626 1.044 -2.106 0.2 -1.878 -0.834 1.8 -8.242 7.782 -12.728 14.188 -12.728a13.388 13.388 0 0 1 6.676 2.714Z" fill="#191919" stroke-width="1"></path><path d="M234.55 83.628c0.586 5.34 8.862 18.552 18.36 25.454 1.452 1.056 3.756 -0.834 4.8 -1.67 6.78 -4.746 10.67 -1.148 10.014 -15.022 -0.276 -5.838 -0.574 -12.146 -4.59 -16.69 -3.914 -4.428 -10.23 -7.744 -16.274 -6.26 -0.836 0.2 -6.704 -12.076 -10.64 -16.482 -9.456 -10.582 -23.79 -13.79 -37.556 -10.64C175.08 47.71 178.836 66.94 182.8 74.24a27.8 27.8 0 0 0 18.152 13.144c9.078 2.216 24.232 1.13 33.598 -3.756Zm-6.258 -27.54c0.85 1.45 -0.836 3.338 -2.296 2.294 -6.26 -3.964 -12.52 -7.546 -20.03 -7.302 -5.634 0.182 -12.936 1.67 -15.856 7.302a1.36 1.36 0 0 1 -2.296 -1.46c6.22 -15.2 33.498 -12.752 40.478 -0.834Zm-38.182 8.762a4 4 0 0 0 0.626 2.296c0.84 2.098 0.178 3.872 -2.086 3.338 -2.37 -0.56 -3.302 -4.6 -1.252 -6.468 1.402 -1.284 2.712 -0.416 2.712 0.834Z" fill="#191919" stroke-width="1"></path><path d="M210.348 329.2c5.634 -1.878 11.688 -3.81 17.734 -3.338a17.018 17.018 0 0 1 12.102 6.26c1.022 1.268 3.13 -0.418 2.294 -1.878a16.562 16.562 0 0 0 -10.222 -6.886c-7.636 -1.822 -15 0.65 -22.534 3.338 -1.46 0.832 -0.834 3.128 0.626 2.504Z" fill="#191919" stroke-width="1"></path><path d="M201.586 321.062c11.57 -10 26.346 -15.438 38.6 -6.468 1.448 1.06 3.336 -1.25 1.878 -2.504a23.964 23.964 0 0 0 -16.692 -5.216c-10.186 0.344 -18.55 5.684 -25.662 12.518 -1.066 1.022 0.642 2.736 1.876 1.67Z" fill="#191919" stroke-width="1"></path><path d="M232.882 301.032c2.304 0.768 2.578 -1.924 1.46 -2.296a30.2 30.2 0 0 0 -39.016 10.642 1.306 1.306 0 0 0 2.294 1.252 28.338 28.338 0 0 1 35.262 -9.598Z" fill="#191919" stroke-width="1"></path><path d="M204.506 110.126c1.252 0.416 2.086 -0.418 2.712 -1.462a5.428 5.428 0 0 0 0.834 -3.128c-0.2 -1.462 -1.25 -2.714 -2.712 -2.088 -2.294 0.836 -3.54 6.052 -0.834 6.678Z" fill="#191919" stroke-width="1"></path><path d="M233.09 109.708c-0.2 -1.46 -1.244 -2.694 -2.712 -2.086 -2.076 0.86 -3.548 6.05 -0.836 6.676 2.108 0.702 3.548 -2.338 3.548 -4.59Z" fill="#191919" stroke-width="1"></path><path d="M212.434 93.016a5.91 5.91 0 0 0 -7.302 0.626 1.304 1.304 0 0 0 0 1.67c0.834 1.044 2.712 -0.2 3.756 0 1.46 0.2 3.338 2.504 4.6 1.044 1.032 -1.462 0.186 -2.692 -1.054 -3.34Z" fill="#191919" stroke-width="1"></path><path d="M217.86 104.492c0.416 -0.834 -1.044 -1.46 -1.462 -0.626 -1.042 2.086 -7.72 15.44 -3.964 16.274a30.164 30.164 0 0 0 6.26 0.834 1.134 1.134 0 0 0 0.626 -2.086c-1.46 -1.46 -3.756 -0.834 -5.634 -0.834a88.912 88.912 0 0 1 4.174 -13.562Z" fill="#191919" stroke-width="1"></path><path d="M207.218 133.91c0.21 0 3.964 -0.626 5.634 -1.042a13.092 13.092 0 0 0 3.13 6.258c1.706 2.268 4.172 4.6 6.884 4.382 5.842 0 7.766 -7.516 7.302 -12.102 -0.19 -1.88 -1.042 -2.294 -2.92 -2.294a62.074 62.074 0 0 0 -19.612 2.92c-1.348 0.45 -1.896 1.878 -0.418 1.878Zm20.238 -1.878c0 4.4 -1.464 10.042 -5.424 8.764a10.956 10.956 0 0 1 -6.26 -7.928 113.026 113.026 0 0 1 11.684 -0.836Z" fill="#191919" stroke-width="1"></path><path d="M299.438 110.542c1.878 -0.416 39.024 -14.39 42.144 -19.2a11.332 11.332 0 0 0 0.836 -11.476c-1.878 -4.382 -12.062 -11.858 -8.138 -16.482 3.164 -3.728 17.526 -17.108 21.074 -20.656 0.834 -1.042 2.086 -2.294 1.878 -3.756a2.056 2.056 0 0 0 -2.922 -1.876c-41.898 22.112 -45.894 24.2 -47.152 27.748 -1.102 3.11 9.18 11.892 10.848 15.232 2.712 5.424 -13.978 16.482 -17.108 19.612 -1.878 1.878 -7.928 6.258 -6.468 9.388 1.044 1.676 3.338 1.676 5.008 1.466Z" fill="#f2b420" stroke-width="1"></path><path d="M339.914 118.47c-2.712 0.21 -5.284 0.822 -5.842 3.756 -0.238 1.248 1.878 8.764 1.67 11.058s-1.874 2.468 -3.756 2.296c-5.832 -0.532 -27.75 -2.922 -31.088 0a1.666 1.666 0 0 0 0.418 2.712c6.05 3.756 12.964 5.748 19.82 7.928 3.772 1.2 19.6 6.448 23.368 5.424 6.25 -1.7 5.842 -11.892 6.05 -14.186 0 -1.462 -0.2 -3.548 1.462 -4.174 3.338 -1.252 28.87 -3.378 37.138 -7.302 1.684 -0.8 0.416 -2.92 -0.626 -3.546a8.786 8.786 0 0 0 -3.128 -0.836c-5.218 0 -43.818 -3.13 -45.486 -3.13Z" fill="#f2b420" stroke-width="1"></path><path d="M183.434 349.018a36.334 36.334 0 0 0 9.8 -1.042c9.218 -1.912 33.6 -10.858 35.052 -9.6 1.676 1.452 1.692 4.8 1.25 6.676 -0.4 1.676 -2.096 1.85 -3.338 2.296 -5.47 1.962 -28.988 9.646 -35.26 11.266a23.61 23.61 0 0 1 -7.51 1.252c-3.128 -0.234 -123.944 -15.6 -126.02 -16.066a1.722 1.722 0 0 0 -0.834 3.34c4.582 0.874 119.55 15.438 123.724 15.648a27.476 27.476 0 0 0 5.842 0.2c1.454 -0.264 35.848 -10.364 42.146 -13.144a9.688 9.688 0 0 0 3.964 -2.296c1.042 -1.46 0.416 -8.972 -0.418 -10.64a4.372 4.372 0 0 0 -5.424 -1.878c-1.258 0.4 -38.39 12.31 -41.312 10.85 -2.92 -11.894 -17.078 -70.944 -20.238 -85.96 -3.514 -16.698 -8.336 -19.676 -15.648 -20.656 -3.334 -0.446 -21.282 -2.296 -42.354 -4.172A69.53 69.53 0 0 1 112.704 218c13.262 -28.314 41.11 -42.63 71.982 -47.57a383.482 383.482 0 0 0 9.6 39.642 1.488 1.488 0 0 0 2.504 0.418c1.67 -2.712 18.152 -27.542 19.2 -29 0 0.21 11.474 31.296 12.936 33.8a1.348 1.348 0 0 0 1.876 0.418c14.74 -10.2 47.128 -40.894 47.57 -40.894 22.388 6.888 44.6 17.664 59.672 35.468 20.444 24.164 24.97 57.028 19.2 84.71 -8.4 40.216 -34.818 51.742 -70.73 51.742a169.068 169.068 0 0 1 -40.268 -4.8 1.29 1.29 0 1 0 -0.626 2.502 69.88 69.88 0 0 0 14.4 3.34c46 7.116 84.628 0.252 98.27 -44.442 5.544 -18.16 5.242 -39.678 1.252 -56.54C351.352 212.242 327.2 190 294.638 177.516a235.526 235.526 0 0 0 -36.094 -10.224c0.2 -2.294 1.252 -12.518 1.878 -15.23a0.962 0.962 0 1 0 -1.878 -0.418 106.308 106.308 0 0 0 -2.92 15.44c-4.8 1.46 -35.678 9.39 -38.6 10.016 -0.416 0.2 -7.51 -7.512 -9.8 -9.6 0.21 -1.044 0.21 -11.058 0.21 -12.936 2.712 0.2 5.22 0.156 7.718 0.418 1.674 0.174 2.096 -2.754 0.418 -3.13 -7.384 -1.662 -14.218 1.106 -20.864 -4.6a7.884 7.884 0 0 1 -2.086 -5.634 153.55 153.55 0 0 1 10.014 -49.656c0.4 -1.048 -1.454 -1.876 -1.878 -0.834a147.886 147.886 0 0 0 -9.6 32.964 128.33 128.33 0 0 0 -1.878 17.108 11.342 11.342 0 0 0 2.086 7.304c3.374 4.276 8.34 5.662 13.77 6.05 -0.2 1.878 -0.626 10.85 -0.626 11.684A129.928 129.928 0 0 0 171.958 170C151.914 174.814 137 183.038 124.8 195.25a79.136 79.136 0 0 0 -21.49 39.642c-24.828 -2.294 -52.988 -4.874 -65.306 -6.05 -23.354 -2.23 -24.4 4.59 -21.906 12.936S51.782 334 51.782 334s128.104 14.6 131.652 15.018Zm73.024 -179.43a187.864 187.864 0 0 1 18.36 4.382c-15.94 13.946 -27.19 25.712 -44.65 38.8 -1.134 -2.268 -11.656 -29.908 -12.308 -33.174 0.2 -0.05 37.768 -10.008 38.598 -10.008Zm-42.146 9.18c0 0.854 -1.578 0.318 -18.778 27.958a322.838 322.838 0 0 1 -9.18 -36.512c5.842 -0.834 11.892 -1.252 17.944 -1.67 0.17 0.086 9.88 10.088 10.014 10.224Zm-136.242 68.016c7.51 0.836 56.332 3.13 62.6 4.8a10.64 10.64 0 0 1 7.094 5.424c2.422 4.634 7.094 25.454 7.72 30.88a1.376 1.376 0 0 1 -2.712 0.2c-0.836 -1.878 -7.094 -29 -8.972 -31.088a12.186 12.186 0 0 0 -7.512 -3.13c-19.4 -2.952 -39.016 -2.92 -58.418 -5.632 -0.844 0.216 -0.844 -1.454 0.2 -1.454Zm-32.756 30.462c1.216 2.936 17.306 39.854 17.942 42.772a1.696 1.696 0 0 1 -3.13 1.252c-0.87 -1.65 -12.452 -32.23 -16.69 -43.6 -0.392 -1.06 1.448 -1.47 1.878 -0.424Z" fill="#191919" stroke-width="1"></path><path d="M288.8 275.16a33.538 33.538 0 0 1 -18.776 18.57 42.962 42.962 0 0 1 -16.066 2.502c-1.252 0 -1.664 2.056 -0.2 2.296a34.978 34.978 0 0 0 28.166 -8.764c7.732 -6.944 11.2 -16.182 12.1 -26.496a97.872 97.872 0 0 0 0 -20.03c-0.172 -1.466 -2.322 -1.46 -2.294 0 0.162 9.422 0.314 23.714 -2.93 31.922Z" fill="#191919" stroke-width="1"></path><path d="M234.55 99.484c1.934 -0.19 1.614 2.136 2.504 3.13a1.6 1.6 0 0 0 2.922 -0.626c0.6 -2.302 -2.292 -5.23 -4.382 -5.842 -1.458 -0.426 -4.6 0.2 -4.8 2.296 0.006 1.8 1.974 1.22 3.756 1.042Z" fill="#191919" stroke-width="1"></path><path d="M209.548 191.098c-2.576 3.878 -5.49 8.276 -7.898 11.93a37.6 37.6 0 0 0 3.9 13.086l-20.238 56.752 10.64 24 21.908 -18.15 -1.044 -61.968a30.686 30.686 0 0 0 8.346 -9.18c0.648 -1.224 -5.162 -14.23 -5.634 -15.648a17.744 17.744 0 0 1 -9.98 -0.822Zm1.218 20.426c-1.044 1.044 -6.486 -3.132 -5.216 -10.848 0.2 -1.252 2.294 -0.836 2.294 0.2 -0.834 6.058 3.956 9.396 2.922 10.648Z" fill="#f2b420" stroke-width="1"></path><path d="M157.354 85.298c0 -1.878 -5 -6.052 -14.4 -16.692 0 -26.554 0.844 -25.474 -1.044 -25.662 -12.472 -0.368 -40.93 -1.938 -54.664 1.876 -0.282 0 -0.814 0.432 -0.834 1.252 -0.2 8.562 -0.418 17.11 -0.2 25.872 0 0 -10.4 11.908 -11.058 12.936a3.874 3.874 0 0 0 -0.624 2.294c0 3.682 -0.72 23.718 -0.822 27.904q1.506 0.26 2.986 0.6c-0.432 -4.114 -0.096 -23.758 -0.288 -26.828 0.418 0.418 23.368 22.95 24 23.368 -0.476 0.476 1.65 -1.512 -9.496 8.892q1.246 0.726 2.426 1.536c18.2 -16.68 23.026 -20.542 23.344 -20.86 2.296 2.504 37.348 35.052 37.974 35.678 -16.066 1.042 -32.132 1.876 -48.2 1.46a17.4 17.4 0 0 1 0.836 3.13 502.93 502.93 0 0 0 50.49 -1.67c0.836 0 1.67 -0.626 1.462 -1.46 -0.22 -13.986 -1.68 -49.662 -1.888 -53.626Zm-41.728 13.77c-1.45 1.06 -12.52 11.684 -13.146 11.474 -3.128 -1.878 -13.352 -11.266 -13.144 -12.31 0.418 -3.338 -1.042 -47.57 -0.834 -51.116 2.92 -0.626 16.274 -1.826 19.82 -1.878 7.096 -0.104 28.376 0.418 31.922 0.626 0 0.2 -0.71 39.504 1.044 50.908 0.2 0.834 -12.73 12.73 -12.936 12.518 -8.868 -9.076 -11.044 -11.456 -12.726 -10.222Zm14.4 11.684c4.894 -3.784 16.522 -16.1 24 -22.326 1.452 22.538 1.668 35.112 1.668 45.738 -4.724 -4.632 0.812 0.664 -25.672 -23.412Z" fill="#191919" stroke-width="1"></path></svg>