<svg width="27" height="27" viewBox="0 0 27 27" fill="none" xmlns="http://www.w3.org/2000/svg">
<path d="M13.4997 15.75C7.86344 15.75 3.27344 19.53 3.27344 24.1875C3.27344 24.5025 3.52094 24.75 3.83594 24.75H23.1634C23.4784 24.75 23.7259 24.5025 23.7259 24.1875C23.7259 19.53 19.1359 15.75 13.4997 15.75Z" fill="#292D32"/>
<path d="M18.81 11.6438L17.73 10.5638C18.2925 9.72 18.6187 8.7075 18.6187 7.61625C18.6187 4.64625 16.2113 2.25 13.2525 2.25C10.2937 2.25 7.875 4.6575 7.875 7.61625C7.875 10.575 10.2825 12.9825 13.2413 12.9825C14.3325 12.9825 15.345 12.6562 16.1888 12.0938L17.2688 13.1737C17.4825 13.3875 17.7638 13.4887 18.0338 13.4887C18.315 13.4887 18.5962 13.3875 18.7987 13.1737C19.2262 12.7575 19.2262 12.0712 18.81 11.6438Z" fill="#292D32"/>
</svg>
