<svg width="19" height="20" viewBox="0 0 19 20" fill="none" xmlns="http://www.w3.org/2000/svg">
<path d="M9.50022 17.323C9.3498 17.323 9.19938 17.2676 9.08063 17.1488L4.27521 12.3434C4.04563 12.1138 4.04563 11.7338 4.27521 11.5042C4.5048 11.2746 4.8848 11.2746 5.11438 11.5042L9.50022 15.8901L13.886 11.5042C14.1156 11.2746 14.4956 11.2746 14.7252 11.5042C14.9548 11.7338 14.9548 12.1138 14.7252 12.3434L9.9198 17.1488C9.80105 17.2676 9.65063 17.323 9.50022 17.323Z" />
<path d="M9.5 17.1884C9.17542 17.1884 8.90625 16.9192 8.90625 16.5946V3.27087C8.90625 2.94629 9.17542 2.67712 9.5 2.67712C9.82458 2.67712 10.0938 2.94629 10.0938 3.27087V16.5946C10.0938 16.9192 9.82458 17.1884 9.5 17.1884Z" />
</svg>
