<svg width="63" height="63" viewBox="0 0 63 63" fill="none" xmlns="http://www.w3.org/2000/svg">
<path d="M7.21832 31.4998C7.21832 31.9986 7.40207 32.4973 7.79582 32.8911L23.7296 48.8248C24.4908 49.5861 25.7508 49.5861 26.5121 48.8248C27.2733 48.0636 27.2733 46.8036 26.5121 46.0423L11.9696 31.4998L26.5121 16.9573C27.2733 16.1961 27.2733 14.9361 26.5121 14.1748C25.7508 13.4136 24.4908 13.4136 23.7296 14.1748L7.79582 30.1086C7.40207 30.5023 7.21832 31.0011 7.21832 31.4998Z" fill="white"/>
<path d="M7.665 31.5C7.665 32.5762 8.5575 33.4687 9.63375 33.4687L53.8125 33.4687C54.8888 33.4687 55.7813 32.5763 55.7813 31.5C55.7813 30.4237 54.8888 29.5312 53.8125 29.5312L9.63375 29.5312C8.5575 29.5312 7.665 30.4237 7.665 31.5Z" fill="white"/>
</svg>
