<svg viewBox="0 0 23 25" fill="none" xmlns="http://www.w3.org/2000/svg">
<path d="M11.482 2.87684C11.6625 2.87684 11.843 2.94684 11.9855 3.09684L17.7512 9.16684C18.0266 9.45684 18.0266 9.93684 17.7512 10.2268C17.4757 10.5168 17.0198 10.5168 16.7443 10.2268L11.482 4.68684L6.21975 10.2268C5.94428 10.5168 5.48835 10.5168 5.21288 10.2268C4.93742 9.93683 4.93742 9.45683 5.21289 9.16683L10.9786 3.09684C11.1211 2.94684 11.3016 2.87684 11.482 2.87684Z" fill="#F7F5ED"/>
<path d="M11.4821 3.04696C11.8715 3.04696 12.1945 3.38696 12.1945 3.79696L12.1945 20.627C12.1945 21.037 11.8715 21.377 11.4821 21.377C11.0926 21.377 10.7697 21.037 10.7697 20.627L10.7697 3.79695C10.7697 3.38696 11.0926 3.04696 11.4821 3.04696Z" fill="#F7F5ED"/>
</svg>
