<svg width="20" height="21" viewBox="0 0 20 21" fill="none" xmlns="http://www.w3.org/2000/svg">
<path d="M2.2914 10.5001C2.2914 10.3418 2.34974 10.1834 2.47474 10.0584L7.53307 5.0001C7.77474 4.75843 8.17474 4.75843 8.41641 5.0001C8.65807 5.24176 8.65807 5.64176 8.41641 5.88343L3.79974 10.5001L8.41641 15.1168C8.65807 15.3584 8.65807 15.7584 8.41641 16.0001C8.17474 16.2418 7.77474 16.2418 7.53307 16.0001L2.47474 10.9418C2.34974 10.8168 2.2914 10.6584 2.2914 10.5001Z" fill="black"/>
<path d="M2.43399 10.5C2.43399 10.1583 2.71732 9.875 3.05899 9.875L17.084 9.875C17.4257 9.875 17.709 10.1583 17.709 10.5C17.709 10.8417 17.4257 11.125 17.084 11.125L3.05899 11.125C2.71732 11.125 2.43399 10.8417 2.43399 10.5Z" fill="black"/>
</svg>
