<svg width="43" height="43" viewBox="0 0 43 43" fill="none" xmlns="http://www.w3.org/2000/svg">
<rect width="43" height="43" rx="21.5" fill="#F2B420"/>
<path d="M31.3588 15.8951C30.4705 14.9127 28.9864 14.4215 26.8334 14.4215H26.5825V14.3797C26.5825 12.6238 26.5825 10.45 22.6528 10.45H21.0642C17.1345 10.45 17.1345 12.6343 17.1345 14.3797V14.4319H16.8837C14.7202 14.4319 13.2466 14.9231 12.3582 15.9056C11.3235 17.0552 11.3549 18.602 11.4594 19.6576L11.4698 19.7308L11.5518 20.5915C11.5661 20.7412 11.6467 20.8765 11.7726 20.9589C12.0221 21.1223 12.4486 21.3975 12.7031 21.5389C12.8494 21.6329 13.0062 21.7165 13.163 21.8002C14.9502 22.7826 16.915 23.441 18.9112 23.765C19.0053 24.7474 19.4338 25.8971 21.7227 25.8971C24.0115 25.8971 24.4609 24.7579 24.5341 23.7441C26.6662 23.3992 28.7251 22.6572 30.5854 21.5702C30.6481 21.5389 30.6899 21.5075 30.7422 21.4762C31.1596 21.2402 31.5928 20.9491 31.9871 20.6644C32.1001 20.5828 32.1723 20.4568 32.1877 20.3183L32.2054 20.1593L32.2577 19.6681C32.2681 19.6054 32.2681 19.5531 32.2786 19.4799C32.3622 18.4244 32.3413 16.9821 31.3588 15.8951ZM22.9977 23.0543C22.9977 24.1622 22.9977 24.3294 21.7122 24.3294C20.4267 24.3294 20.4267 24.1308 20.4267 23.0648V21.7479H22.9977V23.0543ZM18.629 14.4215V14.3797C18.629 12.6029 18.629 11.9445 21.0642 11.9445H22.6528C25.088 11.9445 25.088 12.6134 25.088 14.3797V14.4319H18.629V14.4215Z" fill="white"/>
<path d="M31.1701 22.9363C31.5236 22.7678 31.9298 23.0486 31.8944 23.4385L31.5156 27.6111C31.2961 29.7014 30.4391 31.8335 25.8405 31.8335H17.8765C13.2779 31.8335 12.4209 29.7014 12.2014 27.6216L11.8417 23.6652C11.8067 23.2798 12.2044 22.9998 12.557 23.1595C13.7424 23.6966 15.9811 24.6725 17.3518 25.0293C17.5162 25.0721 17.6491 25.1896 17.7205 25.3438C18.3526 26.7076 19.7305 27.4335 21.7226 27.4335C23.695 27.4335 25.0905 26.6797 25.7246 25.3126C25.7961 25.1584 25.9292 25.0408 26.0937 24.9978C27.5491 24.6174 29.9312 23.5267 31.1701 22.9363Z" fill="white"/>
</svg>
