<svg width="9" height="9" viewBox="0 0 9 9" fill="none" xmlns="http://www.w3.org/2000/svg">
<path fill-rule="evenodd" clip-rule="evenodd" d="M8.6843 8.37737C8.51597 8.5457 8.24306 8.5457 8.07473 8.37737L0.925681 1.22833C0.757352 1.06 0.757352 0.787082 0.925681 0.618752C1.09401 0.450423 1.36693 0.450422 1.53526 0.618752L8.6843 7.7678C8.85263 7.93613 8.85263 8.20904 8.6843 8.37737Z" fill="#F2B420"/>
<path fill-rule="evenodd" clip-rule="evenodd" d="M0.925073 8.37737C1.0934 8.5457 1.36632 8.5457 1.53465 8.37737L8.68369 1.22833C8.85202 1.06 8.85202 0.787082 8.68369 0.618752C8.51536 0.450423 8.24245 0.450422 8.07412 0.618752L0.925072 7.7678C0.756743 7.93613 0.756743 8.20904 0.925073 8.37737Z" fill="#F2B420"/>
</svg>
