<svg width="30" height="30" viewBox="0 0 30 30" fill="none" xmlns="http://www.w3.org/2000/svg">
<path d="M28.8196 11.2533C28.8242 11.3358 28.8182 11.4198 28.7974 11.5033L26.947 18.9051C26.8536 19.278 26.5194 19.5402 26.1352 19.5423L15.0324 19.5983C15.031 19.5983 15.0296 19.5983 15.0281 19.5983H3.92523C3.53899 19.5983 3.20243 19.3352 3.10912 18.9604L1.25865 11.5305C1.23735 11.4448 1.23118 11.3585 1.23656 11.2738C0.52071 11.0483 0 10.3784 0 9.58898C0 8.61496 0.792336 7.82263 1.76636 7.82263C2.74037 7.82263 3.53271 8.61496 3.53271 9.58898C3.53271 10.1375 3.28138 10.6283 2.88785 10.9525L5.20464 13.2868C5.79017 13.8768 6.60269 14.215 7.43394 14.215C8.41682 14.215 9.35394 13.7483 9.94407 12.9663L13.7516 7.92132C13.4317 7.60169 13.2336 7.16005 13.2336 6.67309C13.2336 5.69907 14.026 4.90674 15 4.90674C15.974 4.90674 16.7664 5.69907 16.7664 6.67309C16.7664 7.14547 16.5788 7.57421 16.2757 7.89149C16.2767 7.89283 16.2779 7.89395 16.279 7.89541L20.0588 12.9543C20.6487 13.7438 21.5892 14.2151 22.5749 14.2151C23.4138 14.2151 24.2027 13.8885 24.7958 13.2952L27.1272 10.9638C26.7253 10.6397 26.4673 10.1442 26.4673 9.58898C26.4673 8.61496 27.2596 7.82263 28.2336 7.82263C29.2077 7.82263 30 8.61496 30 9.58898C30 10.3573 29.506 11.0108 28.8196 11.2533ZM26.7664 22.2338C26.7664 21.7693 26.3898 21.3927 25.9253 21.3927H4.16826C3.70374 21.3927 3.32714 21.7693 3.32714 22.2338V24.2525C3.32714 24.7171 3.70374 25.0937 4.16826 25.0937H25.9253C26.3898 25.0937 26.7664 24.7171 26.7664 24.2525V22.2338Z" fill="#F2B420"/>
</svg>
