<svg width="22" height="22" viewBox="0 0 22 22" fill="none" xmlns="http://www.w3.org/2000/svg">
<path opacity="0.4" d="M11.0007 20.075C16.0633 20.075 20.1673 15.971 20.1673 10.9084C20.1673 5.84576 16.0633 1.7417 11.0007 1.7417C5.93804 1.7417 1.83398 5.84576 1.83398 10.9084C1.83398 15.971 5.93804 20.075 11.0007 20.075Z" fill="#2EB67D"/>
<path d="M13.0708 11L11.6867 10.5142V7.40667H12.0167C12.7592 7.40667 13.3642 8.0575 13.3642 8.855C13.3642 9.23083 13.6758 9.5425 14.0517 9.5425C14.4275 9.5425 14.7392 9.23083 14.7392 8.855C14.7392 7.29667 13.52 6.03167 12.0167 6.03167H11.6867V5.5C11.6867 5.12417 11.375 4.8125 10.9992 4.8125C10.6233 4.8125 10.3117 5.12417 10.3117 5.5V6.03167H9.71583C8.35917 6.03167 7.25 7.1775 7.25 8.58C7.25 10.2208 8.20333 10.7433 8.9275 11L10.3117 11.4858V14.5842H9.98167C9.23917 14.5842 8.63417 13.9333 8.63417 13.1358C8.63417 12.76 8.3225 12.4483 7.94667 12.4483C7.57083 12.4483 7.25917 12.76 7.25917 13.1358C7.25917 14.6942 8.47833 15.9592 9.98167 15.9592H10.3117V16.5C10.3117 16.8758 10.6233 17.1875 10.9992 17.1875C11.375 17.1875 11.6867 16.8758 11.6867 16.5V15.9683H12.2825C13.6392 15.9683 14.7483 14.8225 14.7483 13.42C14.7392 11.77 13.7858 11.2475 13.0708 11ZM9.38583 9.7075C8.91833 9.5425 8.63417 9.38667 8.63417 8.58917C8.63417 7.93833 9.12 7.41583 9.725 7.41583H10.3208V10.0375L9.38583 9.7075ZM12.2825 14.5933H11.6867V11.9717L12.6125 12.2925C13.08 12.4575 13.3642 12.6133 13.3642 13.4108C13.3642 14.0617 12.8783 14.5933 12.2825 14.5933Z" fill="#2EB67D"/>
</svg>
