<svg width="19" height="20" viewBox="0 0 19 20" fill="none" xmlns="http://www.w3.org/2000/svg">
<path d="M9.5007 17.323C9.35029 17.323 9.19987 17.2676 9.08112 17.1488L4.2757 12.3434C4.04612 12.1138 4.04612 11.7338 4.2757 11.5042C4.50529 11.2746 4.88529 11.2746 5.11487 11.5042L9.5007 15.8901L13.8865 11.5042C14.1161 11.2746 14.4961 11.2746 14.7257 11.5042C14.9553 11.7338 14.9553 12.1138 14.7257 12.3434L9.92029 17.1488C9.80154 17.2676 9.65112 17.323 9.5007 17.323Z" fill="#0067FF"/>
<path d="M9.5 17.1884C9.17542 17.1884 8.90625 16.9192 8.90625 16.5946V3.27087C8.90625 2.94629 9.17542 2.67712 9.5 2.67712C9.82458 2.67712 10.0938 2.94629 10.0938 3.27087V16.5946C10.0938 16.9192 9.82458 17.1884 9.5 17.1884Z" fill="#0067FF"/>
</svg>
