<svg width="64" height="65" viewBox="0 0 64 65" fill="none" xmlns="http://www.w3.org/2000/svg">
<rect y="0.153809" width="64" height="64" rx="32" fill="#F2B420"/>
<path d="M32.5005 40.5809C35.3029 40.5809 37.6433 38.5826 38.1866 35.9329C38.8327 35.7906 39.4746 35.6209 40.1043 35.432L40.1043 35.432L40.1122 35.4296C42.0985 34.8099 44.0263 33.9828 45.8313 32.9308C45.9259 32.8824 46.019 32.8285 46.1062 32.7677C46.3856 32.6147 46.6595 32.4533 46.9275 32.2864L46.1106 41.2197C45.9531 42.7147 45.5795 44.0674 44.5551 45.064C43.5341 46.0571 41.7294 46.8269 38.4111 46.8269H26.5589C23.2404 46.8269 21.4357 46.057 20.4168 45.0659C19.3944 44.0713 19.0246 42.7224 18.875 41.2361L18.0699 32.6437C18.1974 32.7201 18.3271 32.7954 18.4592 32.8691C18.6965 33.0202 18.9445 33.1524 19.1636 33.2693L19.1715 33.2735C20.9767 34.2635 22.9092 35.0464 24.9061 35.5903C25.5473 35.7823 26.1941 35.9326 26.8441 36.0577C27.4267 38.6457 29.7438 40.5809 32.5005 40.5809Z" fill="white" stroke="#F2B420" stroke-width="1.5"/>
<path d="M46.6396 23.8569C45.3175 22.3948 43.1243 21.6638 39.9046 21.6638H39.5313V21.6015C39.5313 18.9884 39.5313 15.7532 33.683 15.7532H31.3187C25.4704 15.7532 25.4704 18.9884 25.4704 21.6015V21.6638H25.0971C21.8773 21.6638 19.6687 22.3948 18.3621 23.8569C16.8222 25.5834 16.8689 27.8699 17.0244 29.4408L17.04 29.5497L17.18 31.1829C17.1955 31.1985 17.2266 31.214 17.2578 31.2296C17.7866 31.5718 18.2999 31.914 18.8598 32.225C19.0776 32.365 19.3109 32.4895 19.5442 32.6139C21.3018 33.5783 23.1839 34.3404 25.1126 34.8692C25.1593 38.8978 28.4568 42.1642 32.5008 42.1642C36.576 42.1642 39.8891 38.8511 39.8891 34.7759V34.7137C41.8489 34.1226 43.731 33.2983 45.4886 32.2717C45.5819 32.225 45.6441 32.1784 45.7219 32.1317C46.4374 31.7429 47.1218 31.2918 47.775 30.8252C47.7906 30.8096 47.8217 30.7785 47.8373 30.7474L47.8995 30.1874L47.9772 29.4564C47.9928 29.3631 47.9928 29.2853 48.0083 29.1764C48.1328 27.621 48.1017 25.4745 46.6396 23.8569ZM27.6946 21.6015C27.6946 18.9573 27.6946 17.9619 31.3187 17.9619H33.683C37.3071 17.9619 37.3071 18.9573 37.3071 21.6015V21.6638H27.6946V21.6015ZM32.5008 39.831C29.9344 39.831 27.8035 37.9023 27.4924 35.4136C27.4613 35.2114 27.4457 34.9937 27.4457 34.7759C27.4457 31.9917 29.7166 29.7208 32.5008 29.7208C35.285 29.7208 37.5559 31.9917 37.5559 34.7759C37.5559 34.9626 37.5404 35.1337 37.5248 35.3048V35.3203C37.2449 37.8556 35.0984 39.831 32.5008 39.831Z" fill="white"/>
<path d="M31.6146 37.9334C31.3191 37.9334 31.0236 37.8246 30.7903 37.5913L29.2504 36.0669C28.7993 35.6159 28.7993 34.8693 29.2504 34.4182C29.7015 33.9671 30.4481 33.9671 30.8992 34.4182L31.6458 35.1648L34.15 32.8628C34.6166 32.4273 35.3632 32.4584 35.7987 32.925C36.2342 33.3916 36.2031 34.1382 35.7365 34.5737L32.4235 37.6379C32.1746 37.8246 31.8946 37.9334 31.6146 37.9334Z" fill="white"/>
</svg>
