<?xml version="1.0" standalone="no"?>
<!DOCTYPE svg PUBLIC "-//W3C//DTD SVG 20010904//EN"
 "http://www.w3.org/TR/2001/REC-SVG-20010904/DTD/svg10.dtd">
<svg version="1.0" xmlns="http://www.w3.org/2000/svg"
 width="20" height="20" viewBox="0 0 512.000000 512.000000"
 preserveAspectRatio="xMidYMid meet">

<g transform="translate(0.000000,512.000000) scale(0.100000,-0.100000)"
fill="#000000" stroke="none">
<path d="M2303 5110 c-176 -32 -340 -154 -426 -318 l-38 -72 -57 29 c-78 39
-151 60 -241 67 -256 20 -514 -151 -601 -399 -33 -95 -40 -178 -40 -541 l0
-349 -173 -176 c-190 -193 -238 -253 -303 -375 -102 -193 -124 -319 -124 -716
0 -385 19 -506 111 -695 68 -139 149 -232 551 -631 467 -463 588 -559 893
-705 322 -154 630 -223 995 -223 218 0 310 11 503 60 679 172 1229 722 1402
1404 61 242 59 185 62 1386 4 1234 7 1181 -67 1332 -98 198 -303 326 -525 326
-107 0 -177 -15 -265 -58 -36 -17 -68 -31 -73 -31 -4 0 -22 28 -40 63 -152
298 -509 412 -811 261 -32 -17 -59 -29 -60 -27 -40 93 -80 153 -140 214 -116
116 -238 171 -394 179 -48 2 -111 0 -139 -5z m175 -302 c89 -22 175 -96 214
-184 9 -21 14 -147 18 -471 5 -429 6 -442 26 -470 32 -42 80 -66 132 -65 48 0
81 19 116 66 20 26 21 44 26 314 5 273 6 290 28 337 30 66 93 129 156 156 58
25 148 29 213 11 60 -18 133 -80 168 -143 l30 -54 5 -290 c5 -269 7 -293 25
-325 42 -71 139 -94 210 -50 57 35 68 67 74 225 6 130 9 144 36 194 120 219
432 202 539 -28 21 -46 21 -49 21 -1131 0 -1144 0 -1142 -46 -1335 -142 -586
-614 -1063 -1199 -1210 -155 -38 -245 -49 -425 -48 -370 1 -698 91 -1025 283
-169 98 -268 186 -681 599 -401 402 -406 407 -451 497 -77 152 -83 197 -83
579 0 279 3 340 17 397 36 140 113 271 221 377 l55 53 4 -141 c3 -122 6 -144
24 -167 70 -94 190 -96 251 -5 l23 34 0 691 c0 389 4 716 10 749 26 159 140
260 295 260 122 0 228 -67 277 -177 21 -48 23 -67 28 -343 l5 -293 36 -36 c77
-77 197 -57 243 40 14 30 16 86 16 449 0 450 1 459 57 540 48 69 151 124 236
126 16 1 49 -4 75 -11z"/>
</g>
</svg>
