<svg width="20" height="20" viewBox="0 0 20 20" fill="none" xmlns="http://www.w3.org/2000/svg">
<path opacity="0.4" d="M17.5 18.3333L2.5 18.3333C2.15833 18.3333 1.875 18.05 1.875 17.7083C1.875 17.3666 2.15833 17.0833 2.5 17.0833L17.5 17.0833C17.8417 17.0833 18.125 17.3666 18.125 17.7083C18.125 18.05 17.8417 18.3333 17.5 18.3333Z"/>
<path opacity="0.4" d="M15.8505 2.89999C14.2338 1.28332 12.6505 1.24166 10.9921 2.89999L9.9838 3.90832C9.90047 3.99166 9.86714 4.12499 9.90047 4.24166C10.5338 6.44999 12.3005 8.21666 14.5088 8.84999C14.5421 8.85832 14.5755 8.86666 14.6088 8.86666C14.7005 8.86666 14.7838 8.83332 14.8505 8.76666L15.8505 7.75832C16.6755 6.94166 17.0755 6.14999 17.0755 5.34999C17.0838 4.52499 16.6838 3.72499 15.8505 2.89999Z"/>
<path d="M13.0079 9.60835C12.7663 9.49169 12.5329 9.37502 12.3079 9.24169C12.1246 9.13335 11.9496 9.01669 11.7746 8.89169C11.6329 8.80002 11.4663 8.66669 11.3079 8.53335C11.2913 8.52502 11.2329 8.47502 11.1663 8.40835C10.8913 8.17502 10.5829 7.87502 10.3079 7.54169C10.2829 7.52502 10.2413 7.46669 10.1829 7.39169C10.0996 7.29169 9.95795 7.12502 9.83295 6.93335C9.73295 6.80835 9.61628 6.62502 9.50795 6.44169C9.37461 6.21669 9.25795 5.99169 9.14128 5.75835C9.02461 5.50835 8.93295 5.26669 8.84961 5.04169L3.61628 10.275C3.50795 10.3834 3.40795 10.5917 3.38295 10.7334L2.93295 13.925C2.84961 14.4917 3.00795 15.025 3.35795 15.3834C3.65795 15.675 4.07461 15.8334 4.52461 15.8334C4.62461 15.8334 4.72461 15.825 4.82461 15.8084L8.02461 15.3584C8.17461 15.3334 8.38295 15.2334 8.48295 15.125L13.7163 9.89169C13.4829 9.80835 13.2579 9.71669 13.0079 9.60835Z"/>
</svg>
