<svg width="24" height="27" viewBox="0 0 24 27" fill="none" xmlns="http://www.w3.org/2000/svg">
<g filter="url(#filter0_d_5760_38373)">
<path d="M5.46967 17.4697C5.17678 17.7626 5.17678 18.2374 5.46967 18.5303C5.76256 18.8232 6.23744 18.8232 6.53033 18.5303L5.46967 17.4697ZM19.75 5C19.75 4.58579 19.4142 4.25 19 4.25H12.25C11.8358 4.25 11.5 4.58579 11.5 5C11.5 5.41421 11.8358 5.75 12.25 5.75H18.25V11.75C18.25 12.1642 18.5858 12.5 19 12.5C19.4142 12.5 19.75 12.1642 19.75 11.75V5ZM6.53033 18.5303L19.5303 5.53033L18.4697 4.46967L5.46967 17.4697L6.53033 18.5303Z" fill="#F2B420"/>
</g>
<defs>
<filter id="filter0_d_5760_38373" x="-4" y="0" width="32" height="32" filterUnits="userSpaceOnUse" color-interpolation-filters="sRGB">
<feFlood flood-opacity="0" result="BackgroundImageFix"/>
<feColorMatrix in="SourceAlpha" type="matrix" values="0 0 0 0 0 0 0 0 0 0 0 0 0 0 0 0 0 0 127 0" result="hardAlpha"/>
<feOffset dy="4"/>
<feGaussianBlur stdDeviation="2"/>
<feComposite in2="hardAlpha" operator="out"/>
<feColorMatrix type="matrix" values="0 0 0 0 0 0 0 0 0 0 0 0 0 0 0 0 0 0 0.25 0"/>
<feBlend mode="normal" in2="BackgroundImageFix" result="effect1_dropShadow_5760_38373"/>
<feBlend mode="normal" in="SourceGraphic" in2="effect1_dropShadow_5760_38373" result="shape"/>
</filter>
</defs>
</svg>
