<?xml version="1.0" standalone="no"?>
<!DOCTYPE svg PUBLIC "-//W3C//DTD SVG 20010904//EN"
 "http://www.w3.org/TR/2001/REC-SVG-20010904/DTD/svg10.dtd">
<svg version="1.0" xmlns="http://www.w3.org/2000/svg"
 width="192.000000pt" height="192.000000pt" viewBox="0 0 192.000000 192.000000"
 preserveAspectRatio="xMidYMid meet">
<metadata>

</metadata>
<g transform="translate(0.000000,192.000000) scale(0.100000,-0.100000)"
fill="#000000" stroke="none">
<path d="M747 1579 c-256 -63 -477 -246 -627 -521 -22 -40 -40 -84 -40 -98 0
-59 134 -264 245 -375 180 -181 381 -265 635 -265 257 0 456 84 641 271 106
106 239 312 239 369 0 57 -133 263 -239 369 -128 129 -270 212 -433 251 -112
27 -310 27 -421 -1z m315 -154 c81 -7 206 -55 287 -110 86 -57 213 -190 267
-281 l42 -69 -30 -55 c-81 -147 -216 -278 -352 -345 -119 -59 -189 -76 -311
-76 -153 0 -272 35 -394 115 -114 76 -278 265 -297 343 -17 65 184 304 325
387 113 66 284 111 381 100 14 -2 51 -6 82 -9z"/>
<path d="M832 1259 c-204 -79 -260 -370 -102 -529 124 -123 336 -123 460 0
159 160 102 452 -105 529 -74 28 -180 28 -253 0z m206 -169 c130 -79 74 -280
-78 -280 -85 0 -150 65 -150 150 0 85 65 150 150 150 27 0 58 -8 78 -20z"/>
</g>
</svg>
