<svg width="43" height="43" viewBox="0 0 43 43" fill="none" xmlns="http://www.w3.org/2000/svg">
<rect width="43" height="43" rx="21.5" fill="#F2B420"/>
<path d="M21.858 10.6904C19.1197 10.6904 16.8936 12.9166 16.8936 15.6548C16.8936 18.3408 18.9943 20.5147 21.7325 20.6088C21.8162 20.5983 21.8998 20.5983 21.9625 20.6088C21.9834 20.6088 21.9938 20.6088 22.0147 20.6088C22.0252 20.6088 22.0252 20.6088 22.0356 20.6088C24.7112 20.5147 26.8119 18.3408 26.8224 15.6548C26.8224 12.9166 24.5962 10.6904 21.858 10.6904Z" fill="white"/>
<path d="M27.1673 23.3889C24.2514 21.4449 19.496 21.4449 16.5592 23.3889C15.2318 24.2772 14.5002 25.4792 14.5002 26.7647C14.5002 28.0502 15.2318 29.2417 16.5487 30.1196C18.0119 31.102 19.935 31.5932 21.858 31.5932C23.7811 31.5932 25.7041 31.102 27.1673 30.1196C28.4842 29.2312 29.2158 28.0397 29.2158 26.7438C29.2053 25.4583 28.4842 24.2668 27.1673 23.3889Z" fill="white"/>
</svg>
