<svg width="17" height="17" viewBox="0 0 17 17" fill="none" xmlns="http://www.w3.org/2000/svg">
<path d="M10.6224 16.1145H6.3724C2.52615 16.1145 0.882812 14.4712 0.882812 10.625V6.37496C0.882812 2.52871 2.52615 0.885376 6.3724 0.885376H10.6224C14.4686 0.885376 16.112 2.52871 16.112 6.37496V10.625C16.112 14.4712 14.4686 16.1145 10.6224 16.1145ZM6.3724 1.94788C3.10698 1.94788 1.94531 3.10954 1.94531 6.37496V10.625C1.94531 13.8904 3.10698 15.052 6.3724 15.052H10.6224C13.8878 15.052 15.0495 13.8904 15.0495 10.625V6.37496C15.0495 3.10954 13.8878 1.94788 10.6224 1.94788H6.3724Z" fill="white"/>
<path d="M6.3776 7.61458C5.30094 7.61458 4.42969 6.74333 4.42969 5.66667C4.42969 4.59 5.30094 3.71875 6.3776 3.71875C7.45427 3.71875 8.32552 4.59 8.32552 5.66667C8.32552 6.74333 7.45427 7.61458 6.3776 7.61458ZM6.3776 4.78125C5.88885 4.78125 5.49219 5.17792 5.49219 5.66667C5.49219 6.15542 5.88885 6.55208 6.3776 6.55208C6.86635 6.55208 7.26302 6.15542 7.26302 5.66667C7.26302 5.17792 6.86635 4.78125 6.3776 4.78125Z" fill="white"/>
<path d="M1.88844 13.9541C1.71844 13.9541 1.54844 13.8691 1.44928 13.7204C1.28636 13.4795 1.35011 13.1466 1.59803 12.9837L5.09011 10.6391C5.85511 10.122 6.91053 10.1858 7.60469 10.7737L7.83844 10.9791C8.19261 11.2837 8.79469 11.2837 9.14178 10.9791L12.0884 8.45036C12.8393 7.80577 14.0222 7.80577 14.7801 8.45036L15.9347 9.44202C16.1543 9.63327 16.1826 9.96619 15.9914 10.1929C15.8001 10.4124 15.4672 10.4408 15.2405 10.2495L14.0859 9.25786C13.7318 8.95327 13.1297 8.95327 12.7755 9.25786L9.82886 11.7866C9.07803 12.4312 7.89511 12.4312 7.13719 11.7866L6.90344 11.5812C6.57761 11.3049 6.03928 11.2766 5.67803 11.5245L2.18594 13.8691C2.09386 13.9258 1.98761 13.9541 1.88844 13.9541Z" fill="white"/>
</svg>
