<svg width="22" height="22" viewBox="0 0 22 22" fill="none" xmlns="http://www.w3.org/2000/svg">
<path opacity="0.4" d="M16.069 7.12242C16.0048 7.11326 15.9406 7.11326 15.8765 7.12242C14.4556 7.07659 13.3281 5.91242 13.3281 4.48242C13.3281 3.02492 14.5106 1.83325 15.9773 1.83325C17.4348 1.83325 18.6265 3.01575 18.6265 4.48242C18.6173 5.91242 17.4898 7.07659 16.069 7.12242Z" fill="#EE761C"/>
<path opacity="0.4" d="M19.0557 13.4751C18.029 14.1626 16.5898 14.4193 15.2607 14.2451C15.609 13.4934 15.7923 12.6593 15.8015 11.7793C15.8015 10.8626 15.5998 9.99179 15.2148 9.23096C16.5715 9.04763 18.0107 9.30428 19.0465 9.99178C20.4948 10.9451 20.4948 12.5126 19.0557 13.4751Z" fill="#EE761C"/>
<path opacity="0.4" d="M5.90515 7.12242C5.96932 7.11326 6.03349 7.11326 6.09766 7.12242C7.51849 7.07659 8.64599 5.91242 8.64599 4.48242C8.64599 3.02492 7.46349 1.83325 5.99682 1.83325C4.53932 1.83325 3.34766 3.01575 3.34766 4.48242C3.35682 5.91242 4.48432 7.07659 5.90515 7.12242Z" fill="#EE761C"/>
<path opacity="0.4" d="M6.00354 11.7792C6.00354 12.6684 6.19604 13.5117 6.54437 14.2726C5.25187 14.4101 3.90438 14.1351 2.91438 13.4842C1.46604 12.5217 1.46604 10.9542 2.91438 9.99171C3.89521 9.33171 5.27937 9.06589 6.58104 9.21256C6.20521 9.98256 6.00354 10.8534 6.00354 11.7792Z" fill="#EE761C"/>
<path d="M11.1084 14.5475C11.0351 14.5383 10.9526 14.5383 10.8701 14.5475C9.18344 14.4925 7.83594 13.1083 7.83594 11.4033C7.83594 9.66167 9.23844 8.25 10.9893 8.25C12.7309 8.25 14.1426 9.66167 14.1426 11.4033C14.1426 13.1083 12.8043 14.4925 11.1084 14.5475Z" fill="#EE761C"/>
<path d="M8.13187 16.4449C6.74771 17.3708 6.74771 18.8924 8.13187 19.8091C9.70854 20.8633 12.2935 20.8633 13.8702 19.8091C15.2544 18.8833 15.2544 17.3616 13.8702 16.4449C12.3027 15.3908 9.71771 15.3908 8.13187 16.4449Z" fill="#EE761C"/>
</svg>
