<svg width="19" height="19" viewBox="0 0 19 19" fill="none" xmlns="http://www.w3.org/2000/svg">
<path opacity="0.2" d="M9.4987 17.4166C13.871 17.4166 17.4154 13.8722 17.4154 9.49992C17.4154 5.12766 13.871 1.58325 9.4987 1.58325C5.12644 1.58325 1.58203 5.12766 1.58203 9.49992C1.58203 13.8722 5.12644 17.4166 9.4987 17.4166Z" fill="#292D32"/>
<path d="M9.50391 8.31266C9.82849 8.31266 10.0977 8.58183 10.0977 8.90641V12.8647C10.0977 13.1893 9.82849 13.4585 9.50391 13.4585C9.17932 13.4585 8.91016 13.1893 8.91016 12.8647V8.90641C8.91016 8.58183 9.17932 8.31266 9.50391 8.31266Z" fill="#292D32"/>
<path d="M10.2309 6.83246C10.1914 6.92746 10.1359 7.01454 10.0647 7.09371C9.98552 7.16496 9.89844 7.22038 9.80344 7.25996C9.61344 7.33913 9.39177 7.33913 9.20177 7.25996C9.10677 7.22038 9.01969 7.16496 8.94052 7.09371C8.86927 7.01454 8.81385 6.92746 8.77427 6.83246C8.73469 6.73746 8.71094 6.63454 8.71094 6.53163C8.71094 6.42871 8.73469 6.32579 8.77427 6.23079C8.81385 6.12788 8.86927 6.04871 8.94052 5.96955C9.01969 5.89829 9.10677 5.84288 9.20177 5.80329C9.29677 5.76371 9.39969 5.73996 9.5026 5.73996C9.60552 5.73996 9.70844 5.76371 9.80344 5.80329C9.89844 5.84288 9.98552 5.89829 10.0647 5.96955C10.1359 6.04871 10.1914 6.12788 10.2309 6.23079C10.2705 6.32579 10.2943 6.42871 10.2943 6.53163C10.2943 6.63454 10.2705 6.73746 10.2309 6.83246Z" fill="#292D32"/>
</svg>
