<svg width="32" height="32" viewBox="0 0 32 32" fill="none" xmlns="http://www.w3.org/2000/svg">
<path opacity="0.2" d="M16.0001 29.3334C23.3639 29.3334 29.3334 23.3639 29.3334 16.0001C29.3334 8.63628 23.3639 2.66675 16.0001 2.66675C8.63628 2.66675 2.66675 8.63628 2.66675 16.0001C2.66675 23.3639 8.63628 29.3334 16.0001 29.3334Z" fill="#1D1E1B"/>
<path d="M16 14.0001C16.5467 14.0001 17 14.4534 17 15.0001V21.6667C17 22.2134 16.5467 22.6667 16 22.6667C15.4533 22.6667 15 22.2134 15 21.6667V15.0001C15 14.4534 15.4533 14.0001 16 14.0001Z" fill="#1D1E1B"/>
<path d="M17.2267 11.5067C17.1601 11.6667 17.0667 11.8133 16.9467 11.9467C16.8134 12.0667 16.6667 12.16 16.5067 12.2267C16.1867 12.36 15.8134 12.36 15.4934 12.2267C15.3334 12.16 15.1867 12.0667 15.0534 11.9467C14.9334 11.8133 14.8401 11.6667 14.7734 11.5067C14.7067 11.3467 14.6667 11.1733 14.6667 11C14.6667 10.8267 14.7067 10.6533 14.7734 10.4933C14.8401 10.32 14.9334 10.1867 15.0534 10.0533C15.1867 9.93333 15.3334 9.83999 15.4934 9.77333C15.6534 9.70666 15.8267 9.66666 16.0001 9.66666C16.1734 9.66666 16.3467 9.70666 16.5067 9.77333C16.6667 9.83999 16.8134 9.93333 16.9467 10.0533C17.0667 10.1867 17.1601 10.32 17.2267 10.4933C17.2934 10.6533 17.3334 10.8267 17.3334 11C17.3334 11.1733 17.2934 11.3467 17.2267 11.5067Z" fill="#1D1E1B"/>
</svg>
