<svg width="69" height="68" viewBox="0 0 69 68" fill="none" xmlns="http://www.w3.org/2000/svg">
<rect x="0.5" width="68" height="68" rx="34" fill="#F2B420"/>
<path d="M34.4999 36.3225C28.6818 36.3225 23.9437 40.2244 23.9437 45.0322C23.9437 45.3573 24.1992 45.6128 24.5244 45.6128H44.4753C44.8005 45.6128 45.056 45.3573 45.056 45.0322C45.056 40.2244 40.3179 36.3225 34.4999 36.3225Z" fill="#FEFBF4"/>
<path d="M34.4997 22.3872C33.1294 22.3872 31.8752 22.8633 30.8765 23.6646C29.541 24.7214 28.6932 26.3588 28.6932 28.1937C28.6932 29.2853 28.9952 30.3072 29.541 31.1782C30.5397 32.862 32.3745 34.0001 34.4997 34.0001C35.9629 34.0001 37.2984 33.4659 38.3203 32.5485C38.7732 32.1653 39.1681 31.7008 39.47 31.1782C40.0042 30.3072 40.3061 29.2853 40.3061 28.1937C40.3061 24.9885 37.7049 22.3872 34.4997 22.3872ZM37.5074 27.5666L34.4068 30.4233C34.1978 30.6208 33.9307 30.7137 33.6636 30.7137C33.3849 30.7137 33.1061 30.6091 32.8971 30.4001L31.4687 28.9601C31.039 28.5304 31.039 27.8453 31.4687 27.4156C31.8984 26.9859 32.5836 26.9859 33.0132 27.4156L33.6984 28.1008L36.0326 25.9524C36.4739 25.5459 37.159 25.5691 37.5655 26.0104C37.9719 26.4633 37.9487 27.1601 37.5074 27.5666Z" fill="#FEFBF4"/>
</svg>
