<svg width="20" height="20" viewBox="0 0 20 20" fill="none" xmlns="http://www.w3.org/2000/svg">
<path d="M16.5977 6.3564C15.9808 5.67414 14.9501 5.33302 13.455 5.33302H13.2808V5.30398C13.2808 4.08463 13.2808 2.57495 10.5517 2.57495H9.44852C6.71948 2.57495 6.71948 4.09189 6.71948 5.30398V5.34027H6.54529C5.04287 5.34027 4.01948 5.6814 3.40255 6.36366C2.684 7.16205 2.70577 8.23624 2.77835 8.96931L2.78561 9.02011L2.83565 9.54549C2.84991 9.69527 2.93067 9.83069 3.05676 9.91276C3.23244 10.0271 3.48466 10.1883 3.64206 10.2758C3.74368 10.3411 3.85255 10.3991 3.96142 10.4572C5.20255 11.1395 6.56706 11.5967 7.95335 11.8217C8.01868 12.504 8.31626 13.3024 9.90577 13.3024C11.4953 13.3024 11.8074 12.5112 11.8582 11.8072C13.3388 11.5677 14.7687 11.0524 16.0606 10.2975C16.1042 10.2758 16.1332 10.254 16.1695 10.2322C16.4404 10.0791 16.7208 9.89257 16.9797 9.70747C17.0931 9.62644 17.1653 9.50023 17.1807 9.36172L17.1856 9.31769L17.2219 8.97656C17.2292 8.93302 17.2292 8.89673 17.2364 8.84592C17.2945 8.11285 17.28 7.11124 16.5977 6.3564ZM10.7913 11.3282C10.7913 12.0975 10.7913 12.2137 9.89852 12.2137C9.00577 12.2137 9.00577 12.0758 9.00577 11.3354V10.4209H10.7913V11.3282ZM7.75739 5.33302V5.30398C7.75739 4.07011 7.75739 3.61285 9.44852 3.61285H10.5517C12.2429 3.61285 12.2429 4.07737 12.2429 5.30398V5.34027H7.75739V5.33302Z" fill="#0067FF"/>
<path d="M16.2184 11.3635C16.5729 11.197 16.9798 11.478 16.9444 11.868L16.7061 14.4928C16.5537 15.9444 15.9586 17.4251 12.765 17.4251H7.23436C4.04081 17.4251 3.44565 15.9444 3.29323 14.5001L3.06768 12.019C3.03263 11.6335 3.43084 11.3532 3.78423 11.5111C4.61719 11.8833 5.92205 12.4393 6.78871 12.678C6.95247 12.7231 7.08574 12.8416 7.16233 12.9932C7.61641 13.8919 8.55885 14.3694 9.90532 14.3694C11.2386 14.3694 12.1922 13.8735 12.6482 12.9716C12.7249 12.8199 12.8584 12.7015 13.0222 12.656C13.9454 12.3998 15.3424 11.7751 16.2184 11.3635Z" fill="#0067FF"/>
</svg>
