<svg width="22" height="22" viewBox="0 0 22 22" fill="none" xmlns="http://www.w3.org/2000/svg">
<path opacity="0.4" d="M18.901 7.74591C17.9385 3.51091 14.2444 1.60425 10.9994 1.60425C10.9994 1.60425 10.9994 1.60425 10.9902 1.60425C7.75435 1.60425 4.05102 3.50175 3.08852 7.73675C2.01602 12.4667 4.91269 16.4726 7.53436 18.9934C8.50602 19.9284 9.75269 20.3959 10.9994 20.3959C12.246 20.3959 13.4927 19.9284 14.4552 18.9934C17.0769 16.4726 19.9735 12.4759 18.901 7.74591Z" fill="#0067FF"/>
<path d="M11.0008 12.3382C12.5955 12.3382 13.8883 11.0455 13.8883 9.45073C13.8883 7.85601 12.5955 6.56323 11.0008 6.56323C9.40606 6.56323 8.11328 7.85601 8.11328 9.45073C8.11328 11.0455 9.40606 12.3382 11.0008 12.3382Z" fill="#0067FF"/>
</svg>
