<svg width="250" height="250" viewBox="0 0 1176 1019" fill="none"
    xmlns="http://www.w3.org/2000/svg">
    <path
        d="M1090.3 280.519C1061.83 278.265 992.124 275.456 922.989 272.994C925.281 275.356 927.516 278.491 929.776 282.64L1140.25 290.845C1168.86 291.984 1165.56 303.796 1164.65 312.668C1158.11 343.452 1117.23 671.018 1110.23 672.271C1106.06 673.014 1107.34 664.464 1094.93 662.304C623.94 580.507 623.347 596.418 624.342 578.271C624.657 572.58 625.387 577.327 638.711 521.61C664.029 415.76 677.232 354.565 687.376 319.563C685.242 318.329 682.962 316.956 680.519 315.432C665.47 375.236 626.338 533.85 616.56 578.246C614.205 588.944 619.645 590.229 615.37 591.166C602.563 593.981 565.773 605.202 527.944 617.227L529.908 625.18C570.861 611.756 612.883 598.659 616.018 597.847C632.515 593.572 616.296 596.733 1086.49 668.304C1096.81 669.878 1106.71 676.477 1097.45 682.666C1088.84 688.422 1080.95 692.407 1049.22 707.839C926.42 767.574 876.886 797.501 858.135 797.809C844.957 796.726 679.896 752.966 552.783 718.896L555.333 729.525C875.74 812.902 858.104 815.981 900.781 792.615C949.207 766.101 957.373 766.818 1076.75 704.817C1126.58 678.933 1117.89 687.193 1128.03 632.408C1131.29 614.797 1171.72 364.903 1175.93 306.29C1178.21 274.524 1124.68 283.233 1090.3 280.512L1090.3 280.519Z"
        fill="#191919" />
    <path
        d="M860.673 270.861L774.198 268.059C771.428 270.911 768.79 273.65 766.29 276.282L824.223 278.536C832.39 276.943 846.179 273.681 860.68 270.861H860.673Z"
        fill="#191919" />
    <path
        d="M793.862 307.223C770.898 306.379 752.412 305.724 739.366 305.284C736.69 308.155 734.234 310.737 731.949 313.029C744.485 314.143 763.796 315.345 787.345 316.573C789.769 313.236 791.922 310.119 793.862 307.223Z"
        fill="#191919" />
    <path
        d="M1120.09 320.13L941.425 312.864C942.476 316.056 943.553 319.494 944.667 323.196C1019.88 325.903 1092.41 328.05 1124.27 328.668C1122.16 345.857 1093.44 540.852 1080.34 626.389C1062.95 624.506 693.055 570.061 661.032 563.059C693.465 426.709 707.676 354.036 712.228 326.709C709.596 327.301 706.926 327.301 704.03 326.734C695.215 357.48 676.659 441.065 651.121 563.305C650.265 567.398 649.585 569.116 658.765 571.207C675.835 575.098 1070.33 636.816 1079.52 637.659C1087.51 638.39 1087.94 633.258 1089.32 625.356C1096.47 584.241 1122.91 404.199 1128.34 370.255C1136.21 321.005 1137.55 320.847 1120.1 320.117L1120.09 320.13Z"
        fill="#191919" />
    <path
        d="M926.849 728.517C843.169 710.144 843.987 710.799 843.452 708.822C842.621 705.724 858.35 696.519 861.145 694.806C869.217 689.863 870.873 687.03 879.909 688.793C1003.44 712.82 970.042 703.986 935.852 725.759C933.12 727.497 929.984 727.667 926.849 728.517Z"
        fill="#191919" />
    <path
        d="M820.363 744.384C820.256 744.359 735.834 725.382 735.399 722.466C734.964 719.551 736.387 718.594 757.329 705.976C761.749 703.313 760.05 703.923 818.323 717.631C838.459 722.366 859.672 723.827 842.187 733.718C824.701 743.604 825.501 744.762 820.363 744.384Z"
        fill="#191919" />
    <path
        d="M925.488 686.186C852.424 672.819 842.054 673.171 855.787 664.57C877.365 651.046 878.347 650.416 884.637 651.915C925.835 661.705 967.775 662.266 957.619 668.26C941.355 677.868 931.558 686.715 925.488 686.186Z"
        fill="#191919" />
    <path
        d="M825.426 706.114C736.759 686.627 741.085 692.401 766.422 676.036C773.927 671.188 777.056 668.097 784.77 669.771C871.333 688.585 868.412 677.906 830.394 704.332C828.901 705.365 827.283 705.875 825.426 706.108V706.114Z"
        fill="#191919" />
    <path
        d="M832.094 773.486C807.185 765.156 657.676 725.923 547.79 698.193L549.585 705.598C658.413 734.537 804.477 772.132 829.644 776.842C832.087 777.302 834.474 774.273 832.1 773.48L832.094 773.486Z"
        fill="#191919" />
    <path
        d="M542.741 677.434C550.756 679.354 559.729 681.514 569.715 683.964C578.556 682.906 582.749 678.246 595.253 671.396C607.846 664.501 587.679 664.01 551.392 654.931C545.241 653.394 540.311 652.179 536.325 651.228L542.741 677.434Z"
        fill="#191919" />
    <path
        d="M631.564 609.659C636.337 610.837 697.633 620.93 697.803 620.955C710.761 623.033 695.845 628.97 685.172 636.35C678.114 641.229 670.999 639.555 663.702 638.257C576.521 622.743 582.131 624.367 631.564 609.659Z"
        fill="#191919" />
    <path
        d="M574.078 628.24C574.185 628.24 648.961 641.89 649.207 644.025C649.471 646.273 647.898 645.618 625.891 659.036C619.456 662.958 616.428 658.494 562.99 646.941C560.515 646.405 543.735 643.251 544.094 640.713C544.207 639.901 544.762 639.051 545.687 638.78C547.753 638.169 574.185 628.227 574.078 628.24Z"
        fill="#191919" />
    <path
        d="M826.754 667.971C771.566 658.242 767.517 659.175 774.953 652.645C780.658 647.639 786.904 643.37 793.458 639.593C796.361 637.918 799.749 637.987 802.966 638.522C868.449 649.396 871.717 644.271 831.804 667.095C830.431 667.882 829.059 668.191 826.754 667.971Z"
        fill="#191919" />
    <path
        d="M589.983 688.673C587.005 687.968 587.155 686.356 589.278 685.141C622.447 666.182 601.216 666.755 671.169 683.101C680.009 685.166 668.619 690.216 653.829 699.642C647.331 703.785 652.179 703.444 589.983 688.673Z"
        fill="#191919" />
    <path
        d="M721.874 624.714C781.981 634.511 780.973 634.612 781.546 636.721C782.421 639.939 755.926 655.094 752.645 654.477C696.664 644.019 692.03 644.378 696.349 641.374C721.371 623.952 717.694 626.049 721.874 624.714Z"
        fill="#191919" />
    <path
        d="M665.565 707.084C656.958 704.994 674.04 695.316 678.158 692.004C682.276 688.692 685.795 686.092 691.053 687.401C737.464 698.943 749.339 697.532 737.596 705.667C712.694 722.926 727.371 722.113 665.565 707.077V707.084Z"
        fill="#191919" />
    <path
        d="M953.589 691.286C949.302 690.575 945.996 687.213 949.616 685.191C957.204 680.96 975.86 667.341 983.63 668.739C1040.29 678.945 1038.67 674.657 993.987 696.883C991.072 698.332 991.519 697.551 953.589 691.286Z"
        fill="#191919" />
    <path
        d="M694.365 651.832C701.568 653.098 713.947 654.609 707.915 658.752C688.012 672.409 686.759 674.966 679.014 673.323C624.808 661.788 632.37 665.697 657.921 648.709C665.181 643.887 678.819 649.099 694.365 651.832Z"
        fill="#191919" />
    <path
        d="M866.837 729.405C896.261 734.952 905.075 737.867 900.051 742.483C894.535 747.545 887.408 749.755 881.168 753.508C874.985 757.223 869.167 756.826 862.675 754.855C845.99 749.787 840.317 751.902 839.12 746.915C838.44 744.076 838.403 745.052 861.838 730.532C863.172 729.707 864.596 729.437 866.831 729.405H866.837Z"
        fill="#191919" />
    <path
        d="M726.874 658.62C777.56 668.272 767.31 662.688 736.671 684.045C733.088 686.545 733.347 685.739 704.15 679.405C699.572 678.41 699.843 675.388 702.714 673.392C725.973 657.178 720.942 659.886 726.88 658.627L726.874 658.62Z"
        fill="#191919" />
    <path
        d="M871.9 778.499C870.842 773.581 876.357 773.713 927.189 747.91C948.005 737.345 948.187 736.847 949.894 738.837C953.867 743.484 949.365 744.34 883.567 776.068C880.287 777.648 872.599 781.741 871.9 778.499Z"
        fill="#191919" />
    <path
        d="M994.982 721.447C991.255 721.906 990.38 716.768 994.302 714.88C1032.29 696.638 1031.77 696.362 1033.09 698.483C1034.13 700.171 1032.82 701.978 1031.43 703.351C1030.3 704.465 1000.09 720.169 994.982 721.447Z"
        fill="#191919" />
    <path
        d="M783.001 884.152C776.943 873.159 753.187 865.345 736.432 859.54C696.745 845.782 585.059 809.829 560.635 804.459C556.36 803.52 561.8 802.236 559.445 791.538C547.426 736.942 491.003 509.577 489.574 505.724C476.603 470.646 455.825 481.672 420.685 480.721L373.348 482.245C375.205 484.946 377.245 487.817 379.506 490.858L456.568 487.88C487.704 486.702 483.007 508.003 537.282 734.908C550.612 790.632 551.342 785.884 551.657 791.569C552.652 809.71 552.047 793.805 81.0737 875.602C68.6633 877.755 69.9413 886.312 65.7731 885.569C58.7651 884.316 15.3197 556.801 8.7839 526.017C7.6823 516.352 7.1219 505.283 35.7455 504.144L215.622 497.192C216.636 493.773 217.631 490.556 218.594 487.54C161.794 489.668 109.433 491.935 85.7015 493.811C51.3353 496.531 -2.2033 487.823 0.0700989 519.589C4.2695 578.202 44.7113 828.108 47.9729 845.706C58.1165 900.486 49.4147 892.218 99.2513 918.115C218.606 980.135 226.792 979.399 275.218 1005.91C311.907 1026 309.804 1024.58 465.754 983.384C780.954 900.12 792.868 902.072 783.001 884.152ZM770.855 892.407C770.754 892.464 339.492 1009.33 317.845 1011.11C299.094 1010.79 249.56 980.859 126.761 921.138C95.0267 905.705 87.1373 901.719 78.5297 895.965C69.2741 889.775 79.1723 883.176 89.4857 881.602C559.786 810.018 543.484 806.845 559.962 811.145C563.966 812.19 631.288 833.22 678.901 849.421C753.886 874.934 786.936 883.857 770.848 892.407H770.855Z"
        fill="#191919" />
    <path
        d="M249.151 941.822C332.83 923.448 332.012 924.104 332.547 922.127C333.378 919.028 317.65 909.823 314.854 908.111C306.782 903.168 305.126 900.335 296.09 902.097C172.56 926.124 205.957 917.291 240.147 939.064C242.879 940.802 246.022 940.971 249.157 941.822H249.151Z"
        fill="#191919" />
    <path
        d="M355.637 957.682C355.743 957.657 440.166 938.679 440.601 935.764C441.035 932.849 439.612 931.892 418.67 919.274C414.25 916.611 415.95 917.221 357.677 930.928C337.541 935.664 316.328 937.124 333.813 947.016C351.298 956.901 350.499 958.066 355.637 957.688V957.682Z"
        fill="#191919" />
    <path
        d="M250.511 899.49C323.575 886.124 333.945 886.476 320.212 877.875C298.634 864.35 297.652 863.721 291.362 865.219C250.165 875.01 208.224 875.57 218.38 881.565C234.644 891.173 244.441 900.02 250.511 899.49Z"
        fill="#191919" />
    <path
        d="M350.574 919.419C439.24 899.931 434.915 905.705 409.578 889.341C402.072 884.493 398.943 881.401 391.23 883.075C304.666 901.89 307.588 891.211 345.606 917.637C347.098 918.669 348.717 919.186 350.574 919.419Z"
        fill="#191919" />
    <path
        d="M606.291 897.268C712.738 871.163 703.621 877.787 658.35 861.882C655.629 860.925 653.993 860.887 624.614 868.235C588.327 877.308 568.16 877.806 580.753 884.7C593.257 891.551 597.45 896.21 606.291 897.268Z"
        fill="#191919" />
    <path
        d="M740.008 882.799C694.176 892.017 376.773 974.613 342.609 986.501C339.215 987.685 339.278 991.21 344.289 990.253C385.134 982.471 701.858 899.194 743.295 885.997C748.729 884.266 743.912 882.012 740.008 882.799Z"
        fill="#191919" />
    <path
        d="M544.435 822.964C539.663 824.141 478.367 834.234 478.197 834.26C465.239 836.337 480.155 842.275 490.827 849.654C497.886 854.534 505.001 852.859 512.298 851.562C599.478 836.048 593.868 837.672 544.435 822.964Z"
        fill="#191919" />
    <path
        d="M601.921 841.544C601.814 841.544 527.044 855.195 526.792 857.329C526.528 859.577 528.102 858.922 550.108 872.34C556.543 876.263 559.572 871.798 613.009 860.245C615.483 859.709 632.263 856.555 631.905 854.017C631.791 853.206 631.237 852.355 630.312 852.085C628.246 851.474 601.814 841.532 601.921 841.544Z"
        fill="#191919" />
    <path
        d="M349.232 881.288C404.421 871.56 408.469 872.492 401.033 865.962C395.328 860.957 389.082 856.688 382.528 852.909C379.625 851.235 376.238 851.304 373.021 851.839C307.538 862.713 304.269 857.588 344.183 880.412C345.555 881.199 346.928 881.508 349.232 881.288Z"
        fill="#191919" />
    <path
        d="M586.017 901.978C588.995 901.272 588.844 899.661 586.722 898.445C553.552 879.487 574.784 880.06 504.83 896.405C495.99 898.47 507.381 903.52 522.171 912.946C528.669 917.089 523.82 916.75 586.017 901.978Z"
        fill="#191919" />
    <path
        d="M454.125 838.024C394.02 847.822 395.027 847.923 394.454 850.032C393.579 853.249 420.074 868.405 423.354 867.788C479.336 857.329 483.971 857.688 479.651 854.685C454.629 837.269 458.306 839.359 454.125 838.024Z"
        fill="#191919" />
    <path
        d="M510.434 920.388C519.042 918.298 501.959 908.621 497.842 905.309C493.724 901.997 490.204 899.396 484.946 900.706C438.536 912.247 426.661 910.837 438.403 918.972C463.306 936.23 448.629 935.418 510.434 920.382V920.388Z"
        fill="#191919" />
    <path
        d="M222.41 904.603C226.697 903.892 230.003 900.529 226.383 898.508C218.795 894.277 200.14 880.658 192.37 882.055C135.708 892.262 137.326 887.974 182.012 910.201C184.927 911.649 184.48 910.868 222.41 904.603Z"
        fill="#191919" />
    <path
        d="M481.634 865.137C474.431 866.403 462.052 867.914 468.084 872.057C487.987 885.714 489.24 888.27 496.985 886.627C551.191 875.092 543.629 879.002 518.078 862.014C510.818 857.191 497.18 862.404 481.634 865.137Z"
        fill="#191919" />
    <path
        d="M309.162 942.709C279.738 948.256 270.924 951.172 275.948 955.787C281.464 960.849 288.591 963.059 294.831 966.812C301.071 970.564 306.832 970.13 313.324 968.16C330.009 963.091 335.682 965.206 336.879 960.22C337.559 957.38 337.596 958.356 314.161 943.836C312.827 943.011 311.397 942.741 309.162 942.709Z"
        fill="#191919" />
    <path
        d="M449.125 871.937C398.439 881.59 408.69 876.005 439.328 897.362C442.911 899.862 442.653 899.056 471.849 892.722C476.427 891.727 476.155 888.705 473.284 886.709C450.025 870.495 455.056 873.203 449.119 871.944L449.125 871.937Z"
        fill="#191919" />
    <path
        d="M304.1 991.803C305.158 986.885 299.642 987.017 248.81 961.215C227.994 950.649 227.812 950.152 226.106 952.141C222.132 956.788 226.634 957.645 292.432 989.372C295.713 990.952 303.401 995.045 304.1 991.803Z"
        fill="#191919" />
    <path
        d="M181.017 934.745C184.744 935.204 185.62 930.066 181.697 928.177C143.704 909.936 144.227 909.659 142.911 911.781C141.866 913.469 143.182 915.276 144.573 916.649C145.701 917.763 175.905 933.466 181.017 934.745Z"
        fill="#191919" />
    <path
        d="M397.615 527.963C430.476 526.099 453.59 524.336 458.986 522.894C463.381 521.717 462.021 517.989 458.463 517.939C456.297 517.908 434.134 518.638 397.3 519.973C397.716 522.523 397.81 525.148 397.615 527.963Z"
        fill="#191919" />
    <path
        d="M527.333 778.813C503.974 667.007 486.287 582.239 476.156 545.19C468.563 517.416 461.725 521.163 467.354 551.134C473.625 584.543 489.82 652.167 519.047 775.035C520.325 780.413 520.017 778.977 480.689 784.568C387.622 797.803 106.234 839.108 97.9608 839.404C68.292 645.662 51.474 544.095 51.1716 541.274C79.3356 540.726 139.372 538.869 204.994 536.451C205.793 533.277 206.574 530.211 207.343 527.245L55.9002 533.429C38.4528 534.159 39.7878 534.316 47.6646 583.567C53.0922 617.517 82.0812 798.099 89.2404 839.215C90.6126 847.11 87.9558 850.082 95.946 849.352C105.139 848.514 502.507 789.24 519.658 785.978C528.549 784.285 528.165 782.811 527.333 778.813Z"
        fill="#191919" />
    <path
        d="M904.798 183.384C864.274 130.563 801.266 83.9133 736.249 63.8211C727.579 61.1391 732.547 53.1111 738.849 55.1763C872.611 98.9931 912.196 174.89 912.196 174.89C913.456 152.425 907.82 138.938 916.126 139.618C921.799 140.078 921.345 153.294 921.578 165.024C922.208 196.67 931.01 202.853 874.411 186.3C867.334 184.228 870.212 176.124 876.697 177.591C885.783 179.644 894.938 181.37 904.798 183.384Z"
        fill="#191919" />
    <path
        d="M581.98 35.4555C511.662 39.4035 449.736 60.7173 399.132 93.4521C386.841 101.404 382.925 108.494 379.046 103.627C376.792 100.806 378.14 98.0799 380.708 96.1599C444.781 48.1743 514.948 26.0679 576.408 25.1739C583.681 25.0665 583.586 26.4897 564.444 14.5833C554.313 8.28027 549.629 6.38487 552.192 1.79487C556.115 -5.22573 572.706 9.53307 596.865 25.5453C604.408 30.5445 591.884 40.4679 585.147 46.3611C566.459 62.7069 562.927 66.6423 559.528 61.9509C556.127 57.2601 558.74 56.9961 581.98 35.4555Z"
        fill="#191919" />
    <path
        d="M154.799 401.964C151.808 410.949 142.54 410.931 147.658 395.491C190.745 265.609 285.128 227.459 263.708 228.416C238.837 229.524 234.386 231.306 233.693 225.759C232.786 218.511 241.066 220.25 283.661 219.872C295.342 219.771 286.13 243.968 279.607 266.925C277.774 273.366 269.06 273.593 271.264 262.555C272.139 258.154 277.988 238.534 276.131 237.564C276.289 237.602 189.555 297.481 154.799 401.964Z"
        fill="#191919" />
    <path
        d="M163.097 766.176C149.081 765.981 145.152 758.041 140.247 727.969C137.162 709.036 130.349 691.041 126.294 672.34C117.882 633.529 115.547 633.907 126.244 630.822C140.31 626.767 162.279 622.749 187.131 619.116C187.716 615.792 188.333 612.436 188.969 609.067C163.544 612.845 141.091 617.114 125.973 621.729C105.585 627.957 105.875 633.863 122.416 693.408C132.969 731.395 130.091 768.197 151.997 772.75C154.024 773.172 158.362 773.115 164.47 772.68C163.979 770.552 163.532 768.38 163.11 766.182L163.097 766.176Z"
        fill="#191919" />
    <path
        d="M162.568 640.367C168.871 638.44 176.288 636.601 184.511 634.845C184.927 632.144 185.367 629.398 185.834 626.628C167.121 629.6 148.766 633.088 132.113 637.168C124.777 638.963 126.307 640.531 133.554 672.951C146.915 732.729 149.182 753.18 161.636 758.104C148.099 679.323 123.933 652.167 162.568 640.367Z"
        fill="#F2B420" />
    <path
        d="M206.246 630.702C214.538 588.39 226.854 528.466 248.64 468.285C251.593 460.138 252.122 459.666 329.644 466.207C338.131 466.925 334.68 466.982 322.907 513.878C320.671 522.781 321.792 524.601 330.802 526.496C343.943 529.26 356.876 533.126 370.337 534.265C379.165 535.015 365.704 548.25 349.622 614.061C354.962 613.626 359.942 613.242 364.482 612.902C386.11 534.31 397.752 526.999 381.703 507.55C355.73 476.068 351.687 458.589 342.784 457.569C328.529 455.938 257.87 445.618 246.027 451.827C231.167 457.984 204.03 567.265 193.508 633.025C197.608 632.232 201.864 631.451 206.246 630.702ZM378.907 523.002C371.691 523.744 366.755 522.737 335.505 517.731C328.838 516.661 330.991 517.051 342.74 469.135L378.907 523.002Z"
        fill="#F2B420" />
    <path
        d="M367.914 620.017C402.658 620.747 399.976 614.054 421.031 727.932C422.756 737.269 422.422 746.657 421.465 756.02C420.886 761.643 416.63 765.609 410.321 766.995C392.08 770.999 207.966 802.003 190.726 798.42C168.821 793.868 171.698 757.071 161.146 719.079C144.605 659.539 144.315 653.627 164.703 647.4C206.914 634.511 306.272 624.33 367.914 620.017ZM414.143 744.327C413.242 733.353 402.847 675.444 390.695 636.23C389.467 632.27 387.332 630.06 383.057 630.047C345.877 629.934 211.756 643.005 164.98 656.492C154.282 659.577 156.618 659.2 165.031 698.011C169.085 716.711 175.898 734.706 178.983 753.64C185.859 795.788 190.82 794.466 224.311 789.265C417.631 759.212 415.603 762.127 414.143 744.334V744.327Z"
        fill="#191919" />
    <path
        d="M403.828 737.672C404.118 750.895 409.703 754.609 345.624 764.061C316.818 768.31 269.934 776.742 253.689 778.813C185.19 787.534 195.586 802.771 172.308 698.609C165.061 666.189 163.537 664.627 170.873 662.833C254.187 642.438 380.084 636.759 380.242 636.747C383.441 636.412 385.342 637.974 386.129 641.072C399.301 693.156 394.843 661.523 403.828 737.672Z"
        fill="#F2B420" />
    <path
        d="M814.697 194.837C826.818 206.032 824.305 202.745 716.422 314.583C708.577 322.718 705.384 320.375 669.595 297.167C573.783 235.033 556.555 241.626 554.711 212.322C552.016 169.575 542.577 153.268 548.666 146.096C558.426 134.617 605.17 76.0293 618.708 72.2895C637.503 65.2245 774.173 157.417 814.697 194.837ZM778.253 230.135C808.438 200.592 809.011 203.394 804.528 200.239C769.639 175.708 705.183 125.878 628.524 86.7963C620.414 82.6659 619.702 82.7097 564.968 143.301C558.98 149.931 561.656 147.519 604.333 174.997C612.443 180.216 612.871 182.427 607.33 190.335C599.233 201.882 592.105 214.136 582.604 224.651C574.979 233.081 606.417 231.834 701.814 303.312C703.382 304.489 704.667 306.152 707.305 305.667C747.885 263.953 754.981 252.915 778.253 230.135ZM567.946 222.144C574.016 217.542 577.07 213.235 597.432 186.979C601.77 181.382 600.397 183.226 557.022 154.924L567.94 222.138L567.946 222.144Z"
        fill="#F2B420" />
    <path
        d="M393.603 178.296C407.493 176.161 474.147 210.414 487.748 216.887C496.248 220.929 494.315 239.667 509.388 279.763C519.721 307.253 501.31 308.298 439.397 404.244C416.264 440.089 414.312 443.527 403.829 439.327C259.577 381.57 258.62 385.606 265.093 370.425C286.715 319.689 373.568 179.549 393.603 178.296ZM408.501 427.44C411.114 426.785 411.605 424.745 412.556 423.032C470.445 318.839 499.44 306.989 489.032 302.424C476.055 296.725 464.526 288.471 452.418 281.268C444.113 276.325 443.61 274.128 448.861 266.043C476.521 223.486 479.94 224.594 471.761 221.005C396.978 188.213 396.317 188.427 390.619 195.517C336.702 262.587 298.332 334.454 276.597 371.156C273.807 375.865 273.171 373.076 312.82 387.646C343.395 398.879 354.37 406.032 408.501 427.44ZM483.749 228.352C455.793 271.936 453.779 270.822 460.043 274.147C489.398 289.73 493.925 292.431 501.354 294.144L483.749 228.352Z"
        fill="#F2B420" />
    <path
        d="M1032.58 403.824C1015.96 398.755 990.499 394.102 961.97 390.06C962.726 393.365 963.481 396.747 964.237 400.197C992.004 404.094 1016.88 408.483 1032.29 412.915C1042.99 415.995 1040.64 415.623 1032.24 454.434C1028.2 473.122 1021.38 491.118 1018.29 510.063C1013.37 540.121 1009.45 548.08 995.448 548.281C995.027 550.473 994.58 552.639 994.088 554.767C1000.2 555.201 1004.53 555.258 1006.56 554.836C1028.46 550.284 1025.58 513.489 1036.14 475.496C1052.68 415.957 1052.97 410.051 1032.58 403.824Z"
        fill="#191919" />
    <path
        d="M1026.43 419.256C1007.75 414.684 986.923 410.85 965.855 407.651C966.416 410.277 966.97 412.927 967.524 415.597C978.373 417.744 988.05 420.036 995.977 422.454C1034.68 434.272 1010.44 461.561 996.909 540.184C1009.36 535.26 1011.64 514.81 1024.99 455.032C1032.24 422.611 1033.76 421.05 1026.43 419.256H1026.43Z"
        fill="#F2B420" />
    <path
        d="M802.545 395.638C793.459 368.317 788.428 361.58 794.574 361.057C807.664 359.956 820.269 356.178 833.057 353.502C841.822 351.663 842.93 349.894 840.746 341.224C829.267 295.575 825.942 295.518 834.19 294.825C909.647 288.485 910.17 288.913 913.035 296.853C927.554 337.068 937.767 377.139 945.354 411.637C949.9 412.374 954.333 413.136 958.621 413.916C946.147 353.955 927.076 285.633 915.566 280.86C904.03 274.822 835.261 284.852 821.384 286.432C812.726 287.415 808.785 304.434 783.511 335.079C771.485 349.655 775.426 357.229 787.483 394.819C791.356 394.737 788.976 394.58 802.532 395.638H802.545ZM821.459 297.678C832.887 344.309 834.978 343.944 828.492 344.976C798.075 349.831 793.277 350.82 786.256 350.102L821.459 297.678Z"
        fill="#F2B420" />
    <path
        d="M993.83 429.493C1014.22 435.714 1013.93 441.626 997.388 501.172C986.835 539.158 989.713 575.961 967.807 580.513C950.574 584.096 766.453 553.092 748.213 549.087C741.91 547.703 737.653 543.742 737.068 538.113C736.092 528.75 735.771 519.35 737.503 510.024C758.576 396.147 755.863 402.846 790.619 402.11C852.268 406.423 951.619 416.61 993.83 429.493ZM934.21 571.371C967.7 576.578 972.643 577.881 979.537 535.733C982.635 516.787 989.448 498.792 993.49 480.104C1001.89 441.287 1004.24 441.658 993.541 438.585C946.758 425.13 812.644 412.027 775.463 412.14C771.188 412.153 769.054 414.363 767.826 418.323C755.674 457.538 745.279 515.459 744.378 526.433C742.917 544.221 740.884 541.318 934.21 571.371Z"
        fill="#191919" />
    <path
        d="M754.729 519.765C754.44 532.988 748.855 536.703 812.933 546.153C841.74 550.404 888.623 558.834 904.868 560.906C973.367 569.627 962.971 584.864 986.249 480.703C993.497 448.283 995.02 446.721 987.685 444.927C904.37 424.533 778.473 418.853 778.316 418.841C775.117 418.507 773.216 420.069 772.429 423.167C759.257 475.251 763.708 443.617 754.723 519.765L754.729 519.765Z"
        fill="#F2B420" />
</svg>