<svg width="64" height="65" viewBox="0 0 64 65" fill="none" xmlns="http://www.w3.org/2000/svg">
<rect y="0.153809" width="64" height="64" rx="32" fill="#F2B420"/>
<path d="M38.1827 16.1108H25.1483C19.4866 16.1108 16.1113 19.4861 16.1113 25.1478V38.1667C16.1113 43.8439 19.4866 47.2192 25.1483 47.2192H38.1671C43.8289 47.2192 47.2041 43.8439 47.2041 38.1822V25.1478C47.2197 19.4861 43.8444 16.1108 38.1827 16.1108ZM30.0323 40.2354C29.5812 40.6864 28.7258 41.1219 28.1036 41.2153L24.2773 41.7597C24.1373 41.7752 23.9973 41.7908 23.8573 41.7908C23.2196 41.7908 22.6285 41.573 22.2086 41.1531C21.6953 40.6398 21.4775 39.8932 21.6019 39.0688L22.1463 35.2425C22.2397 34.6047 22.6596 33.7648 23.1263 33.3138L30.0634 26.3766C30.1878 26.7032 30.3123 27.0299 30.4834 27.4032C30.6389 27.7298 30.81 28.072 30.9967 28.3831C31.1522 28.6475 31.3233 28.8964 31.4633 29.083C31.6344 29.3474 31.8366 29.5963 31.961 29.7363C32.0388 29.8452 32.101 29.9229 32.1321 29.954C32.521 30.4207 32.972 30.8562 33.3609 31.1828C33.4698 31.2917 33.532 31.3539 33.5631 31.3695C33.7964 31.5561 34.0297 31.7428 34.2319 31.8828C34.4808 32.0694 34.7297 32.2405 34.9941 32.3805C35.3052 32.5672 35.6474 32.7382 35.9896 32.9093C36.3473 33.0649 36.6739 33.2049 37.0006 33.3138L30.0323 40.2354ZM40.0181 30.2496L38.5871 31.6961C38.4938 31.7894 38.3693 31.8361 38.2449 31.8361C38.1982 31.8361 38.136 31.8361 38.1049 31.8205C34.9474 30.9184 32.4276 28.3986 31.5255 25.2411C31.4788 25.07 31.5255 24.8834 31.6499 24.7745L33.0965 23.328C35.4607 20.9637 37.7161 21.0104 40.0336 23.328C41.2158 24.5101 41.7913 25.6455 41.7913 26.8277C41.7757 27.9476 41.2002 29.0675 40.0181 30.2496Z" fill="white"/>
</svg>
