<svg width="179" height="176" viewBox="0 0 179 176" fill="none" xmlns="http://www.w3.org/2000/svg">
<g clip-path="url(#clip0_6914_41691)">
<path d="M131.713 32.6966C131.653 39.5377 131.152 46.3677 130.213 53.1443C130.18 53.3823 130.144 53.6202 130.111 53.8582L66.0451 53.5002C65.857 53.2639 65.6719 53.0247 65.4925 52.7827C64.8943 51.9816 64.3337 51.1578 63.8191 50.3056C61.3456 46.2 60.2132 41.3932 61.348 38.0767L61.3683 38.0252C61.6133 37.2989 61.9993 36.6283 62.5041 36.0516C65.0914 33.1393 70.3226 33.6247 75.0697 35.9755C70.8118 31.3147 67.4214 25.4336 67.1638 20.1839C66.9112 15.0635 69.5887 11.4056 72.4927 8.29704C72.588 8.19428 72.6833 8.09437 72.7785 7.99448C72.8248 7.94309 72.8738 7.89457 72.9199 7.84318C75.1857 5.47423 77.8272 3.13893 81.6505 3.42143C85.8438 3.7318 90.4928 7.2441 93.7526 11.3369C97.0123 15.4268 99.1785 20.073 101.374 24.6075C103.573 29.1391 105.951 33.7865 109.479 37.6598C104.701 31.616 100.848 24.7394 99.4252 18.0515C98.002 11.3635 99.2545 4.94015 103.513 1.79036C104.806 0.863599 106.302 0.259962 107.876 0.0299666C108.06 -0.000566423 108.246 -0.0253518 108.436 -0.0472538C112.378 -0.495797 117.085 0.867641 121.09 4.12671C125.5 7.71518 128.558 13.0349 130.079 18.085C131.6 23.1351 131.762 27.9968 131.713 32.6966Z" fill="#FBF5E8"/>
<path d="M89.8011 53.6329L88.576 53.6261C88.187 53.3829 87.7962 53.1426 87.4036 52.9051C87.1605 52.7516 86.9146 52.6039 86.6686 52.4533C82.605 49.9715 78.516 47.591 74.4016 45.3117C70.291 43.0305 66.1597 40.8544 62.0077 38.7834C61.8976 38.7355 61.8079 38.6505 61.7539 38.5433C61.7 38.436 61.6854 38.3133 61.7126 38.1964C61.717 38.181 61.7239 38.1666 61.733 38.1534C61.7909 38.0447 61.9203 37.9995 62.1092 38.0924C62.6185 38.3478 63.1307 38.6031 63.6399 38.8642C67.8033 40.9707 71.9487 43.1822 76.0763 45.4989C80.201 47.8147 84.3023 50.2326 88.38 52.7527C88.4657 52.8048 88.5516 52.8598 88.6373 52.912C89.0262 53.1523 89.4122 53.3926 89.8011 53.6329Z" fill="white"/>
<path d="M105.593 53.7211L104.835 53.7169C104.664 53.4778 104.496 53.2387 104.326 52.9995C100.311 47.3703 96.2978 41.741 92.2852 36.1117C85.714 26.8957 79.1448 17.6798 72.5776 8.46382C72.5387 8.41421 72.5098 8.35753 72.4924 8.29691C72.4362 8.09286 72.5861 7.97319 72.7782 7.99435C72.8592 8.00592 72.9368 8.03462 73.0058 8.07855C73.0749 8.12248 73.1337 8.18062 73.1785 8.2491C76.8626 13.4174 80.5458 18.5838 84.2281 23.7483C90.7651 32.9182 97.3011 42.0871 103.836 51.255C104.252 51.837 104.667 52.4218 105.083 53.0037C105.254 53.2429 105.425 53.482 105.593 53.7211Z" fill="white"/>
<path d="M122.471 49.3219C122.433 50.5986 122.348 51.8549 122.238 53.0996C122.216 53.3377 122.195 53.5757 122.173 53.8138L121.379 53.8093C121.403 53.5713 121.427 53.3333 121.449 53.0952C121.617 51.297 121.736 49.4785 121.752 47.6106C121.773 42.4319 121.268 37.2644 120.246 32.1877C119.158 26.7214 117.598 21.3601 115.58 16.1646C113.463 10.685 110.911 5.38364 107.948 0.311466C107.892 0.228798 107.867 0.129072 107.877 0.0298747C107.91 -0.196636 108.212 -0.263811 108.437 -0.0473456C108.482 -0.00487642 108.52 0.0436295 108.551 0.0967578C108.918 0.727211 109.278 1.35954 109.631 1.99375C112.485 7.09407 114.928 12.4138 116.937 17.9024C118.85 23.115 120.305 28.4843 121.286 33.9496C122.205 39.0198 122.602 44.1708 122.471 49.3219Z" fill="white"/>
<path d="M176.673 53.3271H2.50201C1.83861 53.3278 1.20255 53.5916 0.73346 54.0607C0.26437 54.5298 0.000581975 55.1658 0 55.8292V173.852C0.000581975 174.516 0.26437 175.152 0.73346 175.621C1.20255 176.09 1.83861 176.354 2.50201 176.354H176.673C177.035 176.354 177.392 176.276 177.721 176.124C178.049 175.973 178.341 175.752 178.575 175.476C178.595 175.455 178.614 175.432 178.63 175.407C178.779 175.225 178.9 175.021 178.989 174.802C179.115 174.501 179.179 174.178 179.178 173.852V55.8293C179.177 55.1654 178.913 54.529 178.443 54.0598C177.974 53.5906 177.337 53.3271 176.673 53.3271ZM178.463 173.852C178.464 174.201 178.361 174.543 178.168 174.834C177.996 175.09 177.764 175.299 177.491 175.442C177.238 175.573 176.957 175.64 176.673 175.64H2.50201C2.02808 175.639 1.57373 175.451 1.23861 175.116C0.903493 174.781 0.714967 174.326 0.714392 173.852V55.8293C0.714967 55.3553 0.903493 54.901 1.23861 54.5659C1.57373 54.2307 2.02808 54.0422 2.50201 54.0416H176.673C177.147 54.0416 177.602 54.2298 177.938 54.565C178.274 54.9001 178.463 55.3549 178.463 55.8293V173.852Z" fill="#3F3D56"/>
<path d="M178.818 63.3552H0.355469V64.0705H178.818V63.3552Z" fill="#3F3D56"/>
<path d="M6.43491 60.8376C7.62002 60.8376 8.58075 59.8769 8.58075 58.6917C8.58075 57.5066 7.62002 56.5459 6.43491 56.5459C5.24979 56.5459 4.28906 57.5066 4.28906 58.6917C4.28906 59.8769 5.24979 60.8376 6.43491 60.8376Z" fill="#3F3D56"/>
<path d="M12.6029 60.8376C13.788 60.8376 14.7487 59.8769 14.7487 58.6917C14.7487 57.5066 13.788 56.5459 12.6029 56.5459C11.4178 56.5459 10.457 57.5066 10.457 58.6917C10.457 59.8769 11.4178 60.8376 12.6029 60.8376Z" fill="#3F3D56"/>
<path d="M18.7708 60.8376C19.956 60.8376 20.9167 59.8769 20.9167 58.6917C20.9167 57.5066 19.956 56.5459 18.7708 56.5459C17.5857 56.5459 16.625 57.5066 16.625 58.6917C16.625 59.8769 17.5857 60.8376 18.7708 60.8376Z" fill="#3F3D56"/>
<path d="M134.376 79.9125H44.8513C43.862 79.9125 42.9132 79.5195 42.2136 78.82C41.5141 78.1204 41.1211 77.1716 41.1211 76.1823C41.1211 75.193 41.5141 74.2442 42.2136 73.5447C42.9132 72.8452 43.862 72.4521 44.8513 72.4521H134.376C135.365 72.4521 136.314 72.8452 137.013 73.5447C137.713 74.2442 138.106 75.193 138.106 76.1823C138.106 77.1716 137.713 78.1204 137.013 78.82C136.314 79.5195 135.365 79.9125 134.376 79.9125ZM44.8513 73.026C44.0142 73.026 43.2113 73.3586 42.6194 73.9505C42.0275 74.5424 41.695 75.3452 41.695 76.1823C41.695 77.0194 42.0275 77.8223 42.6194 78.4142C43.2113 79.0061 44.0142 79.3386 44.8513 79.3386H134.376C135.213 79.3386 136.016 79.0061 136.608 78.4142C137.199 77.8223 137.532 77.0194 137.532 76.1823C137.532 75.3452 137.199 74.5424 136.608 73.9505C136.016 73.3586 135.213 73.026 134.376 73.026H44.8513Z" fill="#3F3D56"/>
<path opacity="0.3" d="M52.287 123.704H17.8545C16.5612 123.703 15.3214 123.188 14.4069 122.274C13.4924 121.359 12.978 120.12 12.9766 118.826V102.758C12.978 101.465 13.4924 100.225 14.4069 99.3102C15.3214 98.3957 16.5612 97.8813 17.8545 97.8799H52.287C53.5802 97.8813 54.8201 98.3957 55.7346 99.3102C56.6491 100.225 57.1634 101.465 57.1649 102.758V118.826C57.1634 120.12 56.6491 121.359 55.7346 122.274C54.8201 123.188 53.5802 123.703 52.287 123.704Z" fill="#F2B420"/>
<path opacity="0.3" d="M106.803 123.704H72.3702C71.0769 123.703 69.837 123.188 68.9225 122.274C68.008 121.359 67.4936 120.12 67.4922 118.826V102.758C67.4936 101.465 68.008 100.225 68.9225 99.3102C69.837 98.3957 71.0769 97.8813 72.3702 97.8799H106.803C108.096 97.8813 109.336 98.3957 110.25 99.3102C111.165 100.225 111.679 101.465 111.681 102.758V118.826C111.679 120.12 111.165 121.359 110.25 122.274C109.336 123.188 108.096 123.703 106.803 123.704Z" fill="#F2B420"/>
<path opacity="0.3" d="M161.322 123.704H126.89C125.596 123.703 124.357 123.188 123.442 122.274C122.528 121.359 122.013 120.12 122.012 118.826V102.758C122.013 101.465 122.528 100.225 123.442 99.3102C124.357 98.3957 125.596 97.8813 126.89 97.8799H161.322C162.615 97.8813 163.855 98.3957 164.77 99.3102C165.684 100.225 166.199 101.465 166.2 102.758V118.826C166.199 120.12 165.684 121.359 164.77 122.274C163.855 123.188 162.615 123.703 161.322 123.704Z" fill="#F2B420"/>
<path opacity="0.3" d="M52.287 157.563H17.8545C16.5612 157.561 15.3214 157.047 14.4069 156.132C13.4924 155.218 12.978 153.978 12.9766 152.685V136.616C12.978 135.323 13.4924 134.083 14.4069 133.169C15.3214 132.254 16.5612 131.74 17.8545 131.738H52.287C53.5802 131.74 54.8201 132.254 55.7346 133.169C56.6491 134.083 57.1634 135.323 57.1649 136.616V152.685C57.1634 153.978 56.6491 155.218 55.7346 156.132C54.8201 157.047 53.5802 157.561 52.287 157.563Z" fill="#F2B420"/>
<path opacity="0.3" d="M106.803 157.563H72.3702C71.0769 157.561 69.837 157.047 68.9225 156.132C68.008 155.218 67.4936 153.978 67.4922 152.685V136.616C67.4936 135.323 68.008 134.083 68.9225 133.169C69.837 132.254 71.0769 131.74 72.3702 131.738H106.803C108.096 131.74 109.336 132.254 110.25 133.169C111.165 134.083 111.679 135.323 111.681 136.616V152.685C111.679 153.978 111.165 155.218 110.25 156.132C109.336 157.047 108.096 157.561 106.803 157.563Z" fill="#F2B420"/>
<path opacity="0.3" d="M161.322 157.563H126.89C125.596 157.561 124.357 157.047 123.442 156.132C122.528 155.218 122.013 153.978 122.012 152.685V136.616C122.013 135.323 122.528 134.083 123.442 133.169C124.357 132.254 125.596 131.74 126.89 131.738H161.322C162.615 131.74 163.855 132.254 164.77 133.169C165.684 134.083 166.199 135.323 166.2 136.616V152.685C166.199 153.978 165.684 155.218 164.77 156.132C163.855 157.047 162.615 157.561 161.322 157.563Z" fill="#F2B420"/>
</g>
<defs>
<clipPath id="clip0_6914_41691">
<rect width="178.996" height="176" fill="white"/>
</clipPath>
</defs>
</svg>
