<svg width="192" height="187" viewBox="0 0 192 187" fill="none" xmlns="http://www.w3.org/2000/svg">
<rect width="192" height="187" rx="93.5" fill="#FEFBF4"/>
<g clip-path="url(#clip0_3246_29017)">
<path opacity="0.3" d="M110.022 65.7146H81.9988C81.3601 65.7154 80.7479 65.9681 80.2964 66.4174C79.8448 66.8666 79.5908 67.4757 79.59 68.1111V130.076L79.2688 130.174L72.3942 132.268C72.0684 132.367 71.7165 132.333 71.4157 132.174C71.115 132.015 70.8899 131.744 70.79 131.42L50.3412 64.9653C50.2417 64.6411 50.2756 64.2909 50.4355 63.9917C50.5954 63.6924 50.8682 63.4685 51.1939 63.3692L61.7877 60.142L92.4994 50.7892L103.093 47.562C103.254 47.5126 103.424 47.4953 103.592 47.5112C103.76 47.5271 103.923 47.5757 104.072 47.6543C104.221 47.733 104.353 47.8401 104.46 47.9696C104.567 48.099 104.648 48.2482 104.697 48.4087L109.924 65.3951L110.022 65.7146Z" fill="#D9D9D9"/>
<path d="M116.138 65.3951L109.838 44.9227C109.733 44.5816 109.562 44.2644 109.334 43.9892C109.106 43.714 108.825 43.4862 108.509 43.3188C108.192 43.1515 107.845 43.0478 107.488 43.0138C107.132 42.9798 106.771 43.016 106.429 43.1205L91.5345 47.6563L60.8245 57.0106L45.9303 61.548C45.2384 61.7594 44.6591 62.2352 44.3195 62.8711C43.9799 63.507 43.9077 64.251 44.1189 64.9398L65.65 134.906C65.8215 135.462 66.1677 135.949 66.6376 136.295C67.1076 136.641 67.6766 136.828 68.2611 136.828C68.5317 136.828 68.8007 136.788 69.0592 136.708L79.2691 133.599L79.5903 133.5V133.166L79.2691 133.264L68.9645 136.403C68.3537 136.588 67.6941 136.525 67.1302 136.227C66.5664 135.929 66.1444 135.421 65.9567 134.814L44.4273 64.8456C44.3343 64.5447 44.3019 64.2286 44.3319 63.9152C44.3619 63.6019 44.4538 63.2975 44.6022 63.0196C44.7506 62.7416 44.9527 62.4955 45.1968 62.2953C45.441 62.0952 45.7224 61.9449 46.025 61.8531L60.9192 57.3158L91.6293 47.9631L106.523 43.4257C106.753 43.356 106.992 43.3205 107.232 43.3203C107.747 43.3214 108.248 43.4866 108.662 43.7916C109.075 44.0967 109.38 44.5255 109.531 45.0154L115.802 65.3951L115.902 65.7147H116.236L116.138 65.3951Z" fill="#1D1E1B"/>
<path d="M63.7021 63.4214C63.3926 63.4212 63.0913 63.3223 62.8424 63.1392C62.5935 62.9562 62.4102 62.6986 62.3192 62.4042L60.2509 55.6826C60.1953 55.502 60.176 55.3124 60.1941 55.1244C60.2122 54.9364 60.2674 54.7538 60.3564 54.5871C60.4454 54.4203 60.5666 54.2726 60.7131 54.1525C60.8595 54.0323 61.0282 53.942 61.2097 53.8868L89.4627 45.2812C89.8292 45.1699 90.2251 45.2079 90.5636 45.3867C90.902 45.5655 91.1553 45.8707 91.2678 46.2351L93.3362 52.9568C93.4479 53.3215 93.4098 53.7153 93.23 54.052C93.0503 54.3887 92.7436 54.6407 92.3774 54.7527L64.1243 63.3583C63.9875 63.4001 63.8452 63.4214 63.7021 63.4214Z" fill="#F2B420"/>
<path d="M74.5359 50.1822C76.3097 50.1822 77.7476 48.7516 77.7476 46.9869C77.7476 45.2222 76.3097 43.7916 74.5359 43.7916C72.7621 43.7916 71.3242 45.2222 71.3242 46.9869C71.3242 48.7516 72.7621 50.1822 74.5359 50.1822Z" fill="#F2B420"/>
<path d="M74.5337 49.0103C75.6569 49.0103 76.5675 48.1044 76.5675 46.9869C76.5675 45.8694 75.6569 44.9635 74.5337 44.9635C73.4105 44.9635 72.5 45.8694 72.5 46.9869C72.5 48.1044 73.4105 49.0103 74.5337 49.0103Z" fill="white"/>
<path opacity="0.3" d="M140.775 136.012H86.4978C86.1359 136.011 85.7889 135.868 85.5331 135.613C85.2772 135.359 85.1332 135.014 85.1328 134.654V69.9483C85.1332 69.5883 85.2772 69.2431 85.533 68.9885C85.7889 68.7339 86.1359 68.5907 86.4978 68.5903H140.775C141.137 68.5907 141.484 68.734 141.74 68.9885C141.996 69.2431 142.14 69.5883 142.14 69.9483V134.654C142.14 135.014 141.996 135.359 141.74 135.613C141.484 135.868 141.137 136.011 140.775 136.012Z" fill="#D9D9D9"/>
<path d="M115.802 65.395H81.9995C81.2758 65.396 80.582 65.6825 80.0702 66.1917C79.5585 66.7008 79.2706 67.391 79.2695 68.111V133.264L79.5907 133.166V68.111C79.5915 67.4757 79.8455 66.8666 80.2971 66.4173C80.7486 65.9681 81.3609 65.7153 81.9995 65.7146H115.902L115.802 65.395ZM145.27 65.395H81.9995C81.2758 65.396 80.582 65.6825 80.0702 66.1917C79.5585 66.7008 79.2706 67.391 79.2695 68.111V141.284C79.2706 142.004 79.5585 142.694 80.0702 143.203C80.582 143.712 81.2758 143.999 81.9995 144H145.27C145.993 143.999 146.687 143.712 147.199 143.203C147.711 142.694 147.998 142.004 147.999 141.284V68.111C147.998 67.391 147.711 66.7008 147.199 66.1917C146.687 65.6825 145.993 65.396 145.27 65.395ZM147.678 141.284C147.678 141.919 147.424 142.528 146.972 142.978C146.52 143.427 145.908 143.68 145.27 143.68H81.9995C81.3609 143.68 80.7486 143.427 80.2971 142.978C79.8455 142.528 79.5915 141.919 79.5907 141.284V68.111C79.5915 67.4757 79.8455 66.8666 80.2971 66.4173C80.7486 65.9681 81.3609 65.7153 81.9995 65.7146H145.27C145.908 65.7153 146.52 65.9681 146.972 66.4173C147.424 66.8666 147.678 67.4757 147.678 68.111V141.284Z" fill="#1D1E1B"/>
<path d="M128.411 72.4247H98.8632C98.4801 72.4243 98.1127 72.2727 97.8417 72.0031C97.5708 71.7335 97.4184 71.3681 97.418 70.9868V63.9571C97.4184 63.5759 97.5708 63.2104 97.8418 62.9409C98.1127 62.6713 98.4801 62.5197 98.8632 62.5192H128.411C128.794 62.5197 129.161 62.6713 129.432 62.9409C129.703 63.2104 129.855 63.5759 129.856 63.9571V70.9868C129.855 71.3681 129.703 71.7335 129.432 72.0031C129.161 72.2727 128.794 72.4243 128.411 72.4247Z" fill="#F2B420"/>
<path d="M113.634 62.9986C115.407 62.9986 116.845 61.568 116.845 59.8032C116.845 58.0385 115.407 56.6079 113.634 56.6079C111.86 56.6079 110.422 58.0385 110.422 59.8032C110.422 61.568 111.86 62.9986 113.634 62.9986Z" fill="#F2B420"/>
<path d="M113.636 61.7495C114.716 61.7495 115.592 60.8781 115.592 59.8032C115.592 58.7284 114.716 57.857 113.636 57.857C112.556 57.857 111.68 58.7284 111.68 59.8032C111.68 60.8781 112.556 61.7495 113.636 61.7495Z" fill="white"/>
</g>
<defs>
<clipPath id="clip0_3246_29017">
<rect width="104" height="101" fill="white" transform="translate(44 43)"/>
</clipPath>
</defs>
</svg>
