<svg width="69" height="68" viewBox="0 0 69 68" fill="none" xmlns="http://www.w3.org/2000/svg">
<rect x="0.5" width="68" height="68" rx="34" fill="#F2B420"/>
<path d="M34.5 47.2001C41.8638 47.2001 47.8333 41.2306 47.8333 33.8668C47.8333 26.503 41.8638 20.5334 34.5 20.5334C27.1362 20.5334 21.1666 26.503 21.1666 33.8668C21.1666 41.2306 27.1362 47.2001 34.5 47.2001Z" fill="white"/>
<path d="M37.5133 34L35.5 33.2933V28.7733H35.98C37.06 28.7733 37.94 29.72 37.94 30.88C37.94 31.4267 38.3933 31.88 38.94 31.88C39.4866 31.88 39.94 31.4267 39.94 30.88C39.94 28.6133 38.1666 26.7733 35.98 26.7733H35.5V26C35.5 25.4533 35.0466 25 34.5 25C33.9533 25 33.5 25.4533 33.5 26V26.7733H32.6333C30.66 26.7733 29.0466 28.44 29.0466 30.48C29.0466 32.8667 30.4333 33.6267 31.4866 34L33.5 34.7067V39.2133H33.02C31.94 39.2133 31.06 38.2667 31.06 37.1067C31.06 36.56 30.6066 36.1067 30.06 36.1067C29.5133 36.1067 29.06 36.56 29.06 37.1067C29.06 39.3733 30.8333 41.2133 33.02 41.2133H33.5V42C33.5 42.5467 33.9533 43 34.5 43C35.0466 43 35.5 42.5467 35.5 42V41.2267H36.3666C38.34 41.2267 39.9533 39.56 39.9533 37.52C39.94 35.12 38.5533 34.36 37.5133 34ZM32.1533 32.12C31.4733 31.88 31.06 31.6533 31.06 30.4933C31.06 29.5467 31.7666 28.7867 32.6466 28.7867H33.5133V32.6L32.1533 32.12ZM36.3666 39.2267H35.5V35.4133L36.8466 35.88C37.5266 36.12 37.94 36.3467 37.94 37.5067C37.94 38.4533 37.2333 39.2267 36.3666 39.2267Z" fill="#F2B420"/>
</svg>
