<svg width="69" height="68" viewBox="0 0 69 68" fill="none" xmlns="http://www.w3.org/2000/svg">
  <rect x="0.5" width="68" height="68" rx="34" fill="#F2B420" />
  <path d="M45.0564 28.1703C44.0693 27.0787 42.4202 26.5329 40.028 26.5329H39.7493V26.4864C39.7493 24.5355 39.7493 22.12 35.3828 22.12H33.6177C29.2512 22.12 29.2512 24.5471 29.2512 26.4864V26.5445H28.9725C26.5686 26.5445 24.9312 27.0903 23.9441 28.1819C22.7944 29.4593 22.8293 31.1781 22.9454 32.351L22.957 32.4323L23.0506 33.4149C23.0649 33.5647 23.1455 33.6999 23.2714 33.7824C23.5448 33.9618 24.0369 34.28 24.3273 34.4413C24.4899 34.5458 24.6641 34.6387 24.8383 34.7316C26.8241 35.8232 29.0073 36.5548 31.2254 36.9148C31.3299 38.0064 31.806 39.2839 34.3493 39.2839C36.8925 39.2839 37.3918 38.0181 37.4731 36.8916C39.8422 36.5084 42.1299 35.6839 44.197 34.4761C44.2667 34.4413 44.3131 34.4064 44.3712 34.3716C44.842 34.1055 45.3308 33.7763 45.7741 33.4554C45.887 33.3737 45.9593 33.2477 45.9747 33.1092L45.997 32.9084L46.0551 32.3626C46.0667 32.2929 46.0667 32.2348 46.0783 32.1535C46.1712 30.9806 46.148 29.3781 45.0564 28.1703ZM35.766 36.1252C35.766 37.3561 35.766 37.5419 34.3377 37.5419C32.9093 37.5419 32.9093 37.3213 32.9093 36.1368V34.6735H35.766V36.1252ZM30.9118 26.5329V26.4864C30.9118 24.5123 30.9118 23.7806 33.6177 23.7806H35.3828C38.0886 23.7806 38.0886 24.5239 38.0886 26.4864V26.5445H30.9118V26.5329Z" fill="white" />
  <path d="M44.9357 35.9512C45.289 35.7822 45.6951 36.0628 45.6597 36.4528L45.2298 41.1884C44.986 43.511 44.0337 45.88 38.924 45.88H30.075C24.9653 45.88 24.013 43.511 23.7692 41.2L23.3607 36.707C23.3257 36.3216 23.7223 36.0412 24.0746 36.2014C25.3738 36.7919 27.9658 37.9281 29.5211 38.3271C29.6856 38.3693 29.8188 38.4869 29.8891 38.6416C30.5856 40.1747 32.1217 40.991 34.3485 40.991C36.5533 40.991 38.1093 40.1433 38.8078 38.6069C38.8782 38.4522 39.0118 38.3346 39.1764 38.2922C40.8264 37.8673 43.5796 36.5996 44.9357 35.9512Z" fill="white" />
</svg>
  