<svg width="69" height="68" viewBox="0 0 69 68" fill="none" xmlns="http://www.w3.org/2000/svg">
<rect x="0.5" width="68" height="68" rx="34" fill="#F2B420"/>
<path d="M33.9997 35.75C28.3634 35.75 23.7734 39.53 23.7734 44.1875C23.7734 44.5025 24.0209 44.75 24.3359 44.75H43.6634C43.9784 44.75 44.2259 44.5025 44.2259 44.1875C44.2259 39.53 39.6359 35.75 33.9997 35.75Z" fill="white"/>
<path d="M39.31 31.6438L38.23 30.5638C38.7925 29.72 39.1187 28.7075 39.1187 27.6163C39.1187 24.6462 36.7113 22.25 33.7525 22.25C30.7937 22.25 28.375 24.6575 28.375 27.6163C28.375 30.575 30.7825 32.9825 33.7413 32.9825C34.8325 32.9825 35.845 32.6562 36.6888 32.0938L37.7688 33.1737C37.9825 33.3875 38.2638 33.4887 38.5338 33.4887C38.815 33.4887 39.0962 33.3875 39.2987 33.1737C39.7262 32.7575 39.7262 32.0712 39.31 31.6438Z" fill="white"/>
</svg>
