<svg width="43" height="43" viewBox="0 0 43 43" fill="none" xmlns="http://www.w3.org/2000/svg">
<rect width="43" height="43" rx="21.5" fill="#F2B420"/>
<path fill-rule="evenodd" clip-rule="evenodd" d="M16.1803 12H25.8203C27.9503 12 29.6803 13.74 29.6903 15.86V29.95C29.6903 31.76 28.4003 32.52 26.8203 31.64L21.9403 28.93C21.4303 28.64 20.5903 28.64 20.0703 28.93L15.1903 31.64C13.6103 32.51 12.3203 31.75 12.3203 29.95V15.86C12.3203 13.74 14.0503 12 16.1803 12ZM17.9902 19.75C18.9602 20.1 19.9802 20.28 21.0002 20.28C22.0202 20.28 23.0402 20.1 24.0102 19.75C24.4002 19.61 24.6002 19.18 24.4602 18.79C24.3202 18.4 23.8902 18.2 23.5002 18.34C21.8902 18.92 20.1202 18.92 18.5102 18.34C18.1202 18.2 17.6902 18.4 17.5402 18.79C17.4002 19.18 17.6002 19.61 17.9902 19.75Z" fill="white"/>
</svg>
