<svg width="56" height="56" viewBox="0 0 56 56" fill="none" xmlns="http://www.w3.org/2000/svg">
  <circle cx="28" cy="28" r="28" />
  <path d="M28 37.2501C27.81 37.2501 27.62 37.1801 27.47 37.0301L21.4 30.9601C21.11 30.6701 21.11 30.1901 21.4 29.9001C21.69 29.6101 22.17 29.6101 22.46 29.9001L28 35.4401L33.54 29.9001C33.83 29.6101 34.31 29.6101 34.6 29.9001C34.89 30.1901 34.89 30.6701 34.6 30.9601L28.53 37.0301C28.38 37.1801 28.19 37.2501 28 37.2501Z" fill="#F7F5ED" />
  <path d="M28 37.08C27.59 37.08 27.25 36.74 27.25 36.33V19.5C27.25 19.09 27.59 18.75 28 18.75C28.41 18.75 28.75 19.09 28.75 19.5V36.33C28.75 36.74 28.41 37.08 28 37.08Z" fill="#F7F5ED" />
</svg>