<svg width="188" height="185" viewBox="0 0 188 185" fill="none" xmlns="http://www.w3.org/2000/svg">
<g opacity="0.08" clip-path="url(#clip0_820_13164)">
<path d="M116.144 115.895C115.701 116.314 115.214 116.712 114.727 117.089C114.815 117.026 114.926 116.922 115.014 116.859C115.369 116.523 115.745 116.209 116.144 115.895Z" fill="#89B3B7"/>
<path d="M116.144 115.895C115.701 116.314 115.214 116.712 114.727 117.089C114.815 117.026 114.926 116.922 115.014 116.859C115.369 116.524 115.745 116.209 116.144 115.895ZM116.21 115.832C115.789 116.146 115.391 116.482 115.014 116.838C114.926 116.922 114.815 117.005 114.727 117.089C115.258 116.691 115.745 116.272 116.21 115.832Z" fill="#D8B174"/>
<path d="M119.399 111.935C118.867 112.794 118.291 113.59 117.649 114.344C116.786 114.994 116.011 115.727 115.324 116.523C115.501 116.314 115.701 116 115.856 115.769C116.741 114.344 117.915 113.045 119.399 111.935Z" fill="#89B3B7"/>
<path d="M119.399 111.935C118.868 112.794 118.292 113.59 117.65 114.344C116.786 114.994 116.011 115.727 115.325 116.523C115.502 116.314 115.701 116 115.856 115.769C116.742 114.344 117.916 113.045 119.399 111.935ZM119.444 111.851C117.938 112.982 116.742 114.302 115.878 115.748C115.524 116.293 115.524 116.293 115.303 116.544C115.967 115.769 116.72 115.078 117.584 114.428C118.27 113.611 118.912 112.752 119.444 111.851Z" fill="#D8B174"/>
<path d="M121.525 107.178C121.237 108.163 120.86 109.106 120.44 110.028C118.535 111.453 117.162 113.129 116.299 114.994C116.432 114.659 116.609 114.219 116.742 113.883L116.852 113.506C117.915 110.719 118.646 109.567 121.525 107.178Z" fill="#89B3B7"/>
<path d="M121.524 107.178C121.236 108.163 120.86 109.106 120.439 110.028C118.535 111.453 117.162 113.129 116.298 114.994C116.431 114.659 116.608 114.219 116.741 113.883L116.852 113.506C117.915 110.719 118.645 109.567 121.524 107.178ZM121.546 107.073C118.911 109.295 117.981 110.405 116.852 113.443L116.719 113.862C116.586 114.219 116.409 114.68 116.254 115.015C117.14 113.171 118.49 111.516 120.373 110.112C120.838 109.148 121.236 108.121 121.546 107.073Z" fill="#D8B174"/>
<path d="M122.477 101.814C122.411 102.904 122.278 103.951 122.079 104.999C120.041 106.717 118.115 108.331 117.207 112.102L117.34 111.327C117.384 110.824 117.473 110.174 117.517 109.672C117.761 107.786 118.159 105.188 122.477 101.814Z" fill="#89B3B7"/>
<path d="M122.477 101.814C122.41 102.904 122.277 103.951 122.078 104.999C120.041 106.717 118.114 108.331 117.206 112.102L117.339 111.327C117.384 110.824 117.472 110.175 117.516 109.672C117.76 107.786 118.159 105.188 122.477 101.814ZM122.477 101.709C119.288 104.119 117.671 106.822 117.494 109.588C117.45 110.112 117.384 110.803 117.317 111.327L117.162 112.165C117.694 109.588 119.288 107.178 122.034 105.104C122.255 103.993 122.41 102.862 122.477 101.709Z" fill="#D8B174"/>
<path d="M122.212 96.0518C122.389 97.2042 122.478 98.3357 122.5 99.4463C119.289 102.107 117.717 104.014 117.517 107.639C117.451 106.654 117.34 105.355 117.23 104.37C116.853 101.772 118.447 98.8805 122.212 96.0518Z" fill="#89B3B7"/>
<path d="M122.211 96.0517C122.388 97.2042 122.477 98.3357 122.499 99.4462C119.288 102.107 117.716 104.014 117.517 107.639C117.45 106.654 117.34 105.355 117.229 104.37C116.852 101.772 118.447 98.8805 122.211 96.0517ZM122.189 95.926C118.402 98.7757 116.83 101.646 117.207 104.245C117.317 105.292 117.472 106.675 117.517 107.723C117.45 104.957 119.067 102.128 122.499 99.5301C122.477 98.3567 122.388 97.1623 122.189 95.926Z" fill="#D8B174"/>
<path d="M120.727 90.0381C121.148 91.2115 121.48 92.3849 121.746 93.5373C117.671 96.848 116.409 98.9015 116.741 101.73C116.498 100.85 116.21 99.6768 115.922 98.7967L115.59 97.8538C115.369 96.6804 114.926 94.5012 120.727 90.0381Z" fill="#89B3B7"/>
<path d="M120.728 90.0378C121.149 91.2112 121.481 92.3846 121.747 93.5371C117.672 96.8478 116.41 98.9012 116.742 101.73C116.499 100.85 116.211 99.6765 115.923 98.7965L115.591 97.8536C115.369 96.6801 114.926 94.501 120.728 90.0378ZM120.684 89.9121C118.447 91.6932 114.683 94.6895 115.546 97.7069L115.923 98.7965C116.188 99.7184 116.543 100.934 116.764 101.856C116.233 99.467 117.827 96.6173 121.769 93.6419C121.481 92.4265 121.127 91.1693 120.684 89.9121Z" fill="#D8B174"/>
<path d="M117.96 83.9824C118.624 85.1558 119.2 86.3292 119.731 87.5026C115.435 90.7505 113.752 93.2859 114.439 94.8783L113.819 93.5163C113.376 92.6363 112.778 91.4838 112.313 90.6247C111.937 89.2837 113.531 87.4188 117.96 83.9824Z" fill="#89B3B7"/>
<path d="M117.959 83.9824C118.624 85.1558 119.199 86.3292 119.731 87.5026C115.435 90.7504 113.752 93.2858 114.439 94.8783L113.819 93.5163C113.376 92.6363 112.778 91.4838 112.313 90.6247C111.936 89.2837 113.531 87.4188 117.959 83.9824ZM117.893 83.8567C114.062 86.8321 111.781 88.9694 112.202 90.478C112.689 91.3791 113.354 92.5944 113.796 93.5163L114.483 95.004C114.084 93.3277 114.837 91.4419 119.775 87.6074C119.222 86.3502 118.602 85.1139 117.893 83.8567Z" fill="#D8B174"/>
<path d="M114.837 79.2678C115.656 80.3365 116.431 81.447 117.14 82.5995C112.667 85.973 110.785 88.1103 111.272 88.9275C110.43 87.6493 109.301 85.973 108.393 84.7367C108.216 84.4853 110.32 82.6623 114.837 79.2678Z" fill="#89B3B7"/>
<path d="M114.838 79.2679C115.657 80.3365 116.432 81.447 117.14 82.5995C112.667 85.973 110.785 88.1103 111.272 88.9275C110.431 87.6493 109.302 85.973 108.394 84.7368C108.217 84.4853 110.32 82.6623 114.838 79.2679ZM114.771 79.1631C110.254 82.5785 108.128 84.3805 108.305 84.611C109.235 85.9102 110.475 87.6703 111.339 89.0113C110.83 88.1941 112.712 86.0359 117.185 82.6623C116.432 81.447 115.635 80.2736 114.771 79.1631Z" fill="#D8B174"/>
<path d="M110.254 74.176C111.206 75.077 112.136 76.0199 113 77.0257C108.483 80.4412 106.202 82.0337 106.091 81.9289C105.25 81.0279 104.142 79.8126 103.257 78.9535L102.637 78.3668C103.013 78.5134 103.987 78.9116 110.254 74.176Z" fill="#89B3B7"/>
<path d="M110.254 74.1761C111.206 75.0771 112.136 76.02 112.999 77.0258C108.482 80.4412 106.201 82.0337 106.091 81.9289C105.249 81.0279 104.142 79.8126 103.256 78.9535L102.636 78.3668C103.013 78.5135 103.987 78.9116 110.254 74.1761ZM110.165 74.0923C105.67 77.4658 103.123 78.8068 102.525 78.2411L103.256 78.9535C104.142 79.8755 105.338 81.0908 106.201 82.0547C106.29 82.1385 108.571 80.525 113.088 77.1306C112.158 76.0619 111.184 75.0562 110.165 74.0923Z" fill="#D8B174"/>
<path d="M105.051 70.0063C106.114 70.7188 107.132 71.4941 108.129 72.3113C103.7 75.6429 100.954 76.8163 100.002 76.041L98.5627 74.9095L96.2598 73.2542C97.7655 74.239 100.755 73.2542 105.051 70.0063Z" fill="#89B3B7"/>
<path d="M105.05 70.0062C106.112 70.7186 107.131 71.4939 108.128 72.3111C103.699 75.6428 100.953 76.8162 100.001 76.0409L98.5614 74.9094L96.2585 73.254C97.7643 74.2389 100.754 73.254 105.05 70.0062ZM104.961 69.9434C100.665 73.1912 97.6757 74.176 96.1699 73.1702C96.9007 73.6941 97.875 74.3646 98.5836 74.9094L100.134 76.1456C101.064 76.9 103.787 75.7266 108.238 72.3949C107.175 71.5149 106.09 70.6977 104.961 69.9434Z" fill="#D8B174"/>
<path d="M99.4489 66.8423C100.556 67.3452 101.663 67.9319 102.748 68.5605C98.541 71.7245 95.4187 72.6255 93.5808 71.5569C92.4736 70.9702 91.0121 70.1739 89.8828 69.6501C92.1858 70.6768 95.463 69.8387 99.4489 66.8423Z" fill="#89B3B7"/>
<path d="M99.4483 66.8422C100.555 67.3451 101.663 67.9318 102.748 68.5604C98.5404 71.7244 95.4181 72.6254 93.5802 71.5568C92.473 70.9701 91.0115 70.1738 89.8822 69.65C92.1852 70.6767 95.4624 69.8386 99.4483 66.8422ZM99.3376 66.8003C95.3517 69.7967 92.0744 70.6348 89.7715 69.5871C90.9672 70.1738 92.5395 70.991 93.6909 71.6196C95.5067 72.6883 98.6511 71.7873 102.858 68.6233C101.707 67.9527 100.511 67.3451 99.3376 66.8003Z" fill="#D8B174"/>
<path d="M93.6019 64.7678C94.7534 65.0612 95.8827 65.4174 97.012 65.8365C93.2255 68.6861 89.9039 69.5243 87.3352 68.5814C86.5381 68.309 85.4752 67.9318 84.6558 67.7013L84.0137 67.5337C86.8038 68.2461 90.1032 67.387 93.6019 64.7678Z" fill="#89B3B7"/>
<path d="M93.6013 64.768C94.7528 65.0613 95.8821 65.4175 97.0114 65.8366C93.2248 68.6863 89.9033 69.5245 87.3346 68.5816C86.5374 68.3092 85.4745 67.932 84.6552 67.7015L84.0131 67.5339C86.8032 68.2463 90.1026 67.3872 93.6013 64.768ZM93.4906 64.7261C90.014 67.3453 86.7367 68.1834 83.9023 67.492L84.6552 67.6805C85.4967 67.9529 86.626 68.2882 87.4453 68.6025C89.9919 69.5454 93.3134 68.7282 97.1221 65.8576C95.9042 65.4175 94.6863 65.0404 93.4906 64.7261Z" fill="#D8B174"/>
<path d="M87.735 63.8459C88.8643 63.9088 89.9936 64.0345 91.1451 64.2231C88.9307 65.7318 86.1627 67.6176 81.8669 67.0519L80.8483 66.9052C80.3611 66.8633 79.7411 66.7795 79.2539 66.7585C82.044 66.8842 84.9227 65.9623 87.735 63.8459Z" fill="#89B3B7"/>
<path d="M87.733 63.8459C88.8623 63.9088 89.9917 64.0345 91.1431 64.2231C88.9288 65.7318 86.1608 67.6176 81.8649 67.0518L80.8463 66.9052C80.3592 66.8633 79.7391 66.7794 79.252 66.7585C82.0421 66.8842 84.9208 65.9623 87.733 63.8459ZM87.6223 63.8459C85.0093 65.606 83.0164 66.7585 79.1855 66.7585C79.6949 66.8004 80.3592 66.8423 80.8463 66.9052L81.9535 67.0728C84.8322 67.5757 88.0209 66.6956 91.2539 64.2441C90.0138 64.0345 88.8181 63.9088 87.6223 63.8459Z" fill="#D8B174"/>
<path d="M82.0212 64.2022C83.1062 64.0136 84.1913 63.8879 85.2984 63.8459C82.8405 65.7108 80.2275 66.6328 77.6367 66.7585C77.1274 66.8004 76.4409 66.8633 75.9316 66.9471C77.4817 66.5699 79.2089 66.1299 80.759 65.0822C81.1354 64.8098 81.6004 64.3698 82.0212 64.2022Z" fill="#89B3B7"/>
<path d="M82.0205 64.2022C83.1056 64.0136 84.1906 63.8879 85.2978 63.8459C82.8398 65.7108 80.2269 66.6328 77.6361 66.7585C77.1268 66.8004 76.4403 66.8633 75.931 66.9471C77.4811 66.5699 79.2083 66.1299 80.7583 65.0822C81.1348 64.8098 81.5998 64.3698 82.0205 64.2022ZM81.9319 64.2231C80.0276 65.648 77.9904 66.549 75.8867 66.9471C77.016 66.7795 77.0382 66.7795 77.7025 66.7585C80.3155 66.6537 82.9284 65.7108 85.4085 63.8459C84.2349 63.8879 83.0613 64.0136 81.9319 64.2231Z" fill="#D8B174"/>
<path d="M76.7067 65.8785C76.9503 65.7738 77.1718 65.669 77.4153 65.5642C78.1682 65.2499 78.9433 64.9566 79.7404 64.7261C78.2568 65.8366 76.6624 66.6329 75.0238 67.1148C74.7802 67.1986 74.4702 67.3034 74.2266 67.3872L74.0273 67.471C74.9574 67.0519 75.8653 66.5281 76.7067 65.8785Z" fill="#89B3B7"/>
<path d="M76.7067 65.8784C76.9503 65.7737 77.1718 65.6689 77.4153 65.5641C78.1682 65.2498 78.9432 64.9565 79.7404 64.726C78.2568 65.8365 76.6624 66.6328 75.0238 67.1147C74.7802 67.1985 74.4702 67.3033 74.2266 67.3871L74.0273 67.4709C74.9574 67.0518 75.8653 66.528 76.7067 65.8784ZM76.6182 65.9203C75.7988 66.549 74.9352 67.0728 74.0273 67.4919L74.2488 67.3871C74.4924 67.3033 74.8245 67.1776 75.0681 67.0937C76.751 66.6118 78.3675 65.8156 79.8511 64.6841C79.0318 64.9146 78.2125 65.2079 77.4375 65.5432C77.1496 65.6899 76.8839 65.7946 76.6182 65.9203Z" fill="#D8B174"/>
<path d="M74.7134 66.968C74.337 67.2404 73.9605 67.5128 73.5841 67.7433C73.4955 67.8062 73.3848 67.869 73.3184 67.9319C73.7391 67.5966 74.2263 67.2823 74.7134 66.968Z" fill="#89B3B7"/>
<path d="M74.7134 66.9679C74.337 67.2403 73.9605 67.5127 73.5841 67.7432C73.4955 67.8061 73.3848 67.8689 73.3184 67.9318C73.7391 67.5965 74.2263 67.2822 74.7134 66.9679ZM74.802 66.926C74.2927 67.2403 73.7834 67.5756 73.3184 67.9528C73.4069 67.8899 73.5177 67.8061 73.6062 67.7642C74.0048 67.4918 74.4034 67.2194 74.802 66.926Z" fill="#D8B174"/>
<path d="M157.242 126.56C156.312 127.419 155.36 128.215 154.342 128.991C142.229 115.015 124.581 109.671 114.727 117.089C115.214 116.712 115.701 116.314 116.144 115.895C125.998 108.477 144.311 113.275 157.242 126.56Z" fill="#89B3B7"/>
<path d="M157.242 126.56C156.312 127.419 155.36 128.215 154.342 128.991C142.229 115.015 124.581 109.671 114.727 117.089C115.214 116.712 115.701 116.314 116.144 115.895C125.998 108.477 144.311 113.275 157.242 126.56ZM157.685 126.749C144.709 113.255 126.153 108.351 116.21 115.832C115.745 116.272 115.236 116.691 114.727 117.089C124.647 109.609 142.517 115.098 154.63 129.326C155.692 128.509 156.733 127.65 157.685 126.749Z" fill="#D8B174"/>
<path d="M163.863 118.472C162.8 120.211 161.604 121.846 160.276 123.396C146.48 110.992 127.481 106.927 117.627 114.344C118.269 113.59 118.867 112.773 119.376 111.934C129.252 104.517 149.071 107.45 163.863 118.472Z" fill="#89B3B7"/>
<path d="M163.864 118.472C162.801 120.211 161.606 121.846 160.277 123.396C146.482 110.992 127.482 106.927 117.628 114.344C118.27 113.59 118.868 112.773 119.378 111.934C129.254 104.517 149.072 107.45 163.864 118.472ZM164.329 118.556C149.471 107.367 129.387 104.349 119.444 111.83C118.89 112.731 118.27 113.59 117.584 114.407C127.504 106.927 146.703 111.159 160.498 123.836C161.916 122.202 163.2 120.442 164.329 118.556Z" fill="#D8B174"/>
<path d="M168.181 108.77C167.583 110.782 166.83 112.71 165.967 114.575C150.577 104.663 130.293 102.589 120.439 110.007C120.86 109.085 121.237 108.142 121.524 107.157C131.378 99.7603 152.171 100.494 168.181 108.77Z" fill="#89B3B7"/>
<path d="M168.181 108.77C167.583 110.782 166.83 112.71 165.966 114.575C150.576 104.664 130.293 102.589 120.439 110.007C120.86 109.085 121.236 108.142 121.524 107.157C131.378 99.7604 152.171 100.494 168.181 108.77ZM168.623 108.77C152.547 100.368 131.466 99.5927 121.546 107.073C121.236 108.121 120.837 109.148 120.395 110.111C130.315 102.631 150.842 104.831 166.254 114.994C167.184 113.024 167.981 110.929 168.623 108.77Z" fill="#D8B174"/>
<path d="M170.108 97.8536C169.976 100.054 169.688 102.233 169.289 104.328C152.969 97.3088 131.911 97.5812 122.057 104.999C122.256 103.972 122.389 102.903 122.455 101.814C132.309 94.3962 153.567 92.6571 170.108 97.8536Z" fill="#89B3B7"/>
<path d="M170.107 97.8536C169.974 100.054 169.686 102.233 169.288 104.328C152.968 97.3088 131.909 97.5812 122.055 104.999C122.255 103.972 122.388 102.903 122.454 101.814C132.308 94.3963 153.566 92.6571 170.107 97.8536ZM170.528 97.7698C153.898 92.4895 132.396 94.2286 122.476 101.709C122.41 102.862 122.255 103.993 122.033 105.083C131.954 97.6022 153.256 97.4345 169.642 104.685C170.085 102.442 170.395 100.138 170.528 97.7698Z" fill="#D8B174"/>
<path d="M169.598 86.0776C169.931 88.4244 170.152 90.7293 170.196 92.9923C153.611 89.1578 132.353 92.0075 122.499 99.4251C122.477 98.3146 122.366 97.1831 122.211 96.0306C132.065 88.613 153.19 84.2127 169.598 86.0776Z" fill="#89B3B7"/>
<path d="M169.599 86.0776C169.931 88.4244 170.153 90.7293 170.197 92.9923C153.611 89.1578 132.353 92.0075 122.499 99.4251C122.477 98.3145 122.367 97.183 122.212 96.0306C132.066 88.613 153.191 84.2127 169.599 86.0776ZM169.953 85.9099C153.501 83.9822 132.132 88.4663 122.189 95.9468C122.367 97.1621 122.477 98.3774 122.499 99.5508C132.42 92.0703 153.944 89.2835 170.596 93.3275C170.551 90.876 170.33 88.4034 169.953 85.9099Z" fill="#D8B174"/>
<path d="M166.543 73.8406C167.384 76.2293 168.07 78.618 168.624 80.9858C151.263 80.8391 132.419 85.8889 121.724 93.537C121.458 92.3846 121.126 91.2112 120.705 90.0378C133.371 81.0067 152.858 75.3911 166.543 73.8406Z" fill="#89B3B7"/>
<path d="M166.543 73.8408C167.385 76.2295 168.071 78.6182 168.625 80.986C151.264 80.8393 132.42 85.8891 121.724 93.5372C121.459 92.3848 121.126 91.2114 120.706 90.038C133.372 81.0069 152.858 75.3913 166.543 73.8408ZM166.853 73.5684C151.286 75.1399 130.626 82.4527 120.684 89.9332C121.126 91.1904 121.481 92.4267 121.769 93.6629C131.689 86.1825 152.858 80.6297 169.068 81.2374C168.492 78.6811 167.761 76.1247 166.853 73.5684Z" fill="#D8B174"/>
<path d="M160.918 61.478C162.269 63.8667 163.465 66.2555 164.506 68.6442C149.514 71.6825 129.563 80.0639 119.709 87.4815C119.2 86.3081 118.602 85.1347 117.938 83.9613C127.814 76.5647 146.946 66.5488 160.918 61.478Z" fill="#89B3B7"/>
<path d="M160.918 61.478C162.269 63.8668 163.464 66.2555 164.505 68.6442C149.514 71.6825 129.562 80.0639 119.708 87.4815C119.199 86.3081 118.601 85.1347 117.937 83.9613C127.813 76.5647 146.945 66.5488 160.918 61.478ZM161.117 61.1218C147.167 66.2136 127.813 76.3761 117.893 83.8566C118.601 85.0928 119.221 86.35 119.775 87.6073C129.695 80.1268 149.934 71.7244 164.992 68.8118C163.863 66.2345 162.579 63.6782 161.117 61.1218Z" fill="#D8B174"/>
<path d="M154.585 51.8604C156.246 54.0395 157.818 56.3025 159.28 58.6703C145.772 64.5164 127.016 75.1608 117.162 82.5994C116.454 81.4469 115.679 80.3154 114.859 79.2678C124.691 71.8502 142.406 59.6342 154.585 51.8604Z" fill="#89B3B7"/>
<path d="M154.585 51.8603C156.245 54.0395 157.818 56.3025 159.279 58.6702C145.771 64.5163 127.016 75.1608 117.162 82.5993C116.453 81.4469 115.678 80.3154 114.859 79.2677C124.691 71.8501 142.406 59.6341 154.585 51.8603ZM154.695 51.4622C142.561 59.2779 124.691 71.6615 114.748 79.142C115.612 80.2525 116.409 81.4259 117.162 82.6622C127.082 75.1817 146.104 64.4534 159.655 58.6702C158.128 56.1767 156.467 53.7671 154.695 51.4622Z" fill="#D8B174"/>
<path d="M145.24 41.5093C147.189 43.3322 149.049 45.2809 150.843 47.3134C139.704 56.3654 122.853 69.6082 113.021 77.0258C112.135 76.02 111.228 75.0771 110.275 74.1761C120.107 66.7585 135.696 52.1957 145.24 41.5093Z" fill="#89B3B7"/>
<path d="M145.24 41.5094C147.188 43.3323 149.048 45.281 150.842 47.3135C139.704 56.3655 122.852 69.6082 113.021 77.0258C112.135 76.0201 111.227 75.0771 110.275 74.1761C120.107 66.7585 135.696 52.1957 145.24 41.5094ZM145.262 41.0693C135.784 51.8395 120.084 66.6119 110.164 74.0923C111.183 75.0562 112.157 76.062 113.087 77.1306C123.007 69.6501 140.102 56.3027 151.263 47.2926C149.358 45.1134 147.365 43.018 145.262 41.0693Z" fill="#D8B174"/>
<path d="M134.634 33.002C136.782 34.4478 138.886 36.0193 140.923 37.6956C132.597 49.4506 118.004 64.8725 108.15 72.3111C107.154 71.4939 106.113 70.7186 105.072 70.0062C114.904 62.5886 128.08 46.098 134.634 33.002Z" fill="#89B3B7"/>
<path d="M134.633 33.002C136.781 34.4478 138.885 36.0194 140.922 37.6957C132.596 49.4507 118.004 64.8726 108.15 72.3111C107.153 71.494 106.112 70.7187 105.072 70.0062C114.903 62.5886 128.079 46.0981 134.633 33.002ZM134.567 32.562C128.123 45.7419 114.881 62.4629 104.961 69.9434C106.09 70.6977 107.175 71.5149 108.238 72.395C118.159 64.9145 132.973 49.3459 141.321 37.5909C139.129 35.7889 136.892 34.1126 134.567 32.562Z" fill="#D8B174"/>
<path d="M123.164 26.5483C125.445 27.596 127.703 28.7485 129.895 30.0476C124.67 43.9608 112.579 61.1428 102.725 68.5604C101.64 67.9318 100.533 67.3661 99.4258 66.8422C109.28 59.4246 119.842 41.4674 123.164 26.5483Z" fill="#89B3B7"/>
<path d="M123.163 26.5484C125.443 27.5961 127.702 28.7485 129.894 30.0476C124.668 43.9609 112.578 61.1429 102.724 68.5605C101.639 67.9319 100.532 67.3661 99.4245 66.8423C109.278 59.4247 119.841 41.4674 123.163 26.5484ZM123.03 26.0874C119.863 41.0902 109.256 59.3199 99.3359 66.8004C100.532 67.3452 101.705 67.9528 102.857 68.6234C112.777 61.1429 125.045 43.7933 130.249 29.8381C127.879 28.4552 125.465 27.1979 123.03 26.0874Z" fill="#D8B174"/>
<path d="M111.25 22.3157C113.575 22.9024 115.9 23.6358 118.203 24.4949C116.277 39.9796 106.843 58.4189 97.0117 65.8365C95.8824 65.4174 94.7309 65.0612 93.6016 64.7678C103.433 57.3502 111.294 38.4081 111.25 22.3157Z" fill="#89B3B7"/>
<path d="M111.249 22.3157C113.575 22.9024 115.9 23.6358 118.203 24.4949C116.276 39.9797 106.843 58.4189 97.0111 65.8365C95.8818 65.4174 94.7303 65.0612 93.601 64.7679C103.433 57.3503 111.294 38.4081 111.249 22.3157ZM111.028 21.8547C111.249 38.0519 103.411 57.2455 93.4902 64.7259C94.7081 65.0403 95.926 65.4174 97.1218 65.8574C107.042 58.377 116.608 39.7282 118.49 24.1806C116.01 23.2796 113.508 22.5043 111.028 21.8547Z" fill="#D8B174"/>
<path d="M99.2921 20.4509C101.595 20.5766 103.898 20.8281 106.223 21.2262C107.685 37.6329 100.975 56.8055 91.1211 64.2231C89.9917 64.0346 88.8403 63.9088 87.7109 63.846C97.5649 56.4284 102.702 37.0881 99.2921 20.4509Z" fill="#89B3B7"/>
<path d="M99.2928 20.4509C101.596 20.5766 103.899 20.828 106.224 21.2261C107.685 37.6329 100.976 56.8055 91.1217 64.2231C89.9924 64.0345 88.8409 63.9088 87.7116 63.8459C97.5656 56.4283 102.703 37.0881 99.2928 20.4509ZM98.9828 20.0527C102.614 36.7738 97.5434 56.3864 87.623 63.8669C88.8188 63.9297 90.0367 64.0554 91.2546 64.265C101.175 56.7845 107.973 37.3605 106.423 20.8909C103.921 20.4299 101.441 20.1575 98.9828 20.0527Z" fill="#D8B174"/>
<path d="M87.6662 21.1633C89.8584 20.7652 92.0949 20.5347 94.3536 20.4299C99.1588 37.0672 95.1508 56.4283 85.2968 63.8459C84.1896 63.8879 83.0824 64.0136 82.0195 64.2022C91.8735 56.7846 94.3536 37.591 87.6662 21.1633Z" fill="#89B3B7"/>
<path d="M87.6669 21.1632C89.8591 20.7651 92.0956 20.5346 94.3543 20.4299C99.1594 37.0671 95.1514 56.4283 85.2975 63.8459C84.1903 63.8878 83.0831 64.0135 82.0202 64.2021C91.8742 56.7845 94.3543 37.5909 87.6669 21.1632ZM87.2904 20.807C94.2435 37.3185 91.852 56.7426 81.9316 64.223C83.0831 64.0135 84.2346 63.8878 85.4303 63.8459C95.3507 56.3654 99.403 36.7528 94.465 20.0317C92.0292 20.1156 89.6377 20.367 87.2904 20.807Z" fill="#D8B174"/>
<path d="M76.8171 24.5997C77.3043 24.3693 77.7693 24.1597 78.2786 23.9502C79.8286 23.3006 81.4008 22.7349 83.0173 22.2529C91.0112 38.3663 89.594 57.3084 79.7622 64.726C78.965 64.9565 78.19 65.2289 77.4371 65.5642C77.1935 65.6689 76.95 65.7737 76.7285 65.8785C86.5603 58.4609 86.5603 40.0636 76.8171 24.5997Z" fill="#89B3B7"/>
<path d="M76.8172 24.5996C77.3044 24.3691 77.7694 24.1596 78.2787 23.95C79.8288 23.3005 81.401 22.7347 83.0175 22.2528C91.0113 38.3662 89.5941 57.3083 79.7623 64.7259C78.9652 64.9564 78.1901 65.2288 77.4372 65.564C77.1937 65.6688 76.9501 65.7736 76.7286 65.8783C86.5605 58.4607 86.5605 40.0634 76.8172 24.5996ZM76.3965 24.3062C86.4276 39.812 86.5383 58.4398 76.6179 65.9202C76.8836 65.7945 77.1494 65.6688 77.4151 65.564C78.2123 65.2288 79.0094 64.9354 79.8288 64.7049C89.7492 57.2245 91.1663 38.0309 82.9953 21.8127C81.3124 22.2947 79.6516 22.8814 78.013 23.5729C77.4815 23.8033 76.9279 24.0548 76.3965 24.3062Z" fill="#D8B174"/>
<path d="M69.8633 28.7694C70.7712 28.078 71.7455 27.4284 72.742 26.7998C83.6367 41.635 84.5667 59.5504 74.7127 66.968C74.2256 67.2613 73.7606 67.5966 73.2956 67.9319C83.1495 60.5143 81.5773 43.0599 69.8633 28.7694Z" fill="#89B3B7"/>
<path d="M69.8634 28.7695C70.7713 28.078 71.7456 27.4285 72.7421 26.7998C83.6368 41.635 84.5668 59.5504 74.7129 66.968C74.2257 67.2614 73.7607 67.5966 73.2957 67.9319C83.1496 60.5143 81.5774 43.0599 69.8634 28.7695ZM69.5977 28.4342C81.5553 42.7875 83.2382 60.4514 73.3178 67.9319C73.805 67.5757 74.2921 67.2404 74.8014 66.9052C84.7218 59.4247 83.7475 41.2579 72.6535 26.3389C71.5906 26.9884 70.572 27.7009 69.5977 28.4342Z" fill="#D8B174"/>
<path d="M165.501 45.6581C167.538 48.5078 170.217 52.3214 172.099 55.2549C171.479 54.2492 167.25 55.2549 159.788 58.4608C158.304 56.0721 156.732 53.7672 155.049 51.5671C161.714 47.3344 165.257 45.3438 165.501 45.6581Z" fill="#89B3B7"/>
<path d="M165.502 45.658C167.539 48.5077 170.219 52.3213 172.101 55.2548C171.481 54.249 167.251 55.2548 159.789 58.4607C158.305 56.072 156.733 53.7671 155.05 51.567C161.715 47.3343 165.258 45.3437 165.502 45.658ZM165.258 45.3647C165.059 45.0713 161.516 47.0829 154.873 51.3574C156.645 53.6623 158.305 56.072 159.855 58.6074C167.34 55.4224 171.569 54.4376 172.189 55.4644C170.196 52.3842 167.429 48.3401 165.258 45.3647Z" fill="#D8B174"/>
<path d="M152.348 31.0952L153.787 32.4782C155.736 34.4897 158.371 37.1718 160.231 39.2671C160.364 39.3929 157.33 42.0121 151.263 46.9781C149.447 44.9246 147.565 42.955 145.594 41.1111C150.82 35.0974 152.857 32.1219 152.348 31.0952Z" fill="#89B3B7"/>
<path d="M152.348 31.0952L153.787 32.4781C155.736 34.4897 158.371 37.1718 160.231 39.2671C160.364 39.3928 157.33 42.0121 151.263 46.9781C149.447 44.9246 147.565 42.955 145.594 41.111C150.82 35.0973 152.857 32.1219 152.348 31.0952ZM152.082 30.8438C152.813 31.5143 150.598 34.9926 145.395 40.9225C147.498 42.8921 149.513 44.9665 151.44 47.1667C157.551 42.2425 160.607 39.6443 160.497 39.5395C158.504 37.4022 155.868 34.5316 153.809 32.4781L152.082 30.8438Z" fill="#D8B174"/>
<path d="M137.268 19.0051L142.871 23.0282L146.259 25.7103C147.455 26.6742 145.838 30.6763 141.232 37.2348C139.173 35.5376 137.047 33.9451 134.877 32.4783C138.553 25.0188 139.217 20.3043 137.268 19.0051Z" fill="#89B3B7"/>
<path d="M137.267 19.0052L142.87 23.0283L146.258 25.7104C147.453 26.6743 145.837 30.6764 141.231 37.2349C139.172 35.5377 137.046 33.9452 134.876 32.4784C138.552 25.0189 139.216 20.3044 137.267 19.0052ZM136.957 18.8167C138.928 20.1158 138.308 24.8513 134.654 32.3737C136.979 33.9242 139.238 35.6215 141.43 37.4235C146.058 30.886 147.697 26.9048 146.523 25.9619L142.847 23.0493C141.098 21.7711 138.773 20.032 136.957 18.8167Z" fill="#D8B174"/>
<path d="M120.506 9.57593C123.517 11.0636 127.525 13.0961 130.448 14.7305C132.973 16.1973 133.061 21.3938 130.116 29.5029C127.88 28.2037 125.599 27.0303 123.296 25.9617C125.2 16.9516 123.96 11.1475 120.506 9.57593Z" fill="#89B3B7"/>
<path d="M120.506 9.57588C123.518 11.0636 127.526 13.0961 130.449 14.7305C132.973 16.1972 133.061 21.3937 130.116 29.5028C127.88 28.2037 125.599 27.0303 123.296 25.9617C125.2 16.9516 123.96 11.1474 120.506 9.57588ZM120.174 9.4292C123.65 11.0007 124.935 16.8258 123.053 25.8778C125.51 26.9884 127.924 28.2456 130.316 29.6285C133.305 21.5404 133.261 16.3649 130.759 14.9191C127.636 13.2009 123.407 10.9798 120.174 9.4292Z" fill="#D8B174"/>
<path d="M102.281 3.12207L104.562 3.72973C107.109 4.52597 110.497 5.57365 113.021 6.47466C117.184 8.00428 119.354 14.2066 118.269 23.8872C115.944 23.0281 113.597 22.2737 111.227 21.687C111.072 11.1264 107.507 4.44215 102.281 3.12207Z" fill="#89B3B7"/>
<path d="M102.28 3.12214L104.561 3.7298C107.107 4.52604 110.495 5.57372 113.02 6.47473C117.183 8.00435 119.353 14.2066 118.268 23.8872C115.943 23.0281 113.596 22.2738 111.226 21.6871C111.071 11.1264 107.506 4.44223 102.28 3.12214ZM101.926 3.03833C107.174 4.35841 110.805 11.0636 111.005 21.6452C113.507 22.2738 116.009 23.07 118.489 23.992C119.619 14.3533 117.493 8.17198 113.352 6.62141C110.717 5.7204 107.218 4.52604 104.561 3.7298L101.926 3.03833Z" fill="#D8B174"/>
<path d="M82.8613 0.125732C85.0978 0.314315 88.0872 0.523852 90.3237 0.79625L94.2875 1.40391C100.886 3.01734 104.872 9.47107 106.179 20.5975C103.831 20.1994 101.484 19.927 99.1591 19.8012C96.5018 7.75287 90.0137 0.460991 82.8613 0.125732Z" fill="#89B3B7"/>
<path d="M82.8608 0.125732C85.0973 0.314315 88.0867 0.523852 90.3232 0.79625L94.287 1.40391C100.886 3.01734 104.872 9.47107 106.178 20.5975C103.831 20.1994 101.484 19.927 99.1586 19.8012C96.5013 7.75287 90.0132 0.460991 82.8608 0.125732ZM82.4844 0.125732C92.5155 1.23628 96.9663 11.4407 98.915 19.8012C101.395 19.927 103.875 20.1994 106.377 20.6394C105.27 9.47107 100.62 2.4935 94.6413 1.46677L90.3232 0.79625C87.9539 0.586713 84.8316 0.251454 82.4844 0.125732Z" fill="#D8B174"/>
<path d="M62.6875 1.40405C66.2083 0.901162 70.9471 0.356367 74.4901 0.104922C82.4175 -0.230336 90.3228 7.16631 94.1758 19.8014C91.895 19.9061 89.6364 20.1366 87.422 20.5348C78.2324 0.398274 66.1641 0.796394 62.6875 1.40405Z" fill="#89B3B7"/>
<path d="M62.6889 1.40395C66.2098 0.901065 70.9485 0.35627 74.4915 0.104826C82.419 -0.230433 90.3243 7.16621 94.1773 19.8013C91.8965 19.906 89.6378 20.1365 87.4235 20.5347C78.2338 0.398177 66.1655 0.796297 62.6889 1.40395ZM62.3125 1.46681C71.2807 -0.209479 81.4668 7.16621 87.202 20.5766C89.5492 20.1365 91.9629 19.8851 94.3987 19.7803C90.6121 7.16621 82.7733 -0.209479 74.8901 0.0838724C66.6748 0.670575 66.5198 0.691529 62.3125 1.46681Z" fill="#D8B174"/>
<path d="M42.6484 7.77379L45.3943 6.53752C48.0072 5.5527 51.5059 4.23262 54.1853 3.39447C63.7071 0.58668 75.5761 7.79474 82.7064 21.6242C81.0678 22.1061 79.4734 22.6719 77.9233 23.3424C77.4362 23.5519 76.949 23.7614 76.4619 23.9919C67.1615 9.74344 52.6795 3.03826 42.6484 7.77379Z" fill="#89B3B7"/>
<path d="M42.6473 7.77404L45.3931 6.53778C48.006 5.55295 51.5047 4.23287 54.1841 3.39472C63.7059 0.586931 75.5749 7.79499 82.7052 21.6244C81.0666 22.1064 79.4722 22.6721 77.9222 23.3426C77.435 23.5522 76.9478 23.7617 76.4607 23.9922C67.1603 9.74369 52.6784 3.03851 42.6473 7.77404ZM42.293 7.94167C52.3462 3.14328 66.9168 9.8275 76.2614 24.097C76.815 23.8455 77.3686 23.5941 77.9222 23.3426C79.5608 22.6512 81.2216 22.0645 82.9267 21.5825C75.885 7.75309 64.0824 0.545023 54.5827 3.28996C51.8148 4.21192 48.1168 5.46914 45.4152 6.53778L42.293 7.94167Z" fill="#D8B174"/>
<path d="M25.1992 19.1518L29.3401 15.7782C31.0009 14.6258 33.1709 13.0543 34.876 11.9856C44.9957 5.69952 61.4485 11.8389 72.321 26.2341C71.3245 26.8627 70.3502 27.5123 69.4202 28.2247C68.6673 28.7905 67.9366 29.3772 67.2501 29.9848C54.5175 16.1135 36.0275 10.9379 26.0628 18.4394C25.7528 18.6698 25.4649 18.9003 25.1992 19.1518Z" fill="#89B3B7"/>
<path d="M25.198 19.1516L29.3389 15.7781C30.9997 14.6256 33.1698 13.0541 34.8748 11.9855C44.9945 5.69936 61.4473 11.8388 72.3198 26.234C71.3234 26.8626 70.349 27.5121 69.419 28.2246C68.6661 28.7903 67.9354 29.377 67.2489 29.9847C54.5163 16.1133 36.0263 10.9378 26.0616 18.4392C25.7516 18.6697 25.4637 18.9002 25.198 19.1516ZM24.9102 19.4031C25.198 19.1516 25.508 18.9002 25.818 18.6697C35.8049 11.1473 54.317 16.3019 67.0939 30.1313C67.8468 29.4818 68.6218 28.8322 69.419 28.2246C70.3933 27.4912 71.4341 26.7788 72.497 26.1292C61.6908 11.734 45.3045 5.57364 35.207 11.7759C33.4355 12.9703 31.044 14.4999 29.3389 15.7781L24.9102 19.4031Z" fill="#D8B174"/>
<path d="M12.1777 34.1546C13.9271 31.682 16.3408 28.4342 18.2673 26.0874L19.153 25.0816C19.773 24.4111 20.4595 23.7615 21.2345 23.1958C31.2213 15.6734 50.4199 20.1365 64.0604 33.1278C62.6875 34.6574 61.4253 36.2918 60.3181 38.01C42.116 24.3901 20.5259 22.6719 12.1777 34.1546Z" fill="#89B3B7"/>
<path d="M12.1778 34.1546C13.9272 31.6821 16.3408 28.4342 18.2673 26.0874L19.1531 25.0817C19.7731 24.4111 20.4596 23.7616 21.2346 23.1958C31.2214 15.6735 50.42 20.1366 64.0605 33.1279C62.6876 34.6575 61.4254 36.2919 60.3182 38.0101C42.1161 24.3902 20.526 22.672 12.1778 34.1546ZM11.9785 34.4689C12.8421 33.1279 13.9714 31.9125 15.3886 30.8439C25.3755 23.3215 45.4598 26.6113 60.2075 38.1567C61.3811 36.3128 62.7097 34.5737 64.1934 32.9602C50.5971 19.9271 31.3985 15.443 21.4339 22.9653C20.681 23.5311 20.0167 24.1387 19.4188 24.8093L18.2673 26.0874C16.2965 28.539 13.7722 31.8916 11.9785 34.4689Z" fill="#D8B174"/>
<path d="M3.98438 51.3785L4.11724 50.9594C5.24657 47.984 6.84091 44.0657 8.16953 41.1741C9.05528 39.414 10.3839 37.8215 12.1997 36.4595C22.1865 28.9371 42.758 31.3678 58.1036 41.8865C57.1735 43.7304 56.3764 45.6791 55.7342 47.6907C39.7243 38.8063 18.5771 37.7167 8.59026 45.2391C6.24303 46.9992 4.71512 49.0946 3.98438 51.3785Z" fill="#89B3B7"/>
<path d="M3.98572 51.3785L4.11858 50.9594C5.24791 47.984 6.84226 44.0657 8.17088 41.1741C9.05663 39.4139 10.3852 37.8215 12.201 36.4595C22.1878 28.9371 42.7593 31.3677 58.1049 41.8865C57.1749 43.7304 56.3777 45.6791 55.7355 47.6906C39.7256 38.8063 18.5784 37.7167 8.59161 45.2391C6.24438 46.9992 4.71646 49.0945 3.98572 51.3785ZM3.875 51.7137C4.60574 49.4298 6.1558 47.3135 8.50303 45.5324C18.4898 38.01 39.6371 39.0577 55.6691 47.8583C56.3556 45.721 57.197 43.6466 58.1935 41.6769C42.8922 31.1163 22.3207 28.6438 12.3339 36.1661C10.5403 37.5072 9.21163 39.0996 8.32588 40.8388C6.95297 43.8352 5.24791 47.8583 4.11858 50.9385L3.875 51.7137Z" fill="#D8B174"/>
<path d="M0.308594 69.5662L0.906474 64.4745L1.92508 58.9008C2.50082 56.3654 4.07302 53.9976 6.77456 51.9651C16.7614 44.4428 38.1743 44.5056 54.5164 52.1118C54.0514 54.2072 53.7192 56.3864 53.5421 58.6075C36.9121 52.8452 15.2777 54.291 5.29093 61.8134C2.16866 64.1602 0.552174 66.8213 0.308594 69.5662Z" fill="#89B3B7"/>
<path d="M0.309253 69.5662L0.907133 64.4744L1.92574 58.9007C2.50148 56.3653 4.07368 53.9976 6.77521 51.9651C16.762 44.4427 38.175 44.5055 54.517 52.1117C54.052 54.2071 53.7199 56.3863 53.5427 58.6074C36.9128 52.8451 15.2784 54.2909 5.29159 61.8133C2.16932 64.1601 0.552834 66.8212 0.309253 69.5662ZM0.287109 69.9014C0.508546 67.1565 2.12504 64.4744 5.26944 62.1276C15.2563 54.6052 36.8906 53.1175 53.5206 58.8169C53.6977 56.4491 54.052 54.1442 54.5613 51.9022C38.2193 44.2541 16.8063 44.1284 6.84165 51.6508C4.16226 53.6623 2.59005 56.0301 2.01432 58.5445C1.68216 60.3256 1.17286 62.6724 0.929277 64.4535L0.287109 69.9014Z" fill="#D8B174"/>
<path d="M0.751567 88.0473C0.485843 85.0928 0.153687 81.1745 0.0429688 78.22V77.34C1.03944 64.8306 28.9626 57.5806 53.3871 63.4896C53.4093 65.7735 53.5643 68.0994 53.8522 70.4462C37.3108 68.0575 15.7207 72.2273 5.75604 79.7287C2.01376 82.5365 0.419412 85.4071 0.751567 88.0473Z" fill="#89B3B7"/>
<path d="M0.752227 88.0473C0.486502 85.0929 0.154347 81.1745 0.0436281 78.2201V77.34C1.04009 64.8307 28.9633 57.5807 53.3878 63.4896C53.4099 65.7736 53.5649 68.0994 53.8528 70.4462C37.3115 68.0575 15.7214 72.2273 5.7567 79.7287C2.01442 82.5365 0.420071 85.4072 0.752227 88.0473ZM0.796514 88.4035C0.464358 85.7843 2.05871 82.8927 5.77885 80.0849C15.7657 72.5626 37.3336 68.3509 53.8528 70.6767C53.5207 68.1623 53.3657 65.6898 53.3435 63.2591C28.764 57.3083 0.840801 64.4954 0.0214844 76.9628L0.0436281 78.1991C0.198634 81.2793 0.464358 85.3443 0.796514 88.4035Z" fill="#D8B174"/>
<path d="M4.91511 106.34L4.67153 105.565C3.83007 102.631 2.74503 98.7129 2.05857 95.7375C1.06211 85.4911 29.6053 74.5533 54.6941 75.5801C55.2034 77.9688 55.8456 80.3784 56.6428 82.8091C29.716 85.1559 2.81146 98.8386 4.91511 106.34Z" fill="#89B3B7"/>
<path d="M4.91587 106.34L4.67229 105.565C3.83083 102.631 2.74579 98.7128 2.05934 95.7374C1.06287 85.491 29.6061 74.5532 54.6949 75.5799C55.2042 77.9687 55.8464 80.3783 56.6436 82.809C29.7168 85.1558 2.81222 98.8385 4.91587 106.34ZM5.02659 106.675C4.36228 104.643 5.95663 101.919 10.1196 98.7966C20.1065 91.2742 41.0101 84.2129 56.71 83.0185C55.8464 80.4412 55.1599 77.8848 54.6285 75.3285C38.3086 74.3227 16.9399 79.624 6.95309 87.1464C3.0558 90.1008 1.4836 92.9505 1.97076 95.4021C2.72365 98.4613 3.74226 102.547 4.65015 105.565L5.02659 106.675Z" fill="#D8B174"/>
<path d="M12.6659 124.151L9.98653 118.912L7.72787 113.862C7.04142 112.165 8.70219 109.588 12.9759 106.382C22.9627 98.8594 43.4235 90.6246 58.6141 88.0264C59.6327 90.457 60.7842 92.8667 62.0907 95.2763C47.8965 99.9281 28.2329 109.839 18.2461 117.362C13.8395 120.693 12.0459 122.998 12.6659 124.151Z" fill="#89B3B7"/>
<path d="M12.6659 124.151L9.98648 118.912L7.72783 113.862C7.04137 112.165 8.70215 109.588 12.9759 106.382C22.9627 98.8594 43.4235 90.6246 58.614 88.0263C59.6327 90.457 60.7841 92.8667 62.0906 95.2763C47.8965 99.928 28.2329 109.839 18.2461 117.362C13.8395 120.693 12.0458 122.998 12.6659 124.151ZM12.843 124.465C11.603 119.75 39.7476 103.239 62.2235 95.5068C60.8284 92.9505 59.5884 90.3732 58.5255 87.7749C32.1745 92.5523 5.69061 107.199 7.59496 113.506L9.98648 118.891L12.843 124.465Z" fill="#D8B174"/>
<path d="M23.6939 140.851C21.6124 138.043 18.8887 134.292 16.9622 131.401C16.4972 130.688 18.4237 128.593 22.9188 125.219C32.9056 117.697 51.8607 106.591 65.1912 100.473C66.6969 102.841 68.3134 105.104 70.0406 107.262C58.083 115.329 40.2574 127.985 30.2705 135.507C25.7089 138.923 23.561 140.683 23.6939 140.851Z" fill="#89B3B7"/>
<path d="M23.6927 140.851C21.6112 138.043 18.8875 134.292 16.961 131.401C16.496 130.688 18.4225 128.593 22.9177 125.219C32.9045 117.697 51.8595 106.591 65.19 100.473C66.6958 102.841 68.3122 105.104 70.0395 107.262C58.0819 115.329 40.2562 127.985 30.2694 135.507C25.7078 138.923 23.5598 140.683 23.6927 140.851ZM23.9141 141.144C23.8034 140.997 25.9513 139.237 30.4687 135.822C40.4555 128.299 58.259 115.581 70.1502 107.471C68.3122 105.167 66.6072 102.757 64.9907 100.242C51.6159 106.298 32.6387 117.362 22.6519 124.863C18.2011 128.237 16.2746 130.332 16.7396 131.086C18.8432 134.146 21.6776 138.19 23.9141 141.144Z" fill="#D8B174"/>
<path d="M37.0232 155.183L34.2331 152.543C32.6609 150.929 30.5351 148.813 29.0293 147.137C29.2064 147.325 31.5315 145.754 36.0488 142.359C46.0357 134.837 62.9756 121.133 73.8481 111.788C75.6861 113.82 77.6126 115.748 79.6055 117.55C70.3716 128.53 54.7381 143.575 44.7735 151.097C40.2783 154.491 37.6875 155.77 37.0232 155.183Z" fill="#89B3B7"/>
<path d="M37.0246 155.183L34.2345 152.543C32.6623 150.929 30.5365 148.813 29.0307 147.137C29.2078 147.325 31.5329 145.754 36.0502 142.359C46.0371 134.837 62.977 121.133 73.8495 111.788C75.6875 113.82 77.614 115.748 79.6069 117.55C70.373 128.53 54.7395 143.575 44.7749 151.097C40.2797 154.492 37.6889 155.77 37.0246 155.183ZM37.2903 155.435C37.9767 156.042 40.5676 154.743 45.0406 151.39C55.0274 143.868 70.5944 128.781 79.7841 117.76C77.6583 115.832 75.621 113.779 73.6724 111.62C62.7556 120.903 45.7713 134.586 35.7845 142.108C31.2672 145.523 28.9421 147.074 28.7871 146.906C30.4257 148.604 32.5515 150.929 34.2345 152.585L37.2903 155.435Z" fill="#D8B174"/>
<path d="M52.2807 167.022C50.1328 165.534 47.2541 163.564 45.1505 161.993L43.1797 160.463C44.2204 161.28 46.9884 160.149 51.4171 156.817C61.4039 149.295 75.9966 133.391 83.9905 121.322C86.072 122.977 88.22 124.528 90.4122 125.953C84.2562 139.342 71.125 156.314 61.1382 163.837C56.8645 167.064 53.853 168.028 52.2807 167.022Z" fill="#89B3B7"/>
<path d="M52.2808 167.022C50.1329 165.534 47.2542 163.564 45.1506 161.993L43.1798 160.463C44.2205 161.28 46.9885 160.149 51.4172 156.817C61.404 149.295 75.9967 133.391 83.9906 121.322C86.0721 122.977 88.2201 124.528 90.4123 125.952C84.2563 139.342 71.1251 156.314 61.1383 163.837C56.8646 167.064 53.853 168.027 52.2808 167.022ZM52.5909 167.231C54.1631 168.237 57.1967 167.273 61.4705 164.067C71.4573 156.545 84.5221 139.53 90.6337 126.12C88.3086 124.611 86.0278 122.956 83.8135 121.175C75.7753 133.182 61.1162 149.064 51.1294 156.587C46.7006 159.918 43.9327 161.05 42.9141 160.254L45.1727 162.014C47.3649 163.585 50.2879 165.723 52.5909 167.231Z" fill="#D8B174"/>
<path d="M69.1769 176.179C66.1432 174.733 62.1131 172.784 59.168 171.192C61.0945 172.26 64.2389 171.38 68.4019 168.237C78.3887 160.715 90.3906 143.051 95.1958 128.865C97.4544 130.122 99.7352 131.275 102.038 132.281C99.1816 147.451 88.752 165.89 78.7651 173.413C74.8457 176.388 71.5463 177.226 69.1769 176.179Z" fill="#89B3B7"/>
<path d="M69.1764 176.179C66.1427 174.733 62.1126 172.784 59.1674 171.192C61.0939 172.26 64.2383 171.38 68.4014 168.237C78.3882 160.715 90.39 143.051 95.1952 128.865C97.4539 130.122 99.7347 131.275 102.038 132.281C99.1811 147.451 88.7514 165.89 78.7646 173.413C74.8452 176.388 71.5458 177.226 69.1764 176.179ZM69.5085 176.325C71.8779 177.352 75.1773 176.535 79.1189 173.559C89.1057 166.037 99.4911 147.577 102.281 132.385C99.8233 131.317 97.3875 130.102 94.9959 128.76C90.1243 142.904 78.056 160.547 68.0913 168.07C63.9283 171.213 60.7618 172.093 58.8574 171.024C62.024 172.679 66.2534 174.859 69.5085 176.325Z" fill="#D8B174"/>
<path d="M87.5327 182.36L83.4361 181.291C81.421 180.663 78.7195 179.866 76.7266 179.154C79.3395 180.055 82.6611 179.238 86.4034 176.409C96.3902 168.887 105.668 149.986 107.086 134.25C109.433 135.067 111.78 135.78 114.127 136.325C114.703 152.648 107.041 172.03 97.0766 179.552C93.6443 182.171 90.3671 183.009 87.5327 182.36Z" fill="#89B3B7"/>
<path d="M87.5335 182.36L83.4369 181.291C81.4218 180.663 78.7203 179.866 76.7273 179.154C79.3403 180.055 82.6619 179.238 86.4041 176.409C96.3909 168.887 105.669 149.986 107.086 134.25C109.434 135.067 111.781 135.78 114.128 136.325C114.704 152.647 107.042 172.03 97.0774 179.552C93.6451 182.171 90.3679 183.009 87.5335 182.36ZM87.8878 182.444C90.7222 183.093 93.9773 182.234 97.4095 179.657C107.396 172.134 114.992 152.731 114.349 136.408C111.847 135.822 109.345 135.088 106.843 134.187C105.359 149.882 96.0145 168.782 86.0498 176.304C82.2854 179.133 78.9639 179.95 76.373 179.049C78.4988 179.741 81.2889 180.683 83.4369 181.291L87.8878 182.444Z" fill="#D8B174"/>
<path d="M107.065 184.958C104.253 184.77 100.51 184.518 97.6981 184.204L95.5723 183.911C98.4509 184.351 101.595 183.45 104.762 181.082C114.749 173.56 121.215 153.947 119.2 137.352C121.547 137.708 123.894 137.917 126.197 138.001C131.534 163.313 119.952 185.356 107.065 184.958Z" fill="#89B3B7"/>
<path d="M107.064 184.958C104.251 184.769 100.509 184.518 97.6969 184.204L95.5711 183.91C98.4498 184.35 101.594 183.449 104.761 181.082C114.748 173.559 121.214 153.947 119.198 137.351C121.546 137.707 123.893 137.917 126.196 138.001C131.532 163.313 119.951 185.356 107.064 184.958ZM107.44 184.979C123.339 184.267 131.156 158.556 126.439 138.001C123.981 137.938 121.479 137.707 118.977 137.309C120.926 153.905 114.393 173.517 104.429 181.019C101.24 183.407 98.0955 184.287 95.2168 183.847L97.719 184.204C100.62 184.497 104.517 184.979 107.44 184.979Z" fill="#D8B174"/>
<path d="M127.259 183.261C123.738 183.848 119.022 184.497 115.479 184.832C118.003 184.665 120.527 183.722 122.897 181.941C132.883 174.418 136.581 154.68 131.178 137.917C133.459 137.77 135.696 137.477 137.91 137.016C147.454 160.254 140.169 180.579 127.259 183.261Z" fill="#89B3B7"/>
<path d="M127.258 183.261C123.738 183.848 119.021 184.497 115.478 184.833C118.002 184.665 120.527 183.722 122.896 181.941C132.883 174.419 136.581 154.68 131.178 137.917C133.459 137.771 135.695 137.477 137.91 137.016C147.454 160.254 140.168 180.579 127.258 183.261ZM127.635 183.177C142.028 179.217 146.922 157.614 138.109 136.974C135.762 137.456 133.37 137.771 130.956 137.917C136.315 154.68 132.551 174.44 122.564 181.941C120.172 183.743 117.648 184.686 115.102 184.833C122.232 184.162 124.38 183.973 127.635 183.177Z" fill="#D8B174"/>
<path d="M147.211 176.367L142.65 178.483C140.59 179.259 137.867 180.348 135.785 181.04C137.335 180.537 138.797 179.783 140.192 178.735C150.179 171.213 151.241 151.956 142.605 135.801C143.868 135.403 145.13 134.942 146.348 134.418C147.189 134.062 147.986 133.684 148.784 133.286C159.191 148.729 159.523 167.42 149.559 174.921C148.784 175.487 148.008 175.969 147.211 176.367Z" fill="#89B3B7"/>
<path d="M147.21 176.367L142.649 178.483C140.589 179.259 137.866 180.348 135.784 181.04C137.334 180.537 138.796 179.783 140.191 178.735C150.177 171.213 151.24 151.956 142.604 135.801C143.866 135.403 145.129 134.942 146.347 134.418C147.188 134.062 147.985 133.685 148.782 133.286C159.19 148.729 159.522 167.42 149.557 174.921C148.782 175.487 148.007 175.969 147.21 176.367ZM147.564 176.179C148.339 175.78 149.092 175.319 149.801 174.775C159.788 167.252 159.389 148.604 148.937 133.182C148.096 133.622 147.21 134.02 146.302 134.397C145.018 134.942 143.689 135.424 142.361 135.843C150.952 152.019 149.823 171.296 139.836 178.819C138.441 179.866 136.935 180.642 135.363 181.145C137.556 180.369 140.478 179.364 142.604 178.483L147.564 176.179Z" fill="#D8B174"/>
<path d="M164.261 164.591C162.601 165.995 160.408 167.923 158.681 169.243L154.828 171.946C155.094 171.778 155.36 171.59 155.625 171.38C165.612 163.858 164.328 145.712 152.791 130.94C153.477 130.479 154.164 130.018 154.806 129.515C155.825 128.74 156.799 127.922 157.729 127.063C170.174 140.222 172.897 156.65 164.261 164.591Z" fill="#89B3B7"/>
<path d="M164.261 164.591C162.6 165.995 160.408 167.923 158.681 169.243L154.828 171.946C155.093 171.778 155.359 171.59 155.625 171.38C165.612 163.858 164.327 145.712 152.79 130.94C153.477 130.479 154.163 130.018 154.806 129.515C155.824 128.74 156.798 127.922 157.728 127.063C170.173 140.222 172.897 156.65 164.261 164.591ZM164.549 164.319C173.096 156.356 170.328 140.013 157.883 126.938C156.909 127.839 155.891 128.719 154.806 129.515C154.097 130.039 153.366 130.562 152.613 131.044C164.106 145.859 165.346 164.026 155.359 171.548C155.071 171.757 154.783 171.967 154.495 172.156L158.681 169.222C160.474 167.797 162.866 165.869 164.549 164.319Z" fill="#D8B174"/>
<path d="M176.817 149.295C174.912 152.124 172.233 155.811 170.107 158.515C177.127 150.301 173.429 135.549 160.807 123.878C162.135 122.328 163.353 120.651 164.416 118.891C177.082 128.572 181.843 141.144 176.817 149.295Z" fill="#89B3B7"/>
<path d="M176.816 149.295C174.912 152.124 172.232 155.812 170.106 158.515C177.126 150.301 173.428 135.549 160.806 123.878C162.135 122.328 163.353 120.651 164.415 118.891C177.082 128.572 181.843 141.144 176.816 149.295ZM177.015 148.981C181.975 140.83 177.17 128.341 164.548 118.724C163.419 120.589 162.135 122.37 160.695 124.025C173.317 135.738 176.993 150.594 169.885 158.787C174.602 152.878 174.779 152.648 177.015 148.981Z" fill="#D8B174"/>
<path d="M184.589 131.966L183.924 134.083C182.994 136.555 181.732 139.824 180.669 142.233C184.412 134.334 179.097 123.27 166.586 114.973C167.472 113.087 168.225 111.138 168.822 109.106C186.803 119.289 185.43 129.179 184.589 131.966Z" fill="#89B3B7"/>
<path d="M184.59 131.966L183.926 134.083C182.996 136.555 181.734 139.824 180.671 142.234C184.413 134.334 179.098 123.27 166.587 114.973C167.473 113.087 168.226 111.138 168.824 109.106C186.804 119.289 185.432 129.179 184.59 131.966ZM184.679 131.631C187.27 120.086 174.47 111.893 168.868 108.896C168.226 111.054 167.429 113.15 166.477 115.14C179.01 123.501 184.28 134.627 180.494 142.527C181.579 140.012 182.996 136.618 183.904 134.041L184.679 131.631Z" fill="#D8B174"/>
<path d="M187.844 113.716C187.645 115.769 187.423 118.514 187.135 120.567L186.471 124.381C187.645 114.847 178.123 108.351 169.93 104.601C170.35 102.484 170.616 100.284 170.771 98.0632C185.32 103.218 188.088 109.42 187.844 113.716Z" fill="#89B3B7"/>
<path d="M187.845 113.716C187.646 115.769 187.425 118.514 187.137 120.567L186.472 124.381C187.646 114.847 178.124 108.352 169.931 104.601C170.352 102.484 170.617 100.284 170.772 98.0633C185.321 103.218 188.089 109.42 187.845 113.716ZM187.867 113.359C188.244 107.513 182.11 101.5 170.772 97.8328C170.64 100.221 170.33 102.547 169.887 104.789C181.778 110.112 187.779 117.948 186.406 124.716L187.137 120.547C187.358 118.409 187.712 115.518 187.867 113.359Z" fill="#D8B174"/>
<path d="M187.048 95.2136C187.402 98.4195 187.823 102.715 187.978 105.942C187.137 98.629 178.213 94.9622 170.839 93.1601C170.772 90.8552 170.573 88.5294 170.219 86.1616C180.493 87.4398 186.428 90.9391 187.048 95.2136Z" fill="#89B3B7"/>
<path d="M187.047 95.2136C187.401 98.4195 187.822 102.715 187.977 105.942C187.135 98.6291 178.211 94.9622 170.837 93.1602C170.771 90.8553 170.572 88.5294 170.217 86.1616C180.492 87.4398 186.427 90.9391 187.047 95.2136ZM186.98 94.8784C186.36 90.6457 180.426 87.1674 170.195 85.9312C170.572 88.4456 170.793 90.9391 170.837 93.3907C181.754 96.0937 187.844 101.06 187.977 106.298C187.777 102.862 187.445 98.2729 186.98 94.8784Z" fill="#D8B174"/>
<path d="M182.508 76.9629L183.35 79.4564C184.036 81.887 184.988 85.0929 185.586 87.5445C184.213 83.5843 178.722 81.3841 169.244 81.007C168.691 78.6182 167.982 76.1876 167.141 73.7779C170.551 73.5265 180.87 72.7512 182.508 76.9629Z" fill="#89B3B7"/>
<path d="M182.508 76.9631L183.35 79.4566C184.036 81.8872 184.988 85.0931 185.586 87.5447C184.213 83.5845 178.722 81.3843 169.244 81.0072C168.691 78.6184 167.982 76.1878 167.141 73.7781C170.551 73.5267 180.87 72.7514 182.508 76.9631ZM182.398 76.6278C181.468 74.8049 178.855 72.5209 167.074 73.5476C167.982 76.1249 168.735 78.7023 169.311 81.2377C179.12 81.6358 184.856 84.234 185.675 87.88C185.011 85.3446 184.147 81.9501 183.372 79.4566L182.398 76.6278Z" fill="#D8B174"/>
<path d="M174.448 59.2153C175.533 61.2897 177.038 64.0137 178.035 66.109L179.563 69.4616C178.655 67.3453 173.628 66.8634 165.081 68.5397C164.018 66.109 162.822 63.6994 161.449 61.2897C169.244 58.5238 173.717 57.9161 174.448 59.2153Z" fill="#89B3B7"/>
<path d="M174.448 59.2151C175.533 61.2895 177.038 64.0135 178.035 66.1088L179.563 69.4614C178.655 67.3451 173.628 66.8632 165.081 68.5395C164.018 66.1088 162.822 63.6992 161.449 61.2895C169.244 58.5236 173.717 57.9159 174.448 59.2151ZM174.248 58.9008C173.54 57.6226 169.089 58.2512 161.316 61.059C162.778 63.6153 164.062 66.1926 165.192 68.7699C168.712 68.1623 178.057 66.5279 179.718 69.7967L178.035 66.1088C176.906 63.9506 175.466 61.0171 174.248 58.9008Z" fill="#D8B174"/>
<path d="M67.7148 30.5294C68.4013 29.9218 69.132 29.3351 69.8628 28.7903C81.5768 43.0807 83.149 60.5351 73.2951 67.9527L73.0958 68.1203C81.9533 60.3465 79.6724 43.8979 67.7148 30.5294Z" fill="#89B3B7"/>
<path d="M67.7163 30.5294C68.4028 29.9218 69.1335 29.3351 69.8643 28.7903C81.5783 43.0807 83.1505 60.5351 73.2965 67.9527L73.0972 68.1203C81.9547 60.3465 79.6739 43.8979 67.7163 30.5294ZM67.2734 30.3199C79.4968 43.6884 81.9547 60.2837 73.0751 68.1203L73.2965 67.9318C83.2169 60.4513 81.5561 42.7664 69.5764 28.4341C68.7792 29.0417 68.0263 29.6703 67.2734 30.3199Z" fill="#D8B174"/>
<path d="M60.873 38.4499C61.9802 36.7527 63.2203 35.1183 64.571 33.6096C76.7501 45.5113 80.0495 60.3465 72.7642 68.4137L72.7199 68.4765C72.5649 68.6651 72.3878 68.9166 72.2549 69.1051C77.503 61.038 73.1185 48.382 60.873 38.4499Z" fill="#89B3B7"/>
<path d="M60.8732 38.45C61.9804 36.7527 63.2205 35.1183 64.5712 33.6097C76.7503 45.5114 80.0497 60.3466 72.7644 68.4137L72.7201 68.4766C72.5651 68.6652 72.3879 68.9166 72.2551 69.1052C77.5031 61.038 73.1187 48.382 60.8732 38.45ZM60.4082 38.3452C72.8973 48.2563 77.4589 60.9961 72.2108 69.1471C72.3437 68.9376 72.543 68.6861 72.698 68.4766L72.7644 68.3928C80.1825 60.2837 76.7945 45.1761 64.3719 33.1487C62.9104 34.7621 61.5818 36.5013 60.4082 38.3452Z" fill="#D8B174"/>
<path d="M56.334 48.0047C56.9762 46.0141 57.7733 44.1074 58.6812 42.2634C70.816 50.8125 75.7983 61.9808 71.8346 69.8385C71.6574 70.2366 71.436 70.7604 71.3031 71.1586L71.281 71.2214C73.6725 63.9505 68.1587 54.7518 56.334 48.0047Z" fill="#89B3B7"/>
<path d="M56.3335 48.0049C56.9757 46.0143 57.7728 44.1075 58.6807 42.2636C70.8155 50.8127 75.7978 61.981 71.8341 69.8386C71.6569 70.2367 71.4355 70.7606 71.3026 71.1587L71.2805 71.2215C73.672 63.9506 68.1582 54.7519 56.3335 48.0049ZM55.8906 47.9839C67.9589 54.6891 73.6277 63.9506 71.2583 71.2844L71.3026 71.1587C71.4576 70.7396 71.6791 70.1948 71.8562 69.7967C75.9085 61.8552 70.8155 50.4774 58.415 41.8445C57.4185 43.8141 56.5771 45.8676 55.8906 47.9839Z" fill="#D8B174"/>
<path d="M54.1641 58.8378C54.3412 56.6377 54.6734 54.5004 55.1162 52.426C66.6531 57.9578 72.4105 65.8573 70.8826 72.6044L70.6833 73.715L70.5504 74.9303C71.0819 69.0213 65.1916 62.7981 54.1641 58.8378Z" fill="#89B3B7"/>
<path d="M54.1642 58.838C54.3414 56.6378 54.6735 54.5006 55.1164 52.4262C66.6532 57.9579 72.4106 65.8575 70.8827 72.6045L70.6834 73.7151L70.5505 74.9304C71.082 69.0215 65.1918 62.7982 54.1642 58.838ZM53.7656 58.9008C65.0146 62.8192 71.0598 69.0424 70.5727 74.9933L70.7277 73.6941C70.7941 73.3379 70.8605 72.8769 70.9491 72.5207C72.5213 65.6689 66.6311 57.6227 54.8285 52.0071C54.2971 54.2491 53.9428 56.554 53.7656 58.9008Z" fill="#D8B174"/>
<path d="M54.4513 70.53C54.1635 68.2041 54.0085 65.8992 53.9863 63.6362C64.5932 66.5488 70.4612 71.6405 70.5055 76.8789V77.1094C70.5498 78.0104 70.6384 79.1839 70.727 80.0849C70.1955 75.7684 64.4381 72.1015 54.4513 70.53Z" fill="#89B3B7"/>
<path d="M54.4515 70.53C54.1636 68.2042 54.0086 65.8993 53.9865 63.6363C64.5933 66.5488 70.4614 71.6406 70.5057 76.879V77.1095C70.55 78.0105 70.6385 79.1839 70.7271 80.0849C70.1957 75.7685 64.4383 72.1016 54.4515 70.53ZM54.0972 70.6977C64.3054 72.1854 70.1735 75.8523 70.7271 80.2106C70.6385 79.2887 70.5278 78.0524 70.4835 77.1304V76.7952C70.4835 71.452 64.4383 66.2555 53.5879 63.301C53.61 65.7317 53.765 68.2042 54.0972 70.6977Z" fill="#D8B174"/>
<path d="M57.2644 82.746C56.4672 80.3573 55.8251 77.9686 55.3379 75.6008C61.8703 76.1875 69.5763 77.5076 71.1706 82.6622C71.4364 83.7309 71.7907 85.1557 72.1228 86.2034L72.2114 86.4967C71.2814 83.7099 66.0776 82.2012 57.2644 82.746Z" fill="#89B3B7"/>
<path d="M57.2646 82.7461C56.4674 80.3573 55.8252 77.9686 55.3381 75.6008C61.8705 76.1876 69.5765 77.5076 71.1708 82.6622C71.4365 83.7309 71.7908 85.1557 72.123 86.2034L72.2116 86.4968C71.2815 83.7099 66.0778 82.2013 57.2646 82.7461ZM56.9546 83.0185C65.9892 82.3689 71.3037 83.8357 72.2337 86.6434L72.1008 86.2244C71.7908 85.1348 71.3701 83.668 71.1265 82.5575C70.3515 78.7858 64.6606 75.999 54.873 75.3704C55.4266 77.8848 56.1131 80.4412 56.9546 83.0185Z" fill="#D8B174"/>
<path d="M62.6439 95.1086C61.3374 92.7199 60.2081 90.3311 59.1895 87.9215C67.5155 86.5595 72.4092 87.251 73.3171 89.4511L74.225 91.4836L75.3544 93.6837C74.6015 92.3008 70.217 92.6779 62.6439 95.1086Z" fill="#89B3B7"/>
<path d="M62.644 95.1086C61.3376 92.7199 60.2082 90.3312 59.1896 87.9215C67.5157 86.5595 72.4094 87.251 73.3173 89.4511L74.2252 91.4837L75.3545 93.6838C74.6016 92.3008 70.2172 92.678 62.644 95.1086ZM62.4226 95.4439C65.3456 94.5219 74.2252 91.6722 75.421 93.8305L74.2252 91.5046L73.2509 89.3254C72.6751 88.3616 71.1251 85.8052 58.7246 87.7539C59.8097 90.3312 61.0276 92.8875 62.4226 95.4439Z" fill="#D8B174"/>
<path d="M70.4608 106.948C68.7779 104.81 67.1614 102.568 65.6777 100.221C72.6973 97.0155 76.6389 95.9259 77.1925 96.785C78.0561 98.0422 79.2075 99.6976 80.1376 100.913C79.9826 100.724 76.6832 102.757 70.4608 106.948Z" fill="#89B3B7"/>
<path d="M70.461 106.947C68.778 104.81 67.1615 102.568 65.6779 100.221C72.6975 97.0154 76.639 95.9258 77.1926 96.7849C78.0562 98.0422 79.2077 99.6975 80.1377 100.913C79.9827 100.724 76.6833 102.757 70.461 106.947ZM70.3502 107.346C76.7498 102.987 80.0935 100.871 80.2485 101.059C79.2741 99.7604 78.012 98.0002 77.1041 96.6592C76.5505 95.7582 72.4539 96.8687 65.2129 100.138C66.8072 102.652 68.5123 105.062 70.3502 107.346Z" fill="#D8B174"/>
<path d="M79.939 117.152C77.9682 115.35 76.0638 113.443 74.248 111.452C79.9168 106.57 82.6848 103.93 82.4634 103.72C83.1498 104.433 84.0356 105.397 84.7442 106.088L85.9621 107.22C86.7593 107.911 84.7663 111.348 79.939 117.152Z" fill="#89B3B7"/>
<path d="M79.9385 117.152C77.9677 115.35 76.0633 113.443 74.2476 111.453C79.9163 106.57 82.6843 103.93 82.4629 103.721C83.1493 104.433 84.0351 105.397 84.7437 106.088L85.9616 107.22C86.7588 107.911 84.7658 111.348 79.9385 117.152ZM79.9163 117.571C84.8765 111.578 86.9138 108.037 86.0723 107.304L84.7437 106.067C84.0351 105.313 83.0386 104.349 82.3522 103.574C82.5514 103.784 79.6728 106.466 73.8047 111.453C75.7533 113.611 77.7906 115.664 79.9163 117.571Z" fill="#D8B174"/>
<path d="M90.6345 125.45C88.4645 124.025 86.3387 122.495 84.2793 120.861C88.4866 114.407 89.8595 110.468 88.5973 109.462L89.4388 110.111C90.3024 110.74 91.4539 111.578 92.3396 112.165C94.3768 113.485 93.9561 118.116 90.6345 125.45Z" fill="#89B3B7"/>
<path d="M90.6347 125.45C88.4646 124.025 86.3388 122.495 84.2795 120.861C88.4868 114.407 89.8597 110.468 88.5975 109.462L89.4389 110.112C90.3025 110.74 91.454 111.578 92.3398 112.165C94.377 113.485 93.9562 118.116 90.6347 125.45ZM90.7011 125.911C94.1113 118.367 94.5541 113.59 92.4505 112.249C91.5426 111.62 90.3025 110.782 89.4168 110.112L88.4646 109.357C89.7268 110.363 88.2875 114.386 83.8809 120.986C86.1174 122.768 88.376 124.402 90.7011 125.911Z" fill="#D8B174"/>
<path d="M102.171 131.715C99.8898 130.709 97.6312 129.577 95.3947 128.341C98.0076 120.379 97.6976 115.287 95.0625 113.82C96.1475 114.386 97.6312 115.14 98.7384 115.664C102.281 117.194 103.721 122.872 102.171 131.715Z" fill="#89B3B7"/>
<path d="M102.172 131.715C99.8912 130.709 97.6325 129.577 95.396 128.341C98.009 120.379 97.6989 115.287 95.0638 113.82C96.1489 114.386 97.6325 115.14 98.7397 115.664C102.283 117.194 103.722 122.872 102.172 131.715ZM102.327 132.176C103.943 123.124 102.482 117.278 98.8726 115.727C97.6768 115.161 96.1046 114.386 94.9531 113.778C97.5882 115.245 97.8318 120.463 95.086 128.572C97.4554 129.892 99.869 131.107 102.327 132.176Z" fill="#D8B174"/>
<path d="M114.107 135.738C111.782 135.193 109.457 134.502 107.132 133.684C107.885 124.213 105.515 118.137 101.264 116.67C101.906 116.879 102.747 117.152 103.389 117.34L104.541 117.634C109.833 118.87 113.598 125.387 114.107 135.738Z" fill="#89B3B7"/>
<path d="M114.106 135.738C111.781 135.193 109.456 134.502 107.131 133.684C107.884 124.213 105.515 118.137 101.263 116.67C101.905 116.88 102.747 117.152 103.389 117.341L104.54 117.634C109.833 118.87 113.597 125.387 114.106 135.738ZM114.35 136.178C113.885 125.575 110.032 118.891 104.629 117.655L103.389 117.341C102.725 117.131 101.817 116.859 101.152 116.628C105.426 118.137 107.751 124.318 106.888 133.978C109.368 134.858 111.848 135.591 114.35 136.178Z" fill="#D8B174"/>
<path d="M126.041 137.351C123.76 137.288 121.435 137.058 119.11 136.723C117.627 125.764 112.711 118.975 106.621 118.053L107.153 118.137C107.75 118.2 108.525 118.263 109.123 118.304C119.243 119.226 123.915 129.179 126.041 137.351Z" fill="#89B3B7"/>
<path d="M126.043 137.351C123.762 137.288 121.437 137.058 119.112 136.723C117.628 125.764 112.713 118.975 106.623 118.053L107.155 118.137C107.752 118.2 108.527 118.262 109.125 118.304C119.245 119.226 123.917 129.179 126.043 137.351ZM126.375 137.749C122.057 122.202 114.683 118.577 109.236 118.283C108.616 118.242 107.797 118.179 107.177 118.116L106.557 118.032C112.668 118.975 117.584 125.911 118.957 137.079C121.437 137.456 123.917 137.687 126.375 137.749Z" fill="#D8B174"/>
<path d="M137.624 136.387C135.454 136.827 133.217 137.121 130.981 137.267C126.796 124.884 118.669 117.739 110.697 118.262C111.207 118.221 111.871 118.137 112.358 118.053C126.929 115.958 135.365 131.568 137.624 136.387Z" fill="#89B3B7"/>
<path d="M137.623 136.387C135.453 136.827 133.216 137.121 130.98 137.267C126.794 124.884 118.668 117.739 110.696 118.262C111.205 118.221 111.87 118.137 112.357 118.053C126.927 115.958 135.364 131.568 137.623 136.387ZM137.999 136.744C128.234 116.712 115.922 117.361 112.379 118.053C111.272 118.242 111.272 118.241 110.607 118.283C118.623 117.801 126.772 125.093 130.869 137.707C133.283 137.54 135.674 137.226 137.999 136.744Z" fill="#D8B174"/>
<path d="M148.34 132.7C147.565 133.098 146.746 133.475 145.926 133.81C144.708 134.334 143.491 134.774 142.228 135.172C134.744 121.657 122.675 114.763 113.176 117.822C113.353 117.76 113.597 117.676 113.774 117.592L114.084 117.445C124.048 112.458 138.707 118.807 148.34 132.7Z" fill="#89B3B7"/>
<path d="M148.341 132.699C147.566 133.098 146.746 133.475 145.927 133.81C144.709 134.334 143.491 134.774 142.229 135.172C134.744 121.657 122.676 114.763 113.176 117.822C113.354 117.759 113.597 117.676 113.774 117.592L114.084 117.445C124.049 112.458 138.708 118.807 148.341 132.699ZM148.784 132.972C139.085 118.807 124.16 112.353 114.129 117.466L113.796 117.613C113.597 117.676 113.354 117.78 113.154 117.843C122.72 114.805 134.833 121.866 142.251 135.633C143.58 135.214 144.886 134.732 146.171 134.187C147.056 133.81 147.942 133.391 148.784 132.972Z" fill="#D8B174"/>
<path d="M154.341 128.991C153.699 129.473 153.035 129.955 152.348 130.395C141.099 116.398 124.513 110.656 114.549 117.215L114.726 117.089C124.58 109.672 142.228 115.015 154.341 128.991Z" fill="#89B3B7"/>
<path d="M154.342 128.991C153.7 129.473 153.035 129.955 152.349 130.395C141.1 116.398 124.514 110.656 114.549 117.215L114.727 117.089C124.581 109.671 142.229 115.015 154.342 128.991ZM154.63 129.326C142.517 115.098 124.669 109.609 114.727 117.089L114.527 117.236C124.581 110.698 141.277 116.607 152.46 130.856C153.19 130.374 153.921 129.85 154.63 129.326Z" fill="#D8B174"/>
</g>
<defs>
<clipPath id="clip0_820_13164">
<rect width="188" height="185" fill="white"/>
</clipPath>
</defs>
</svg>
