<svg width="212" height="212" viewBox="0 0 212 212" fill="none" xmlns="http://www.w3.org/2000/svg">
<g opacity="0.1" clip-path="url(#clip0_820_13351)">
<path d="M171.19 22.4219C173.444 24.2805 176.41 26.8114 178.584 28.7491C172.534 23.0942 158.97 25.4669 139.514 37.1722C139.514 37.1722 139.475 37.1722 139.475 37.1326C155.728 23.4896 166.681 18.8629 171.19 22.4219Z" fill="#86B3BA"/>
<path d="M171.188 22.422C173.442 24.2806 176.408 26.8115 178.583 28.7492C172.533 23.0943 158.969 25.467 139.513 37.1723C139.513 37.1723 139.473 37.1723 139.473 37.1327C155.726 23.4897 166.68 18.863 171.188 22.422ZM170.951 22.2243C166.443 18.7048 155.528 23.4502 139.275 37.2909C158.929 25.5065 172.612 23.1338 178.702 28.8679C176.408 26.8511 173.323 24.162 170.951 22.2243Z" fill="#86B3BA"/>
<path d="M158.217 13.7616L159.008 14.1966C161.065 15.4621 163.793 17.1229 165.81 18.4675C162.488 16.1343 153.472 22.1847 139.473 37.1326C139.473 37.1326 139.434 37.1326 139.434 37.0931C144.654 29.2632 155.607 12.8916 158.217 13.7616Z" fill="#86B3BA"/>
<path d="M158.217 13.7616L159.008 14.1966C161.065 15.462 163.793 17.1229 165.81 18.4674C162.488 16.1343 153.472 22.1846 139.473 37.1326C139.473 37.1326 139.434 37.1326 139.434 37.0931C144.653 29.2632 155.607 12.8916 158.217 13.7616ZM157.941 13.6034C156.477 12.773 150.19 20.6028 139.275 37.3303C153.472 22.3033 162.646 16.2924 166.047 18.6651C163.951 17.3206 161.144 15.5016 159.008 14.1966L157.941 13.6034Z" fill="#86B3BA"/>
<path d="M144.655 7.31592L148.728 9.01635L152.603 10.7959C152.524 10.7168 148.135 19.4562 139.356 37.0932H139.316C145.05 17.993 146.672 8.06727 144.655 7.31592Z" fill="#86B3BA"/>
<path d="M144.653 7.3159L148.727 9.01633L152.602 10.7958C152.523 10.7168 148.133 19.4562 139.354 37.0932H139.315C145.049 17.993 146.67 8.06725 144.653 7.3159ZM144.416 7.19727C146.512 7.94862 144.97 18.0326 139.275 37.3305C148.173 19.5748 152.721 10.8354 152.879 10.9145L148.766 8.97678L144.416 7.19727Z" fill="#86B3BA"/>
<path d="M130.182 2.80762C132.554 3.44034 135.718 4.27078 138.051 4.98258L138.763 5.21985C142.322 6.36666 142.796 17.0833 139.316 37.093H139.277C139.593 15.6992 136.074 4.15214 130.182 2.80762Z" fill="#86B3BA"/>
<path d="M130.181 2.80785C132.554 3.44057 135.717 4.27101 138.051 4.98282L138.762 5.22009C142.321 6.36689 142.796 17.0835 139.316 37.0933H139.276C139.593 15.6995 136.073 4.15237 130.181 2.80785ZM129.904 2.72876C132.554 3.79647 139.553 6.68325 139.316 37.3305C142.915 17.1626 142.559 6.40643 139.039 5.29918L138.051 4.98282C135.599 4.27101 132.356 3.32193 129.904 2.72876Z" fill="#86B3BA"/>
<path d="M114.244 0.316162C117.091 0.632521 120.848 1.06751 123.695 1.50251C131.328 2.76794 137.18 14.7896 139.276 37.0533H139.237C133.661 13.5637 124.407 1.1466 114.244 0.316162Z" fill="#86B3BA"/>
<path d="M114.244 0.316162C117.091 0.632521 120.848 1.06751 123.695 1.50251C131.327 2.76794 137.18 14.7896 139.276 37.0533H139.236C133.661 13.5637 124.407 1.1466 114.244 0.316162ZM113.928 0.316162C124.209 1.10706 133.582 13.6428 139.276 37.3302C137.299 14.9082 131.604 2.84703 123.972 1.54205C121.046 1.10706 117.17 0.592976 114.244 0.316162H113.928Z" fill="#86B3BA"/>
<path d="M96.1719 0.434994L100.72 0.118635L106.928 0C120.65 1.38407 130.022 12.1007 139.197 37.0535H139.157C126.859 11.5076 110.962 -0.988622 96.1719 0.434994Z" fill="#86B3BA"/>
<path d="M96.1728 0.434993L100.72 0.118635L106.929 0C120.651 1.38407 130.023 12.1007 139.198 37.0535H139.158C126.86 11.5076 110.963 -0.988621 96.1728 0.434993ZM95.7773 0.474538C110.725 -1.02817 126.82 11.5471 139.277 37.3303C131.13 12.773 119.307 0.118635 107.245 0C105.268 0.0395449 102.658 0.0395449 100.72 0.118635L95.7773 0.474538Z" fill="#86B3BA"/>
<path d="M75.5293 4.42892C78.5743 3.63802 82.6078 2.57031 85.6923 1.93759L87.9068 1.54214C104.634 -1.38418 123.695 10.7165 139.117 37.0534H139.078C118.87 9.68838 94.9063 -1.42372 75.5293 4.42892Z" fill="#86B3BA"/>
<path d="M75.5302 4.42891C78.5752 3.63801 82.6087 2.5703 85.6932 1.93758L87.9078 1.54214C104.635 -1.38418 123.696 10.7165 139.118 37.0534H139.079C118.871 9.68838 94.9072 -1.42373 75.5302 4.42891ZM75.1348 4.54754C94.6304 -1.46327 118.871 9.72792 139.277 37.2907C123.973 10.7956 104.991 -1.42373 88.2637 1.4235L85.6932 1.89804C82.5297 2.68894 78.2984 3.67756 75.1348 4.54754Z" fill="#86B3BA"/>
<path d="M52.7129 14.3548C56.7069 12.2194 62.085 9.56988 66.2372 7.75082C87.2751 -0.830414 115.075 9.13489 139.079 37.0931H139.039C109.302 8.66035 75.6489 0.988649 52.7129 14.3548Z" fill="#86B3BA"/>
<path d="M52.7123 14.3548C56.7064 12.2193 62.0845 9.56983 66.2367 7.75077C87.2746 -0.830471 115.075 9.13484 139.078 37.0931H139.039C109.301 8.6603 75.6484 0.988594 52.7123 14.3548ZM52.2773 14.592C75.2925 1.06768 109.301 8.69984 139.276 37.3303C115.431 9.25347 87.7095 -0.90956 66.6717 7.55304C57.1809 11.7448 57.0227 11.8239 52.2773 14.592Z" fill="#86B3BA"/>
<path d="M29.9746 32.0708L33.7709 28.3536C36.4204 26.06 39.9795 23.015 42.7871 20.8796C66.4745 3.24262 104.794 8.50209 139.039 37.093C139.039 37.093 139.039 37.093 139 37.1326C98.3872 8.93708 53.5038 7.86937 29.9746 32.0708Z" fill="#86B3BA"/>
<path d="M29.9736 32.071L33.7699 28.3538C36.4194 26.0602 39.9784 23.0152 42.7861 20.8798C66.4735 3.24277 104.792 8.50224 139.038 37.0932C139.038 37.0932 139.038 37.0932 138.999 37.1327C98.3862 8.93723 53.5028 7.86952 29.9736 32.071ZM29.5781 32.4664C53.1073 7.98815 98.3862 8.93723 139.276 37.3304C105.188 8.54178 66.948 3.08459 43.2606 20.5239C40.3739 22.8175 36.5776 25.8624 33.8094 28.3142L29.5781 32.4664Z" fill="#86B3BA"/>
<path d="M11.9414 57.0237C13.8396 53.6624 16.4495 49.2334 18.5454 45.9907L21.6299 41.7198C43.9728 12.3776 93.7202 9.64895 138.999 37.1326C138.999 37.1326 138.999 37.1326 138.999 37.1722C87.393 11.4285 31.0416 20.3656 11.9414 57.0237Z" fill="#86B3BA"/>
<path d="M11.9423 57.0238C13.8405 53.6625 16.4505 49.2335 18.5463 45.9908L21.6308 41.7199C43.9737 12.3777 93.7211 9.64905 139 37.1327C139 37.1327 139 37.1327 139 37.1723C87.394 11.4286 31.0425 20.3657 11.9423 57.0238ZM11.7051 57.5774C30.6471 20.5634 87.4335 11.4681 139.277 37.3305C94.1561 9.60951 44.4482 12.0613 21.9867 41.285L18.5859 45.9908C16.4109 49.4312 13.6032 54.0184 11.7051 57.5774Z" fill="#86B3BA"/>
<path d="M1.89648 85.8517L2.76647 81.8577C3.83418 77.9427 5.33689 72.7623 6.68141 68.966C7.27459 67.3447 7.98639 65.7629 8.73774 64.1811C27.0866 26.2971 85.3361 14.2755 138.959 37.172C138.959 37.172 138.959 37.172 138.959 37.2115C84.0312 18.9023 24.7139 34.6806 6.36505 72.5251C4.26918 76.875 2.76647 81.3436 1.89648 85.8517Z" fill="#86B3BA"/>
<path d="M1.89745 85.852L2.76744 81.858C3.83515 77.9431 5.33785 72.7627 6.68238 68.9664C7.27555 67.345 7.98736 65.7632 8.73871 64.1814C27.0875 26.2975 85.3371 14.2758 138.96 37.1723C138.96 37.1723 138.96 37.1723 138.96 37.2118C84.0321 18.9026 24.7148 34.681 6.36602 72.5254C4.27014 76.8753 2.76744 81.3439 1.89745 85.852ZM1.81836 86.4057C2.68835 81.8184 4.19105 77.2312 6.32647 72.8022C24.7148 34.8787 84.2299 18.9817 139.276 37.3305C85.6139 14.0781 27.2062 25.9416 8.8178 63.8651C8.10599 65.3678 7.43373 66.8705 6.8801 68.3732C5.53558 72.4068 3.83515 77.7849 2.76744 81.858L1.81836 86.4057Z" fill="#86B3BA"/>
<path d="M0.276098 113.731C0.157463 110.726 -0.0402608 106.732 -0.00071598 103.726L0.276098 97.8736C7.78962 42.8667 79.3658 21.7892 138.92 37.2513V37.2908C83.5576 27.4046 23.8844 50.0243 5.53556 87.8687C1.34381 96.5686 -0.35662 105.308 0.276098 113.731Z" fill="#86B3BA"/>
<path d="M0.276098 113.731C0.157463 110.726 -0.0402608 106.732 -0.00071598 103.726L0.276098 97.8736C7.78962 42.8667 79.3658 21.7893 138.92 37.2513V37.2908C83.5576 27.4046 23.8844 50.0243 5.53556 87.8687C1.34381 96.5686 -0.35662 105.308 0.276098 113.731ZM0.315643 114.245C-0.317075 105.743 1.34381 96.9245 5.57511 88.1455C23.9635 50.222 83.8344 27.4837 139.276 37.3304C62.6779 18.7443 4.58649 54.0183 0.315643 97.3199L-0.00071598 103.726C0.0388289 106.89 0.0783738 111.082 0.315643 114.245Z" fill="#86B3BA"/>
<path d="M4.98267 138.13C3.87541 134.097 2.49134 128.679 1.62136 124.606C-0.0790732 115.115 1.38409 104.913 6.40628 94.5518C24.7551 56.6678 84.0329 31.0823 138.961 37.2908V37.3304C85.3378 36.3022 27.0882 66.0795 8.73943 103.924C2.76816 116.262 1.73999 127.928 4.98267 138.13Z" fill="#86B3BA"/>
<path d="M4.98279 138.13C3.87554 134.097 2.49147 128.679 1.62148 124.606C-0.0789477 115.115 1.38421 104.913 6.40641 94.5518C24.7552 56.6679 84.033 31.0823 138.961 37.2909V37.3304C85.3379 36.3022 27.0884 66.0795 8.73956 103.924C2.76828 116.262 1.74012 127.928 4.98279 138.13ZM5.10143 138.565C-8.02746 86.2079 69.5596 37.1722 139.277 37.3304C84.2702 30.8451 24.7157 56.312 6.32732 94.2355C1.34467 104.517 -0.0789475 114.68 1.54239 124.131C2.45192 128.481 3.87554 134.255 5.10143 138.565Z" fill="#86B3BA"/>
<path d="M13.6416 158.061L12.8507 156.677C11.3875 153.79 9.48939 149.954 8.18441 146.988C3.95311 136.786 4.62537 124.408 11.2294 110.805C29.5782 72.9603 86.7205 40.138 138.92 37.3699V37.4094C89.3305 45.3579 34.284 82.3719 15.9352 120.216C8.57985 135.402 8.22395 148.412 13.6416 158.061Z" fill="#86B3BA"/>
<path d="M13.6416 158.061L12.8507 156.677C11.3875 153.79 9.48939 149.954 8.18441 146.988C3.95311 136.786 4.62537 124.408 11.2294 110.805C29.5782 72.9603 86.7205 40.138 138.92 37.3699V37.4094C89.3305 45.3579 34.284 82.3719 15.9352 120.216C8.57986 135.402 8.22395 148.412 13.6416 158.061ZM13.8393 158.377C8.38213 148.768 8.73804 135.757 16.0934 120.533C34.4817 82.6092 89.6468 45.3579 139.276 37.3303C55.0451 43.6575 -8.10808 106.257 8.06577 146.593C9.44984 149.638 11.348 153.671 12.8902 156.677L13.8393 158.377Z" fill="#86B3BA"/>
<path d="M24.517 173.8L20.9579 169.292L17.9525 165.06C-4.07396 125.278 71.2985 54.9673 138.999 37.4094C138.999 37.4094 138.999 37.449 139.039 37.449C64.4573 68.294 3.83501 148.57 24.517 173.8Z" fill="#86B3BA"/>
<path d="M24.5163 173.8L20.9573 169.292L17.9519 165.06C-4.0746 125.278 71.2979 54.9673 138.999 37.4094C138.999 37.4094 138.999 37.449 139.038 37.449C64.4566 68.294 3.83437 148.57 24.5163 173.8ZM24.7536 174.037C3.04348 141.926 77.111 61.6109 139.276 37.3303C91.7426 48.7588 38.3175 88.7782 19.9291 126.702C12.1388 142.757 11.862 155.886 17.7937 164.783L20.9968 169.292L24.7536 174.037Z" fill="#86B3BA"/>
<path d="M36.9349 186.375L33.2572 183.093L29.54 179.415C23.6083 173.167 24.2805 160.592 32.9013 142.757C51.2501 104.912 98.704 57.8146 139 37.449C103.845 62.639 60.5036 113.612 42.1548 151.457C33.1781 169.964 31.8336 181.946 36.9349 186.375Z" fill="#86B3BA"/>
<path d="M36.9349 186.375L33.2573 183.093L29.5401 179.415C23.6083 173.167 24.2806 160.592 32.9014 142.757C51.2502 104.912 98.704 57.8146 139 37.449C103.845 62.639 60.5037 113.612 42.1549 151.457C33.1782 169.964 31.8337 181.946 36.9349 186.375ZM37.1722 186.612C32.1105 182.223 33.455 170.28 42.4712 151.734C60.8596 113.81 104.201 62.5995 139.317 37.3303C98.8227 57.4982 51.092 104.557 32.7036 142.48C24.0829 160.275 23.4501 172.89 29.3819 179.178L33.3364 183.093L37.1722 186.612Z" fill="#86B3BA"/>
<path d="M49.8259 195.905C47.7695 194.561 45.0409 192.742 43.0241 191.278L42.3123 190.725C38.1206 187.561 40.0978 176.133 49.2722 157.191C67.621 119.346 107.799 65.8026 139.079 37.4885C139.079 37.4885 139.118 37.4885 139.118 37.5281C113.572 69.7967 78.0609 126.504 59.7121 164.348C50.419 183.607 47.295 194.244 49.8259 195.905Z" fill="#86B3BA"/>
<path d="M49.8257 195.905C47.7693 194.561 45.0407 192.742 43.024 191.279L42.3121 190.725C38.1204 187.561 40.0976 176.133 49.272 157.191C67.6209 119.346 107.798 65.8026 139.078 37.4885C139.078 37.4885 139.118 37.4885 139.118 37.528C113.572 69.7967 78.0607 126.504 59.7119 164.348C50.4188 183.607 47.2948 194.244 49.8257 195.905ZM50.0629 196.024C47.5716 194.442 50.7352 183.805 60.0678 164.546C78.4561 126.623 113.928 69.6385 139.276 37.2908C107.798 65.4467 67.344 119.03 48.9557 156.954C39.7813 175.856 37.8436 187.324 42.0749 190.567L43.024 191.279C45.1594 192.742 47.9275 194.679 50.0629 196.024Z" fill="#86B3BA"/>
<path d="M63.1523 202.944C60.7796 201.837 57.6555 200.334 55.3224 199.108C54.1756 198.436 58.1696 188.313 67.5418 168.936C85.8906 131.091 117.922 72.3276 139.118 37.5281H139.158C124.13 75.3725 97.1213 136.588 78.7725 174.432C69.4004 193.849 64.1014 203.34 63.1523 202.944Z" fill="#86B3BA"/>
<path d="M63.153 202.944C60.7803 201.837 57.6563 200.334 55.3231 199.108C54.1763 198.436 58.1703 188.313 67.5425 168.936C85.8913 131.091 117.923 72.3275 139.119 37.528H139.158C124.131 75.3725 97.122 136.588 78.7732 174.432C69.4011 193.849 64.1021 203.34 63.153 202.944ZM63.4298 203.063C64.4184 203.498 69.7965 194.007 79.2082 174.63C97.5966 136.707 124.487 75.2538 139.316 37.3303C117.883 71.9716 85.6145 130.814 67.2261 168.738C57.854 188.115 53.8995 198.278 55.1254 198.95C57.5376 200.176 60.7803 201.837 63.2321 202.944L63.4298 203.063Z" fill="#86B3BA"/>
<path d="M77.3093 208.006L73.9084 206.978L68.9258 205.277C71.4567 206.187 77.7047 197.052 87.0769 177.794C105.465 139.989 128.757 77.2707 139.237 37.5676H139.276C135.243 79.3666 117.131 143.785 98.7822 181.63C89.5682 200.611 82.0547 209.311 77.3093 208.006Z" fill="#86B3BA"/>
<path d="M77.3102 208.006L73.9094 206.978L68.9267 205.277C71.4576 206.187 77.7057 197.052 87.0778 177.794C105.466 139.989 128.758 77.2706 139.238 37.5676H139.277C135.243 79.3665 117.132 143.785 98.7831 181.629C89.5692 200.611 82.0556 209.311 77.3102 208.006ZM77.5871 208.085C82.372 209.39 89.9251 200.69 99.139 181.709C117.527 143.785 135.481 79.1292 139.277 37.2908C128.639 76.8752 105.11 139.712 86.7219 177.635C77.3893 196.894 71.1412 206.029 68.6895 205.159L73.9094 206.978L77.5871 208.085Z" fill="#86B3BA"/>
<path d="M92.8116 211.13C90.5576 210.774 87.5917 210.339 85.3772 209.944L83.5977 209.588C89.8062 210.893 98.1502 202.43 107.206 183.725C125.555 145.881 139.91 80.5133 139.277 37.5676H139.316C146.395 81.6206 137.26 147.858 118.911 185.703C110.172 203.775 100.918 212.119 92.8116 211.13Z" fill="#86B3BA"/>
<path d="M92.8106 211.13C90.5565 210.774 87.5907 210.339 85.3762 209.944L83.5966 209.588C89.8052 210.893 98.1492 202.43 107.205 183.725C125.554 145.881 139.909 80.5133 139.276 37.5676H139.315C146.394 81.6206 137.259 147.858 118.91 185.703C110.171 203.775 100.917 212.119 92.8106 211.13ZM93.127 211.17C101.273 212.119 110.566 203.814 119.345 185.782C137.734 147.858 146.671 81.3833 139.315 37.3303C139.79 80.2365 125.277 145.723 106.889 183.646C97.8328 202.351 89.5284 210.853 83.3594 209.509L85.4157 209.944C87.6698 210.339 90.7543 210.893 93.127 211.17Z" fill="#86B3BA"/>
<path d="M110.093 211.921C107.008 211.96 102.856 211.921 99.7715 211.802C108.985 212.316 118.793 204.052 127.255 186.533C145.604 148.689 150.982 82.0951 139.316 37.6072H139.356C157.27 82.1742 156.953 148.807 138.605 186.652C130.616 203.182 120.493 211.486 110.093 211.921Z" fill="#86B3BA"/>
<path d="M110.092 211.921C107.008 211.96 102.855 211.921 99.771 211.802C108.985 212.316 118.792 204.051 127.255 186.533C145.603 148.689 150.982 82.0951 139.316 37.6071H139.355C157.269 82.1742 156.953 148.807 138.604 186.652C130.616 203.181 120.492 211.486 110.092 211.921ZM110.448 211.881C150.863 206.661 167.037 108.788 139.316 37.3303C150.863 81.7787 145.327 148.57 126.938 186.494C118.436 204.051 108.669 212.316 99.4941 211.763C102.737 211.881 107.166 212.119 110.448 211.881Z" fill="#86B3BA"/>
<path d="M129.945 209.271L126.267 210.062C123.815 210.458 120.612 211.011 118.16 211.328C128.956 210.062 139.04 201.718 146.632 186.098C164.981 148.254 161.739 81.8579 139.435 37.6467H139.475C167.67 80.8693 175.619 146.474 157.27 184.319C150.389 198.436 140.78 206.741 129.945 209.271Z" fill="#86B3BA"/>
<path d="M129.944 209.271L126.266 210.062C123.814 210.458 120.611 211.011 118.159 211.328C128.955 210.062 139.039 201.718 146.631 186.098C164.98 148.254 161.738 81.8578 139.434 37.6467H139.474C167.669 80.8692 175.618 146.474 157.269 184.319C150.388 198.436 140.779 206.741 129.944 209.271ZM130.339 209.153C141.135 206.582 150.744 198.317 157.585 184.16C175.974 146.237 167.788 80.5133 139.276 37.3303C161.5 81.581 164.624 148.175 146.236 186.098C138.643 201.758 128.559 210.102 117.764 211.328C120.295 210.972 123.735 210.497 126.266 210.023L130.339 209.153Z" fill="#86B3BA"/>
<path d="M152.326 201.323C149.479 202.588 145.722 204.289 142.835 205.396L139.039 206.741C149.36 203.34 158.297 195.193 164.585 182.223C182.934 144.378 171.703 79.6829 139.514 37.5676H139.553C177.002 77.5475 192.504 140.542 174.155 178.387C168.816 189.301 161.263 196.933 152.326 201.323Z" fill="#86B3BA"/>
<path d="M152.326 201.323C149.478 202.588 145.722 204.289 142.835 205.396L139.039 206.741C149.36 203.34 158.297 195.193 164.585 182.223C182.933 144.378 171.703 79.6829 139.513 37.5676H139.553C177.002 77.5475 192.503 140.542 174.154 178.387C168.816 189.301 161.263 196.933 152.326 201.323ZM152.761 201.125C161.658 196.736 169.132 189.104 174.392 178.268C192.78 140.345 177.041 77.2706 139.276 37.3699C184.594 100.325 184.238 189.064 138.604 206.899L142.835 205.436C145.84 204.17 149.834 202.549 152.761 201.125Z" fill="#86B3BA"/>
<path d="M175.5 186.059C166.879 192.939 166.879 192.939 162.054 195.984C169.647 191.239 175.974 184.24 180.482 174.907C198.831 137.062 180.482 75.6493 139.514 37.5676C139.514 37.5676 139.514 37.5676 139.553 37.5676C184.832 72.4462 206.661 131.289 188.273 169.173C185.03 175.935 180.68 181.55 175.5 186.059Z" fill="#86B3BA"/>
<path d="M175.498 186.059C166.878 192.939 166.878 192.939 162.053 195.984C169.646 191.239 175.973 184.24 180.481 174.907C198.83 137.062 180.481 75.6493 139.513 37.5676C139.513 37.5676 139.513 37.5676 139.552 37.5676C184.831 72.4462 206.66 131.289 188.271 169.173C185.029 175.935 180.679 181.55 175.498 186.059ZM175.894 185.703C180.995 181.234 185.266 175.658 188.509 168.975C206.897 131.052 184.871 72.1298 139.275 37.3303C180.283 75.4911 198.593 137.142 180.204 175.065C175.657 184.477 169.25 191.516 161.579 196.261C170.199 190.488 171.109 189.894 175.894 185.703Z" fill="#86B3BA"/>
<path d="M195.311 163.083L193.412 165.97C190.842 169.45 187.283 173.997 184.475 177.28C187.837 173.562 190.723 169.292 193.056 164.507C211.405 126.662 187.481 69.8758 139.592 37.4885C139.592 37.4885 139.592 37.4885 139.592 37.449C190.447 65.9213 216.823 119.544 198.474 157.389C197.525 159.405 196.457 161.303 195.311 163.083Z" fill="#86B3BA"/>
<path d="M195.312 163.083L193.414 165.97C190.843 169.45 187.284 173.997 184.477 177.28C187.838 173.562 190.725 169.292 193.058 164.507C211.407 126.662 187.482 69.8757 139.593 37.4885C139.593 37.4885 139.593 37.4885 139.593 37.449C190.448 65.9213 216.824 119.544 198.476 157.389C197.526 159.405 196.459 161.303 195.312 163.083ZM195.628 162.608C196.696 160.908 197.724 159.089 198.634 157.23C217.022 119.307 190.448 65.6444 139.316 37.3303C187.284 69.7571 211.249 126.82 192.86 164.744C190.487 169.608 187.522 173.958 184.081 177.715C187.008 174.274 190.764 169.608 193.414 165.97L195.628 162.608Z" fill="#86B3BA"/>
<path d="M208.004 134.848C204.643 145.09 204.445 145.723 201.677 151.615C219.67 113.81 191.989 62.8368 139.592 37.4885C139.592 37.4885 139.592 37.4885 139.592 37.449C189.616 56.7864 218.247 98.7435 208.004 134.848Z" fill="#86B3BA"/>
<path d="M208.006 134.848C204.645 145.09 204.447 145.723 201.679 151.615C219.672 113.81 191.99 62.8368 139.593 37.4885C139.593 37.4885 139.593 37.4885 139.593 37.449C189.617 56.7864 218.248 98.7435 208.006 134.848ZM208.164 134.294C218.525 86.8405 177.517 52.3969 139.316 37.3303C191.951 62.8368 219.751 114.206 201.441 152.129C205.04 143.785 206.701 139.989 208.164 134.294Z" fill="#86B3BA"/>
<path d="M211.998 106.217L211.959 108.234C211.682 112.584 211.208 118.358 210.654 122.708C216.151 88.6991 187.441 52.7528 139.592 37.4094C139.592 37.4094 139.592 37.4094 139.592 37.3699C184.001 47.5724 212.078 75.8866 211.998 106.217Z" fill="#86B3BA"/>
<path d="M211.998 106.217L211.959 108.234C211.682 112.584 211.208 118.358 210.654 122.708C216.151 88.6991 187.441 52.7528 139.592 37.4094C139.592 37.4094 139.592 37.4094 139.592 37.3699C184.001 47.5724 212.077 75.8866 211.998 106.217ZM211.998 105.703C209.072 56.7073 155.607 40.9684 139.275 37.2908C187.441 52.7133 216.269 89.0155 210.575 123.222C211.128 118.753 211.722 112.742 211.959 108.234L211.998 105.703Z" fill="#86B3BA"/>
<path d="M208.955 80.7506L210.497 88.1059L211.446 95.1449C208.678 67.7403 181.432 44.2902 139.633 37.4094V37.3699C177.635 40.0985 203.3 57.5378 208.955 80.7506Z" fill="#86B3BA"/>
<path d="M208.953 80.7506L210.496 88.1059L211.445 95.1449C208.677 67.7403 181.43 44.2902 139.631 37.4094V37.3699C177.634 40.0985 203.299 57.5377 208.953 80.7506ZM208.835 80.3156C203.101 57.1818 177.357 39.9007 139.275 37.3303C181.391 44.2902 208.795 67.9776 211.484 95.6194L210.456 88.1059C209.982 85.7332 209.428 82.6092 208.835 80.3156Z" fill="#86B3BA"/>
<path d="M201.242 59.4754C202.705 62.7181 204.564 67.068 205.829 70.3898L206.106 71.1807C196.774 49.0751 174.391 37.6862 139.592 37.3303V37.2907C171.188 34.1667 193.333 43.1829 201.242 59.4754Z" fill="#86B3BA"/>
<path d="M201.242 59.4756C202.705 62.7183 204.564 67.0683 205.829 70.39L206.106 71.1809C196.774 49.0754 174.391 37.6864 139.592 37.3305V37.291C171.188 34.1669 193.333 43.1832 201.242 59.4756ZM201.084 59.1197C193.136 42.8668 170.911 34.0088 139.275 37.3305C174.826 37.4887 199.305 51.2503 206.264 71.6159L205.829 70.39C204.485 66.9892 202.666 62.4415 201.084 59.1197Z" fill="#86B3BA"/>
<path d="M190.842 42.4317L191.001 42.6689C192.899 45.3975 195.39 49.0752 197.17 51.8829C189.063 38.1608 168.579 32.0709 139.592 37.2513C139.592 37.2513 139.592 37.2117 139.553 37.2117C164.98 29.4609 183.013 32.0314 190.842 42.4317Z" fill="#86B3BA"/>
<path d="M190.843 42.4316L191.002 42.6689C192.9 45.3975 195.391 49.0752 197.171 51.8828C189.064 38.1608 168.58 32.0709 139.593 37.2512C139.593 37.2512 139.593 37.2117 139.554 37.2117C164.981 29.4609 183.013 32.0313 190.843 42.4316ZM190.646 42.1944C182.855 31.8336 164.744 29.3818 139.316 37.3303C168.54 32.1104 189.222 38.3585 197.329 52.1992C195.47 49.3124 192.979 45.4766 191.002 42.6689L190.646 42.1944Z" fill="#86B3BA"/>
<path d="M178.821 28.9865C181.036 31.201 183.962 34.2064 186.058 36.5395C176.963 27.8397 163.043 28.0374 139.553 37.2118C139.553 37.2118 139.553 37.1723 139.514 37.1723C159.088 25.5461 172.731 23.2525 178.821 28.9865Z" fill="#86B3BA"/>
<path d="M178.82 28.9864C181.035 31.2009 183.961 34.2063 186.057 36.5395C176.962 27.8396 163.042 28.0373 139.552 37.2117C139.552 37.2117 139.552 37.1722 139.513 37.1722C159.087 25.546 172.73 23.2524 178.82 28.9864ZM178.702 28.8678C172.612 23.1338 158.929 25.5065 139.275 37.2908C162.528 27.721 179.018 28.2351 186.255 36.7767C184.04 34.3645 181.074 31.1614 178.702 28.8678Z" fill="#86B3BA"/>
</g>
<defs>
<clipPath id="clip0_820_13351">
<rect width="212" height="212" fill="white"/>
</clipPath>
</defs>
</svg>
