<svg xmlns="http://www.w3.org/2000/svg" viewBox="0 0 43 43">
  <!-- Background circle -->
  <rect width="43" height="43" rx="21.5" fill="#FBF5E8"/>
  
  <!-- Share icon -->
  <path fill-rule="evenodd" clip-rule="evenodd" d="M27.5 15.5C27.5 17.1569 26.1569 18.5 24.5 18.5C23.9477 18.5 23.4276 18.3534 22.9764 18.0933L19.5225 20.3195C19.6725 20.6888 19.75 21.0868 19.75 21.5C19.75 21.9132 19.6725 22.3112 19.5225 22.6805L22.9764 24.9067C23.4276 24.6466 23.9477 24.5 24.5 24.5C26.1569 24.5 27.5 25.8431 27.5 27.5C27.5 29.1569 26.1569 30.5 24.5 30.5C22.8431 30.5 21.5 29.1569 21.5 27.5C21.5 27.0868 21.5775 26.6888 21.7275 26.3195L18.2736 24.0933C17.8224 24.3534 17.3023 24.5 16.75 24.5C15.0931 24.5 13.75 23.1569 13.75 21.5C13.75 19.8431 15.0931 18.5 16.75 18.5C17.3023 18.5 17.8224 18.6466 18.2736 18.9067L21.7275 16.6805C21.5775 16.3112 21.5 15.9132 21.5 15.5C21.5 13.8431 22.8431 12.5 24.5 12.5C26.1569 12.5 27.5 13.8431 27.5 15.5ZM24.5 16.5C25.0523 16.5 25.5 16.0523 25.5 15.5C25.5 14.9477 25.0523 14.5 24.5 14.5C23.9477 14.5 23.5 14.9477 23.5 15.5C23.5 16.0523 23.9477 16.5 24.5 16.5ZM16.75 22.5C17.3023 22.5 17.75 22.0523 17.75 21.5C17.75 20.9477 17.3023 20.5 16.75 20.5C16.1977 20.5 15.75 20.9477 15.75 21.5C15.75 22.0523 16.1977 22.5 16.75 22.5ZM24.5 28.5C25.0523 28.5 25.5 28.0523 25.5 27.5C25.5 26.9477 25.0523 26.5 24.5 26.5C23.9477 26.5 23.5 26.9477 23.5 27.5C23.5 28.0523 23.9477 28.5 24.5 28.5Z" fill="#1D1E1B"/>
</svg>