<svg width="38" height="38" viewBox="0 0 20 19" fill="none" xmlns="http://www.w3.org/2000/svg">
<path d="M9.08663 1.54906C9.43899 0.75857 10.561 0.758571 10.9134 1.54906L12.804 5.79058C12.9494 6.11661 13.2575 6.34045 13.6124 6.37792L18.2306 6.86534C19.0913 6.95618 19.438 8.02328 18.7951 8.60267L15.3454 11.7115C15.0803 11.9505 14.9626 12.3126 15.0366 12.6618L16.0002 17.2046C16.1797 18.0512 15.272 18.7107 14.5223 18.2783L10.4996 15.9582C10.1904 15.7798 9.80959 15.7798 9.50038 15.9582L5.4777 18.2783C4.728 18.7107 3.82027 18.0512 3.99984 17.2046L4.96337 12.6618C5.03743 12.3126 4.91975 11.9505 4.65458 11.7115L1.2049 8.60267C0.561989 8.02328 0.908712 6.95618 1.7694 6.86534L6.38757 6.37792C6.74255 6.34045 7.05064 6.11661 7.19597 5.79058L9.08663 1.54906Z" fill="url(#paint0_linear_1737_24068)"/>
<defs>
<linearGradient id="paint0_linear_1737_24068" x1="-1.5" y1="11.7222" x2="21" y2="11.7222" gradientUnits="userSpaceOnUse">
<stop stop-color="#4368A9"/>
<stop offset="1" stop-color="#DA853C"/>
</linearGradient>
</defs>
</svg>
