<svg width="32" height="31" viewBox="0 0 32 31" fill="none" xmlns="http://www.w3.org/2000/svg">
<path d="M15.0866 1.04906C15.439 0.258572 16.561 0.258571 16.9134 1.04906L20.7378 9.62891C20.8832 9.95494 21.1913 10.1788 21.5462 10.2163L30.888 11.2022C31.7487 11.2931 32.0954 12.3602 31.4525 12.9396L24.4744 19.2282C24.2092 19.4671 24.0915 19.8293 24.1656 20.1785L26.1147 29.3677C26.2942 30.2143 25.3865 30.8739 24.6368 30.4414L16.4996 25.7482C16.1904 25.5698 15.8096 25.5698 15.5004 25.7482L7.3632 30.4414C6.6135 30.8739 5.70577 30.2143 5.88534 29.3677L7.83439 20.1785C7.90845 19.8293 7.79077 19.4671 7.52561 19.2282L0.547508 12.9396C-0.0954047 12.3602 0.251316 11.2931 1.112 11.2022L10.4538 10.2163C10.8087 10.1788 11.1168 9.95494 11.2622 9.62891L15.0866 1.04906Z" fill="#F2B420"/>
</svg>
