<svg width="64" height="65" viewBox="0 0 64 65" fill="none" xmlns="http://www.w3.org/2000/svg">
<rect y="0.153809" width="64" height="64" rx="32" fill="#F2B420"/>
<path d="M42.5 25.375V40C42.5 42.1476 41.8632 43.4914 40.9163 44.3091C39.9558 45.1386 38.5923 45.5 37 45.5H25C23.4077 45.5 22.0442 45.1386 21.0837 44.3091C20.1368 43.4914 19.5 42.1476 19.5 40V25.375C19.5 23.0272 20.1437 21.6966 21.074 20.9334C21.932 20.2296 23.1201 19.9342 24.533 19.8832C24.6463 20.7478 25.0453 21.5224 25.6364 22.1135C26.3412 22.8184 27.3069 23.25 28.375 23.25H33.625C35.5889 23.25 37.2171 21.7802 37.4668 19.8832C38.8798 19.9342 40.068 20.2296 40.926 20.9334C41.8563 21.6966 42.5 23.0272 42.5 25.375Z" fill="white" stroke="#F2B420"/>
<path d="M37 19.375C37 21.235 35.485 22.75 33.625 22.75H28.375C27.445 22.75 26.605 22.375 25.99 21.76C25.375 21.145 25 20.305 25 19.375C25 17.515 26.515 16 28.375 16H33.625C34.555 16 35.395 16.375 36.01 16.99C36.625 17.605 37 18.445 37 19.375Z" fill="white"/>
<path d="M31 33.625H25C24.385 33.625 23.875 33.115 23.875 32.5C23.875 31.885 24.385 31.375 25 31.375H31C31.615 31.375 32.125 31.885 32.125 32.5C32.125 33.115 31.615 33.625 31 33.625Z" fill="#F2B420"/>
<path d="M37 39.625H25C24.385 39.625 23.875 39.115 23.875 38.5C23.875 37.885 24.385 37.375 25 37.375H37C37.615 37.375 38.125 37.885 38.125 38.5C38.125 39.115 37.615 39.625 37 39.625Z" fill="#F2B420"/>
</svg>
