<svg width="44" height="44" viewBox="0 0 44 44" fill="none" xmlns="http://www.w3.org/2000/svg">
<rect width="44" height="44" rx="22" fill="#F2B420"/>
<path d="M31.4783 22.6019C31.4783 24.6883 30.6445 26.6894 29.1606 28.1646C27.6765 29.6398 25.6637 30.4687 23.5649 30.4687C23.0313 30.4701 22.499 30.4198 21.9752 30.3186C22.2785 29.9209 22.433 29.4306 22.4121 28.932C22.3911 28.4333 22.1958 27.9576 21.86 27.5866C22.2181 27.195 22.4179 26.6854 22.4211 26.1563C22.422 25.6263 22.2216 25.1153 21.86 24.7259C22.2314 24.3131 22.428 23.7734 22.4082 23.2198C22.3885 22.6662 22.1542 22.1416 21.7544 21.756C21.3545 21.3701 20.8201 21.1532 20.2629 21.1502H15.7812C16.0187 19.8972 16.5568 18.7197 17.3495 17.7174L17.335 17.7032C17.2011 17.5691 17.1258 17.3879 17.1258 17.1989C17.1258 17.01 17.2011 16.8287 17.335 16.6948C17.4701 16.5594 17.6539 16.4832 17.8458 16.4832C18.0376 16.4832 18.2214 16.5594 18.3567 16.6948C19.6175 15.5995 21.1932 14.9265 22.8601 14.7708V13.455H22.1407C21.8836 13.455 21.6461 13.3187 21.5177 13.0974C21.3892 12.8761 21.3892 12.6035 21.5177 12.3822C21.6461 12.161 21.8836 12.0247 22.1407 12.0247H24.9391C25.1962 12.0247 25.4337 12.161 25.5622 12.3822C25.6906 12.6035 25.6906 12.8762 25.5622 13.0974C25.4337 13.3187 25.1962 13.455 24.9391 13.455H24.2989V14.821C26.2583 14.9988 28.0807 15.8958 29.4108 17.337C30.7408 18.7783 31.483 20.6604 31.4928 22.6161L31.4783 22.6019ZM26.9604 19.2406C26.8254 19.1052 26.6415 19.0291 26.4496 19.0291C26.2579 19.0291 26.074 19.1052 25.9388 19.2406L23.0612 22.1013C22.9291 22.2354 22.8552 22.4158 22.8555 22.6033C22.856 22.7911 22.9305 22.9711 23.0631 23.1046C23.1959 23.2382 23.3761 23.3145 23.5648 23.3171C23.756 23.3182 23.9399 23.2436 24.0756 23.1097L26.9532 20.249C27.0882 20.1161 27.1647 19.9354 27.166 19.7463C27.1674 19.5573 27.0934 19.3757 26.9604 19.2406Z" fill="white"/>
<g opacity="0.5">
<path d="M20.6941 23.8374C20.8281 23.7029 20.9034 23.5205 20.9034 23.3302C20.9034 23.14 20.8281 22.9576 20.6941 22.8231C20.5601 22.6885 20.3783 22.6129 20.1886 22.6129H12.0546C11.7992 22.6129 11.5632 22.7496 11.4356 22.9715C11.3079 23.1936 11.3079 23.4669 11.4356 23.6888C11.5632 23.9109 11.7992 24.0474 12.0546 24.0474H20.1886C20.3783 24.0474 20.5601 23.9719 20.6941 23.8374Z" fill="white"/>
<path d="M14.1989 25.482H20.1743C20.4296 25.482 20.6656 25.6187 20.7934 25.8406C20.921 26.0627 20.921 26.336 20.7934 26.5579C20.6656 26.78 20.4296 26.9165 20.1743 26.9165H14.1989C13.9435 26.9165 13.7075 26.78 13.5799 26.5579C13.4522 26.336 13.4522 26.0627 13.5799 25.8406C13.7075 25.6187 13.9435 25.482 14.1989 25.482Z" fill="white"/>
<path d="M16.3433 28.3511H20.1745C20.4297 28.3511 20.6657 28.4878 20.7935 28.7097C20.9211 28.9318 20.9211 29.205 20.7935 29.427C20.6657 29.649 20.4297 29.7856 20.1745 29.7856H16.3433C16.0879 29.7856 15.8519 29.649 15.7243 29.427C15.5966 29.2051 15.5966 28.9318 15.7243 28.7097C15.8519 28.4878 16.0878 28.3511 16.3433 28.3511Z" fill="white"/>
</g>
</svg>
