<svg width="45" height="44" viewBox="0 0 45 44" fill="none" xmlns="http://www.w3.org/2000/svg">
<rect x="0.5" width="44" height="44" rx="22" fill="#F2B420"/>
<g clip-path="url(#clip0_5729_16703)">
<path d="M30.7864 15.3466H24.8451L23.4423 12.7886C23.2772 12.541 23.0297 12.376 22.7821 12.376H15.5205C14.7778 12.376 14.2827 12.9536 14.2827 13.6138V14.769C14.2827 15.0166 14.1177 15.1816 13.8701 15.1816H13.2925C12.5498 15.1816 12.0547 15.7592 12.0547 16.4194V29.3748C12.0547 30.1175 12.6323 30.6126 13.2925 30.6126H30.8689C31.6116 30.6126 32.1067 30.035 32.1067 29.3748V16.5844C32.1067 15.9243 31.5291 15.3466 30.7864 15.3466ZM22.0394 28.0545C19.9765 28.0545 18.3261 26.4041 18.3261 24.3412C18.3261 22.2782 19.9765 20.6278 22.0394 20.6278C24.1024 20.6278 25.7528 22.2782 25.7528 24.3412C25.7528 26.4041 24.1024 28.0545 22.0394 28.0545Z" fill="white"/>
<path d="M21.9615 23.6008H22.4615V23.1008V21.3361C22.4615 21.2607 22.4845 21.2366 22.4884 21.2327C22.4923 21.2288 22.5163 21.2059 22.5917 21.2059C22.6672 21.2059 22.6912 21.2288 22.6951 21.2327C22.699 21.2366 22.722 21.2607 22.722 21.3361V23.7311C22.722 23.8065 22.699 23.8306 22.6951 23.8345C22.6912 23.8384 22.6672 23.8613 22.5917 23.8613H19.4405C19.365 23.8613 19.341 23.8384 19.3371 23.8345C19.3332 23.8306 19.3102 23.8065 19.3102 23.7311C19.3102 23.6556 19.3332 23.6316 19.3371 23.6277C19.341 23.6238 19.365 23.6008 19.4405 23.6008H21.9615ZM22.0875 18.4412C19.4164 18.4412 17.1758 20.6818 17.1758 23.3529C17.1758 26.024 19.4164 28.2647 22.0875 28.2647C24.7586 28.2647 26.9993 26.024 26.9993 23.3529C26.9993 20.5465 24.7493 18.4412 22.0875 18.4412Z" fill="#EE761C" stroke="white"/>
</g>
<defs>
<clipPath id="clip0_5729_16703">
<rect width="21.1765" height="21.1765" fill="white" transform="translate(11.5 11)"/>
</clipPath>
</defs>
</svg>
