<svg width="44" height="44" viewBox="0 0 44 44" fill="none" xmlns="http://www.w3.org/2000/svg">
<rect width="44" height="44" rx="22" fill="#F2B420"/>
<g clip-path="url(#clip0_5729_16713)">
<path d="M28.5743 25.4843C28.364 25.3582 28.1117 25.4424 27.9856 25.6524C26.6398 27.9654 24.1587 29.3951 21.5096 29.3951C17.3886 29.3951 14.0663 26.0731 14.0663 21.9517L15.2856 23.1711C15.3698 23.2553 15.496 23.2972 15.5802 23.2972C15.6643 23.2972 15.7905 23.2553 15.8747 23.1711C16.0427 23.003 16.0427 22.7504 15.8747 22.5824L13.9821 20.6484C13.814 20.4803 13.5614 20.4803 13.3934 20.6484L11.5011 22.5407C11.333 22.7088 11.333 22.9613 11.5011 23.1294C11.6691 23.2975 11.9217 23.2975 12.0898 23.1294L13.2253 21.9939C13.2672 26.5356 16.968 30.1942 21.5096 30.1942C24.4532 30.1942 27.2288 28.5961 28.7008 26.0309C28.8689 25.8209 28.7847 25.5686 28.5743 25.4844L28.5743 25.4843Z" fill="white" stroke="white" stroke-width="0.5"/>
<path d="M31.6017 20.0175C31.4336 19.8494 31.1811 19.8494 31.013 20.0175L29.8355 21.1527C29.7936 16.6113 26.0928 12.9525 21.5512 12.9525C18.6076 12.9525 15.832 14.5505 14.36 17.1157C14.2339 17.3261 14.3181 17.5783 14.5281 17.7045C14.7384 17.8306 14.9907 17.7464 15.1168 17.5364C16.4627 15.2234 18.9437 13.7937 21.5928 13.7937C25.7139 13.7937 29.0362 17.1157 29.0362 21.2371L27.8168 20.0177C27.6487 19.8496 27.3961 19.8496 27.2281 20.0177C27.06 20.1858 27.06 20.4383 27.2281 20.6064L29.1626 22.541C29.2468 22.6252 29.373 22.6671 29.4571 22.6671C29.5413 22.6671 29.6675 22.6252 29.7517 22.541L31.6439 20.6487C31.7698 20.4378 31.7698 20.1855 31.6017 20.0174L31.6017 20.0175Z" fill="white" stroke="white" stroke-width="0.5"/>
</g>
<defs>
<clipPath id="clip0_5729_16713">
<rect width="21.1765" height="21.1765" fill="white" transform="translate(11 11)"/>
</clipPath>
</defs>
</svg>
