<svg width="65" height="65" viewBox="0 0 65 65" fill="none" xmlns="http://www.w3.org/2000/svg">
<path d="M31.3703 1.3048C31.9662 0.61655 33.0338 0.61655 33.6297 1.3048L36.2366 4.31587C36.7067 4.85875 37.4964 4.99053 38.1172 4.62968L41.5606 2.62823C42.3477 2.17076 43.3574 2.51741 43.6975 3.36185L45.1855 7.05624C45.4538 7.72233 46.158 8.10339 46.8623 7.96367L50.769 7.18874C51.662 7.01161 52.5045 7.66735 52.552 8.57647L52.7598 12.5538C52.7972 13.2709 53.3395 13.86 54.0511 13.9566L57.9977 14.4921C58.8998 14.6145 59.4837 15.5083 59.2335 16.3836L58.1386 20.2129C57.9411 20.9033 58.2628 21.6365 58.9044 21.9589L62.4633 23.7469C63.2768 24.1556 63.5389 25.1905 63.018 25.9371L60.739 29.2035C60.3281 29.7924 60.3942 30.5903 60.8964 31.1036L63.6819 33.9503C64.3186 34.6009 64.2305 35.6649 63.4954 36.2019L60.2793 38.5513C59.6995 38.9749 59.5029 39.751 59.8113 40.3995L61.5215 43.9964C61.9124 44.8186 61.4836 45.7963 60.6139 46.0655L56.8093 47.2433C56.1233 47.4557 55.6854 48.126 55.7665 48.8395L56.2162 52.7968C56.319 53.7013 55.5959 54.4868 54.6859 54.4591L50.705 54.3377C49.9872 54.3158 49.3554 54.8076 49.2004 55.5088L48.3408 59.3977C48.1443 60.2866 47.2054 60.7947 46.3538 60.473L42.6279 59.0656C41.9561 58.8119 41.1989 59.0719 40.8246 59.6847L38.7488 63.0838C38.2744 63.8607 37.2213 64.0365 36.5203 63.4557L33.4533 60.9148C32.9003 60.4567 32.0997 60.4567 31.5467 60.9148L28.4797 63.4557C27.7787 64.0365 26.7256 63.8607 26.2512 63.0838L24.1754 59.6847C23.8011 59.0719 23.0439 58.8119 22.3721 59.0656L18.6463 60.473C17.7946 60.7947 16.8557 60.2866 16.6592 59.3977L15.7996 55.5088C15.6446 54.8076 15.0128 54.3158 14.295 54.3377L10.3141 54.4591C9.40412 54.4868 8.68105 53.7013 8.78383 52.7968L9.23351 48.8395C9.31458 48.126 8.87667 47.4557 8.19071 47.2433L4.38606 46.0655C3.51641 45.7963 3.08756 44.8186 3.47848 43.9964L5.18873 40.3995C5.49709 39.751 5.30054 38.9749 4.7207 38.5513L1.50464 36.2019C0.769529 35.6649 0.681367 34.6009 1.31806 33.9503L4.10356 31.1036C4.60578 30.5903 4.67189 29.7924 4.261 29.2035L1.98204 25.9371C1.46113 25.1905 1.72322 24.1556 2.53668 23.7469L6.09558 21.9589C6.73724 21.6365 7.05885 20.9033 6.86145 20.2129L5.76655 16.3836C5.51628 15.5083 6.10021 14.6145 7.0023 14.4921L10.9489 13.9566C11.6605 13.86 12.2028 13.2709 12.2402 12.5538L12.448 8.57647C12.4955 7.66735 13.338 7.01161 14.231 7.18874L18.1377 7.96367C18.842 8.10339 19.5462 7.72233 19.8145 7.05624L21.3025 3.36185C21.6426 2.51741 22.6523 2.17076 23.4394 2.62824L26.8828 4.62968C27.5036 4.99053 28.2933 4.85875 28.7634 4.31587L31.3703 1.3048Z" fill="#F2B420"/>
<path d="M31.3719 5.78747C31.9678 5.09922 33.0354 5.09922 33.6313 5.78747L35.6111 8.07415C36.0811 8.61703 36.8708 8.74881 37.4917 8.38796L40.1067 6.86801C40.8937 6.41053 41.9035 6.75719 42.2436 7.60163L43.3736 10.4072C43.6419 11.0733 44.3461 11.4544 45.0504 11.3147L48.0173 10.7262C48.9102 10.549 49.7527 11.2048 49.8002 12.1139L49.958 15.1344C49.9955 15.8515 50.5378 16.4406 51.2493 16.5371L54.2465 16.9439C55.1486 17.0663 55.7325 17.96 55.4823 18.8353L54.6508 21.7434C54.4534 22.4338 54.775 23.167 55.4166 23.4894L58.1193 24.8473C58.9328 25.256 59.1949 26.2909 58.674 27.0375L56.9433 29.5181C56.5324 30.107 56.5985 30.9049 57.1007 31.4181L59.2161 33.58C59.8528 34.2307 59.7646 35.2946 59.0295 35.8316L56.5872 37.6158C56.0073 38.0394 55.8108 38.8155 56.1191 39.4641L57.4179 42.1956C57.8089 43.0178 57.38 43.9955 56.5104 44.2647L53.621 45.1592C52.9351 45.3715 52.4971 46.0418 52.5782 46.7553L52.9197 49.7606C53.0225 50.6652 52.2994 51.4506 51.3895 51.4229L48.3662 51.3307C47.6485 51.3089 47.0167 51.8006 46.8617 52.5018L46.2089 55.4551C46.0124 56.344 45.0734 56.8522 44.2218 56.5305L41.3923 55.4617C40.7205 55.2079 39.9633 55.4679 39.589 56.0807L38.0126 58.6621C37.5381 59.439 36.4851 59.6147 35.7841 59.034L33.4549 57.1043C32.9019 56.6462 32.1013 56.6462 31.5483 57.1043L29.2192 59.034C28.5181 59.6147 27.4651 59.439 26.9906 58.6621L25.4142 56.0807C25.04 55.4679 24.2827 55.2079 23.6109 55.4617L20.7814 56.5305C19.9298 56.8522 18.9909 56.344 18.7944 55.4551L18.1415 52.5018C17.9866 51.8006 17.3547 51.3089 16.637 51.3307L13.6137 51.4229C12.7038 51.4506 11.9807 50.6652 12.0835 49.7606L12.425 46.7553C12.5061 46.0418 12.0682 45.3715 11.3822 45.1592L8.49286 44.2647C7.62322 43.9955 7.19437 43.0178 7.58529 42.1956L8.8841 39.4641C9.19245 38.8155 8.99591 38.0394 8.41606 37.6158L5.9737 35.8316C5.23859 35.2946 5.15043 34.2307 5.78712 33.58L7.90251 31.4181C8.40472 30.9049 8.47084 30.107 8.05995 29.5181L6.32925 27.0375C5.80834 26.2909 6.07042 25.256 6.88389 24.8473L9.58661 23.4894C10.2283 23.1671 10.5499 22.4338 10.3525 21.7434L9.52098 18.8353C9.27071 17.96 9.85464 17.0663 10.7567 16.9439L13.7539 16.5371C14.4655 16.4406 15.0077 15.8515 15.0452 15.1344L15.203 12.1139C15.2505 11.2048 16.093 10.549 16.986 10.7262L19.9528 11.3147C20.6572 11.4544 21.3613 11.0733 21.6296 10.4072L22.7596 7.60163C23.0997 6.75719 24.1095 6.41054 24.8966 6.86801L27.5116 8.38796C28.1324 8.74881 28.9221 8.61703 29.3921 8.07415L31.3719 5.78747Z" fill="#F2B420"/>
<path d="M33.3489 6.03198L35.3287 8.31866C35.9162 8.99727 36.9033 9.162 37.6794 8.71093L40.2944 7.19098C40.8847 6.84787 41.642 7.10786 41.8971 7.74119L43.0271 10.5468C43.3625 11.3794 44.2426 11.8557 45.1231 11.6811L48.0899 11.0926C48.7597 10.9598 49.3915 11.4516 49.4272 12.1334L49.585 15.1539C49.6318 16.0503 50.3096 16.7866 51.1991 16.9073L54.1963 17.314C54.8728 17.4058 55.3108 18.0762 55.1231 18.7326L54.2916 21.6407C54.0448 22.5038 54.4468 23.4203 55.2489 23.8232L57.9516 25.1811C58.5617 25.4876 58.7583 26.2638 58.3676 26.8238L56.6369 29.3043C56.1233 30.0404 56.206 31.0378 56.8337 31.6794L58.9491 33.8412C59.4266 34.3293 59.3605 35.1272 58.8092 35.53L56.3668 37.3142C55.642 37.8437 55.3963 38.8138 55.7818 39.6245L57.0806 42.356C57.3738 42.9727 57.0521 43.7059 56.3999 43.9078L53.5105 44.8023C52.6531 45.0678 52.1057 45.9056 52.207 46.7975L52.5485 49.8028C52.6256 50.4812 52.0833 51.0703 51.4009 51.0495L48.3776 50.9573C47.4804 50.93 46.6907 51.5447 46.4969 52.4211L45.8441 55.3745C45.6967 56.0412 44.9925 56.4223 44.3538 56.181L41.5243 55.1122C40.6846 54.795 39.738 55.12 39.2702 55.886L37.6938 58.4674C37.3379 59.0501 36.5482 59.1819 36.0224 58.7463L33.6932 56.8167C33.002 56.244 32.0012 56.244 31.31 56.8167L28.9808 58.7463C28.4551 59.1819 27.6653 59.0501 27.3094 58.4674L25.733 55.886C25.2652 55.12 24.3186 54.795 23.4789 55.1122L20.6494 56.181C20.0107 56.4223 19.3065 56.0412 19.1591 55.3745L18.5063 52.4212C18.3126 51.5447 17.5228 50.93 16.6256 50.9573L13.6024 51.0495C12.9199 51.0703 12.3776 50.4812 12.4547 49.8028L12.7962 46.7975C12.8975 45.9056 12.3501 45.0678 11.4927 44.8023L8.60333 43.9078C7.9511 43.7059 7.62947 42.9727 7.92265 42.3561L9.22147 39.6245C9.60691 38.8138 9.36123 37.8437 8.63642 37.3142L6.19406 35.53C5.64273 35.1272 5.57661 34.3293 6.05413 33.8412L8.16951 31.6794C8.79728 31.0378 8.87993 30.0404 8.36632 29.3043L6.63561 26.8238C6.24493 26.2638 6.44149 25.4876 7.05159 25.1811L9.75431 23.8232C10.5564 23.4203 10.9584 22.5038 10.7116 21.6407L9.88015 18.7326C9.69245 18.0762 10.1304 17.4058 10.807 17.314L13.8041 16.9073C14.6936 16.7866 15.3714 16.0503 15.4183 15.1539L15.5761 12.1334C15.6117 11.4516 16.2436 10.9598 16.9133 11.0926L19.8801 11.6811C20.7606 11.8557 21.6408 11.3794 21.9761 10.5468L23.1061 7.74119C23.3612 7.10786 24.1185 6.84787 24.7088 7.19098L27.3238 8.71093C28.0999 9.162 29.087 8.99727 29.6746 8.31867L31.6544 6.03198C32.1013 5.5158 32.902 5.51579 33.3489 6.03198Z" stroke="url(#paint0_linear_2110_32253)" stroke-opacity="0.5" stroke-width="0.747126"/>
<path d="M32.8741 18.6782L37.3797 25.925L45.6641 27.9708L40.1644 34.4953L40.7788 43.0064L32.8741 39.792L24.9694 43.0064L25.5837 34.4953L20.084 27.9708L28.3684 25.925L32.8741 18.6782Z" fill="white"/>
<defs>
<linearGradient id="paint0_linear_2110_32253" x1="10.8349" y1="8.2183" x2="57.1568" y2="62.385" gradientUnits="userSpaceOnUse">
<stop stop-color="white"/>
<stop offset="1" stop-color="white" stop-opacity="0"/>
</linearGradient>
</defs>
</svg>
