<svg width="43" height="43" viewBox="0 0 43 43" fill="none" xmlns="http://www.w3.org/2000/svg">
<rect width="43" height="43" rx="21.5" fill="#FBF5E8"/>
<mask id="path-2-inside-1_1917_28983" fill="white">
<path fill-rule="evenodd" clip-rule="evenodd" d="M16.1801 12H25.8201C27.9501 12 29.6801 13.74 29.6901 15.86V29.95C29.6901 31.76 28.4001 32.52 26.8201 31.64L21.9401 28.93C21.4301 28.64 20.5901 28.64 20.0701 28.93L15.1901 31.64C13.6101 32.51 12.3201 31.75 12.3201 29.95V15.86C12.3201 13.74 14.0501 12 16.1801 12ZM17.99 19.75C18.96 20.1 19.98 20.28 21 20.28C22.02 20.28 23.04 20.1 24.01 19.75C24.4 19.61 24.6 19.18 24.46 18.79C24.32 18.4 23.89 18.2 23.5 18.34C21.89 18.92 20.12 18.92 18.51 18.34C18.12 18.2 17.69 18.4 17.54 18.79C17.4 19.18 17.6 19.61 17.99 19.75Z"/>
</mask>
<path d="M29.6901 15.86H30.6901L30.6901 15.8553L29.6901 15.86ZM26.8201 31.64L27.3067 30.7664L27.3056 30.7658L26.8201 31.64ZM21.9401 28.93L21.4457 29.7993L21.4546 29.8042L21.9401 28.93ZM20.0701 28.93L20.5556 29.8042L20.5571 29.8034L20.0701 28.93ZM15.1901 31.64L15.6724 32.516L15.6756 32.5142L15.1901 31.64ZM17.99 19.75L18.3294 18.8094L18.3279 18.8088L17.99 19.75ZM24.01 19.75L23.6721 18.8088L23.6706 18.8094L24.01 19.75ZM24.46 18.79L25.4012 18.4521L24.46 18.79ZM23.5 18.34L23.1621 17.3988L23.1611 17.3992L23.5 18.34ZM18.51 18.34L18.8489 17.3992L18.8479 17.3988L18.51 18.34ZM17.54 18.79L16.6067 18.431L16.6026 18.4415L16.5988 18.4521L17.54 18.79ZM25.8201 11H16.1801V13H25.8201V11ZM30.6901 15.8553C30.6775 13.1893 28.5049 11 25.8201 11V13C27.3952 13 28.6827 14.2907 28.6901 15.8647L30.6901 15.8553ZM30.6901 29.95V15.86H28.6901V29.95H30.6901ZM26.3335 32.5136C27.3149 33.0602 28.428 33.2114 29.355 32.6654C30.2815 32.1198 30.6901 31.0733 30.6901 29.95H28.6901C28.6901 30.6367 28.4536 30.8752 28.3401 30.9421C28.2271 31.0086 27.9052 31.0998 27.3066 30.7664L26.3335 32.5136ZM21.4546 29.8042L26.3346 32.5142L27.3056 30.7658L22.4256 28.0558L21.4546 29.8042ZM20.5571 29.8034C20.6328 29.7612 20.7948 29.7125 21.0088 29.7125C21.2239 29.7125 21.3794 29.7615 21.4458 29.7993L22.4344 28.0607C21.9908 27.8085 21.4713 27.7125 21.0088 27.7125C20.5454 27.7125 20.0273 27.8088 19.583 28.0566L20.5571 29.8034ZM15.6756 32.5142L20.5556 29.8042L19.5846 28.0558L14.7046 30.7658L15.6756 32.5142ZM11.3201 29.95C11.3201 31.071 11.7303 32.1133 12.6551 32.6579C13.5791 33.2021 14.69 33.0569 15.6724 32.516L14.7077 30.764C14.1101 31.0931 13.7861 31.0029 13.67 30.9346C13.5548 30.8667 13.3201 30.629 13.3201 29.95H11.3201ZM11.3201 15.86V29.95H13.3201V15.86H11.3201ZM16.1801 11C13.4961 11 11.3201 13.1894 11.3201 15.86H13.3201C13.3201 14.2906 14.604 13 16.1801 13V11ZM21 19.28C20.0974 19.28 19.1922 19.1207 18.3294 18.8094L17.6506 20.6906C18.7279 21.0793 19.8626 21.28 21 21.28V19.28ZM23.6706 18.8094C22.8079 19.1207 21.9026 19.28 21 19.28V21.28C22.1374 21.28 23.2722 21.0793 24.3494 20.6906L23.6706 18.8094ZM23.5188 19.1279C23.4743 19.004 23.5364 18.8575 23.6721 18.8088L24.3479 20.6912C25.2636 20.3625 25.7257 19.356 25.4012 18.4521L23.5188 19.1279ZM23.8379 19.2812C23.714 19.3257 23.5675 19.2636 23.5188 19.1279L25.4012 18.4521C25.0725 17.5364 24.066 17.0743 23.1621 17.3988L23.8379 19.2812ZM18.1711 19.2808C20.0001 19.9397 22.0099 19.9397 23.8389 19.2808L23.1611 17.3992C21.7701 17.9003 20.2399 17.9003 18.8489 17.3992L18.1711 19.2808ZM18.4733 19.149C18.4317 19.2572 18.3028 19.3281 18.1721 19.2812L18.8479 17.3988C17.9373 17.0719 16.9483 17.5428 16.6067 18.431L18.4733 19.149ZM18.3279 18.8088C18.4636 18.8575 18.5257 19.004 18.4812 19.1279L16.5988 18.4521C16.2743 19.356 16.7364 20.3625 17.6521 20.6912L18.3279 18.8088Z" fill="#1D1E1B" mask="url(#path-2-inside-1_1917_28983)"/>
</svg>
