<svg xmlns="http://www.w3.org/2000/svg" class="svg-icon"
    style="width: 10rem;height: 10rem;vertical-align: middle;fill: currentColor;overflow: hidden;"
    viewBox="0 0 1024 1024" version="1.1">
    <path
        d="M714.359467 377.105067A120.541867 120.541867 0 0 0 768 276.855467V85.333333H256v191.522134c0 40.277333 20.138667 77.892267 53.640533 100.2496l159.044267 116.7872a22.493867 22.493867 0 0 1 0.017067 36.215466l-159.044267 116.7872A120.507733 120.507733 0 0 0 256 747.144533V938.666667h512V747.144533c0-40.277333-20.138667-77.892267-53.640533-100.2496l-159.044267-116.7872a22.493867 22.493867 0 0 1-0.017067-36.215466l159.061334-116.7872z"
        fill="#E6E6E6" />
    <path
        d="M170.666667 938.666667h682.666666v68.266666H170.666667zM170.666667 17.066667h682.666666v68.266666H170.666667z"
        fill="#9E6C53" style="&#10;    fill: #ffdb87;&#10;" />
    <path
        d="M921.6 989.866667H102.4a17.066667 17.066667 0 1 0 0 34.133333h819.2a17.066667 17.066667 0 1 0 0-34.133333zM102.4 34.133333h819.2a17.066667 17.066667 0 1 0 0-34.133333H102.4a17.066667 17.066667 0 1 0 0 34.133333z"
        fill="#f2b420" />
    <path
        d="M685.943467 334.506667A69.1712 69.1712 0 0 0 716.8 276.872533a48.5888 48.5888 0 0 0-36.795733-47.138133L423.099733 165.512533C364.2368 150.784 307.2 195.310933 307.2 256v20.872533c0 23.1936 11.537067 44.7488 30.856533 57.634134L494.933333 449.6384v270.967467c0 61.952-64.238933 103.0144-120.456533 76.987733-30.276267-14.011733-66.935467 6.724267-67.259733 40.0896V938.666667h409.6V747.127467v-0.699734c-0.324267-32.955733-32.238933-56.695467-64.699734-51.0464l-34.9696 6.0928A75.178667 75.178667 0 0 1 529.066667 627.421867V449.6384l156.8768-115.131733z"
        fill="#f2b420" />
</svg>