<?xml version="1.0" encoding="utf-8"?>
<!-- Generator: Adobe Illustrator 26.0.1, SVG Export Plug-In . SVG Version: 6.00 Build 0)  -->
<svg version="1.1" id="Layer_1" xmlns="http://www.w3.org/2000/svg" xmlns:xlink="http://www.w3.org/1999/xlink" x="0px" y="0px"
	 viewBox="0 0 400 400" style="enable-background:new 0 0 400 400;" xml:space="preserve">
<style type="text/css">
	.st0{fill:#191919;}
	.st1{fill:#EFB134;}
</style>
<path d="M309.7,96.3c-0.1-0.3-0.1-0.6-0.2-1c0-0.2-0.1-0.3-0.1-0.4c-3.6-12.1-16-20.1-28.5-19c-11.4,1.1-19.3,7.3-23.7,17.8
	c-0.1,0.3-0.2,0.6-0.3,0.9c-0.3,0.2-0.5,0.4-0.5,0.7c-5.4,13.4-9.8,29.1-4.6,43.2c3.8,10.4,13,17.8,24,19.3c-0.3,3.5-1.1,7-2.4,10.2
	c0,0.4,0.1,0.7,0.3,1c0.5,0.6,1.4,0.7,2,0.2c2-3.3,3-7.1,3.1-11c9.9,0.2,18.2-6.2,26.6-11.4c0.7-0.4,0.9-1.3,0.6-2
	c-0.4-0.8-1.3-1.1-2.1-0.8c-8.9,3.6-17.2,10.7-26.5,9.7c-17.9-1.8-25.3-16.6-24-33.6c1.1-8.1,3-16.2,5.6-24c0-0.1,0-0.1,0-0.1
	c0.1,0,0.2,0.1,0.3,0.1c0.2-0.5,0.3-0.8,0.5-1.2c4.8-13.1,20.4-21.2,35-13.3c5,2.7,8.7,6.3,10.7,10.9c1,2.2,1.6,4.5,1.9,7.2
	c0.1,0.9,0.1,1.8,0.1,2.7c0,1.9-0.5,3.7-0.7,5.6c0.4,0.4,0.5,0.6,0.9,1h1.7C310.4,104.7,310.7,100.5,309.7,96.3z"/>
<path class="st0" d="M114.4,92.3c-0.1-0.9-1-1.5-1.9-1.4c-0.8,0.1-1.4,0.8-1.4,1.7c0.6,9.1,0.7,18.2,0.3,27.3
	c-0.3,8.9-0.7,28.6-9.6,33.6c-8.1,4.5-29,0.4-36.9-2.9c-0.7-0.3-1.5,0-1.8,0.7s0,1.4,0.6,1.7c5.1,2.4,10.6,4.1,16.2,4.9
	c0.3,3.9,0,9.7,0.3,11.7c0.2,0.8,0.9,1.3,1.7,1.2c0.6-0.1,1.1-0.6,1.2-1.2c0.4-2.4-0.1-8,0-11.3c21,2.2,30.5,0,31.8-39.1
	C115.5,110.2,115.3,101.2,114.4,92.3z"/>
<path class="st0" d="M106.5,100.6c2.3-0.5,5.9,0.9,5.9,3.8c-0.1,0.6-0.7,1.1-1.3,1c-0.3,0-0.6-0.2-0.8-0.5c-0.6-1.2-2-1.9-3.3-1.7
	c-0.8,0.1-1.4-0.5-1.5-1.3C105.5,101.3,105.9,100.8,106.5,100.6z"/>
<path class="st0" d="M88.7,102c2.5,0.3,1.8,3,0,3c-2.1,0-3.9,1.4-4.4,3.4c-0.2,0.7-0.9,1.1-1.7,1c-0.6-0.2-1-0.7-1-1.3
	c0.2-3.6,3.3-6.3,6.9-6.1l0,0H88.7z"/>
<path class="st0" d="M93.5,114c0.2,1.7,0.7,5-1.2,5.6c-2.8,1-3.6-3.3-3.4-5.1C89.5,111.1,93.2,110.9,93.5,114z"/>
<path class="st0" d="M108.8,115.4c0.1,1.3,0.1,3.4-1.3,3.7c-2.4,0.6-3-1.5-3.2-3.6c-0.1-1.5,0.2-3.9,2.2-4S108.7,113.9,108.8,115.4z
	"/>
<path class="st0" d="M105,128.2c1.2,4.2-4.7,5.2-8.3,3.9c-1.2-0.4-0.7-2.5,0.4-2.6c1.4,0.1,2.9,0,4.3-0.1c1.3-0.3,0.6-0.6,0.1-2
	c-1-2.7-2.4-6-3.1-8.8c-0.1-0.7,0.3-1.4,1-1.5c0.6-0.1,1.1,0.1,1.4,0.6C102.4,121.1,103.9,124.7,105,128.2L105,128.2z"/>
<path class="st0" d="M97,142.5c-4.7,6.1-15.9,2.6-15-8.6C85.6,140.6,94.6,142.1,97,142.5z"/>
<path class="st0" d="M79.3,132.3c0.9-3.8,2.2-3.4,4.4-1c10.4,11.5,19.7,6.1,17.3,11c-2.8,5.6-9.6,7.8-15.2,5
	c-1.3-0.7-2.5-1.6-3.4-2.7C79.5,141.1,78.4,136.6,79.3,132.3L79.3,132.3z"/>
<path class="st0" d="M191.9,205.4c-8.9-10.1-17.7-14.4-30.1-18.7c-3.6,9.7-14.3,26.8-22.5,33.8c-0.8,0.7-2-0.4-1.3-1.2
	c9-9.8,16.3-21,21.6-33.1c0.8-1.7,0.8-1.8,2.7-1.4c11.2,1.8,23.1,9.7,30.6,17.9c1.6,1.7,1.5,2.1,0.6,4.1
	c-7.4,16.3-17.4,36-27.8,50.2c-5.9,8-11.7,14.1-26,17.1c-1.2,0.2-1.6-2-0.3-2.2c12.9-2,19.6-9,26.7-19.7
	C183,226.7,191.3,205.4,191.9,205.4L191.9,205.4z"/>
<path class="st0" d="M154.5,320c-9.4,0.7-14.5-0.6-23.1-4.4c-5.7-2.5-15.3-7.6-21.4-7.6c-0.9,0-1.3,1.6-0.4,1.8
	c7.7,1.6,14.5,5.5,22.4,8.9c6.4,2.7,15.9,5.8,22.8,3.4C155.8,321.7,155.8,320,154.5,320L154.5,320z"/>
<path class="st0" d="M162.1,318.1c-6.5,1.8-19.4-1.8-24.6-5.3c-0.9-0.6,0.1-1.9,1-1.6c12,4.7,16.8,5,23.4,5c0.5,0.1,0.9,0.6,0.8,1.1
	C162.6,317.7,162.4,318,162.1,318.1L162.1,318.1z"/>
<path class="st0" d="M166.8,313.8c-7.4,1-18.7-2.1-24.9-6.3c-0.9-0.6,0-2,0.9-1.6c9.7,4.1,13.7,4.7,24,5.9c0.6,0,1,0.4,1,1
	S167.4,313.8,166.8,313.8L166.8,313.8z"/>
<path class="st0" d="M167.4,308.7c-7.7-1-15.1-3.7-21.6-7.9c-0.8-0.6-0.4-2,0.7-1.7c3.8,1,14.6,6.4,21.4,7.5
	C169,306.6,168.7,308.8,167.4,308.7L167.4,308.7z"/>
<path class="st0" d="M145.4,293.7c-3.9-0.8-11.6,2.5-14.7,4.6c-0.7,0.6-1.4,1.1-2.3,1.4c-0.9,0.2-1.1-1-0.6-2
	c5.8-11.1,22.3-9,29.5-17.7c0.7-0.8-0.4-2-1.3-1.4c-6.5,5-11.3,5.6-18.5,8.5c-4.2,1.7-10.8,5.6-12.3,10.5c-0.6,1.8-0.2,4.1,2.2,4.4
	c2.1,0.2,3.8-1.6,5.5-2.5c3.7-2.4,8-3.8,12.5-4C147.9,295.4,146,293.7,145.4,293.7z"/>
<path class="st0" d="M115.4,275.3c2.4,0.7,3.3,1.9,2.2,3.8c-4.2,7.1-7.8,19.4-10.4,33.6c-0.4,2.2-0.9,1.9-2.7,1.7
	c-15.9-1.8-31.5-5.9-46.2-12.3c-27.5-11.7-46.9-24.9-48.1-57.2c-1-26.1,6.5-57.7,32-70.3c0.6-0.2,1.2,0,1.4,0.6
	c0.2,0.5,0,1.1-0.4,1.4c-25.8,14-32.9,46.5-30.3,73.6c2.9,29.7,27,42.6,52.3,52.3c13,4.8,26.4,8.2,40.1,10.1c0-9,4.7-26.3,9.9-34.7
	c-20.7-6-40.1-16.1-56.9-29.6c-0.4-0.3-0.4-0.9-0.1-1.3c0.3-0.4,0.9-0.4,1.2-0.1c1.1,0.9,2.3,1.7,3.5,2.6
	c-1.9-9.9,0.7-29.2,5.8-38.5c0.6-1.1,2.2-0.1,1.9,0.9c-5.8,16.1-6.5,22.4-5.6,39C80.4,261.7,97.4,270,115.4,275.3z"/>
<path class="st0" d="M91.4,302.2c-1.4,0.1-2.5,1.4-2.3,2.8c0.2,1.2,1.1,2.1,2.2,2.4c1.4,0.1,2.6-0.8,2.7-2.2l0,0c0-0.1,0-0.2,0-0.2
	C94.1,303.5,92.9,302.3,91.4,302.2L91.4,302.2L91.4,302.2z"/>
<path class="st0" d="M125.4,321.3c1.5-0.4,2.2,1.6,0.8,1.9c-33.7,7-75.4,4.4-103.7-0.1c-0.5-0.1-0.8-0.5-0.9-1
	c-2-11.8-4.1-30.7-3.5-42.5c0-0.5,0.4-0.8,0.9-0.8c0.4,0,0.8,0.4,0.8,0.8c-0.3,15.3,2.5,28.3,3.6,41.4
	C91.7,329.8,126.2,321.3,125.4,321.3z"/>
<path class="st0" d="M93.1,272.2c-7.6,6.6-12.5,22.7-12,32.2c0.1,1,1.8,1,1.8,0c1.1-15.7,6.3-25.4,11.7-30.8
	C95.4,272.8,94.1,271.3,93.1,272.2L93.1,272.2z"/>
<path class="st0" d="M145.8,281c1,0.4,1,2.2-0.2,2.1c-4.5-0.3-12.4,1.2-15.3,1.5c-4.3,0.5-7.8,1-11.6-1.3c-1-0.6-0.1-2,0.9-1.7
	c3.9,1.1,8,1.2,12,0.3C134.9,281.5,142.9,279.8,145.8,281z"/>
<path class="st0" d="M89.6,176.9c-4-1.9-5-0.8-7.3,2.5c-2.6,3.9-4.7,8-6.3,12.3c-12.5-5.6-19.3-11-29.3-19.6
	c2.8-1.8,5.6-2.7,8.4-4.2c0.5-0.3,0.6-0.8,0.4-1.3c-0.2-0.4-0.6-0.6-1-0.5c-3.2,1.1-6.3,2.6-9.1,4.5c-1.1,0.8-1.4,1.3-0.5,2.4
	c6.2,7,21.1,17.4,29.7,20.5c2.3,0.8,2.5,0.7,3.6-1.4c1.9-3.4,3-6.6,5.1-9.9s2.8-4.8,6.1-2.9c3.5,1.7,6.4,4.4,8.5,7.6
	c0.6,0.9,2.1,0,1.6-1.1C99.7,185.7,96.9,180.4,89.6,176.9z"/>
<path class="st0" d="M82.2,175.4c-7.4-1.8-14.3-5.1-20.4-9.6c-0.8-0.6-2,0.7-1.2,1.4c3.3,2.9,15.8,10.2,21,10
	C82.5,177.1,83.2,175.7,82.2,175.4z"/>
<path class="st0" d="M135,263.9c0.1,3.4-2.3,4-2.4,0.4c-0.7-15-3.2-29.9-7.6-44.3c-4.3-15.7-12.2-30.2-23.1-42.2
	c-0.8-0.9,0.4-2.2,1.2-1.3c10,10.1,19.4,26.4,24.1,42.9C131.2,233.9,133.8,248.8,135,263.9L135,263.9z"/>
<path class="st0" d="M209,158.8c0.3-0.5,0.9-0.6,1.4-0.3c0.3,0.2,0.5,0.5,0.5,0.8c-1.1,8.6-5.4,14.5-9.9,21.4
	c-3.5,5.5-7.8,10.5-12.6,14.8c-0.8,0.8-2-0.6-1.3-1.4c4.7-5.9,7.6-8.2,11.6-14.6C204.4,170.4,205.1,169.6,209,158.8z"/>
<path class="st0" d="M206.3,147.8c0.1-0.6-0.3-1.1-0.8-1.2s-1.1,0.3-1.2,0.8c-2,8.1-5.5,15.7-10.4,22.4c-0.3,0.4-0.3,1.1,0.2,1.4
	s1.1,0.3,1.4-0.2C199.7,166.8,206.9,154.5,206.3,147.8L206.3,147.8z"/>
<path class="st0" d="M197,144c-2,8-5.1,15.7-9.2,22.8c-0.5,1,0.9,1.8,1.6,1c5.2-6.9,8.4-15,9.5-23.5c0-0.5-0.3-1-0.8-1.1
	C197.5,143.2,197.1,143.6,197,144L197,144z"/>
<path class="st0" d="M188.3,143c-1.9,8.8-4.7,17.4-8.2,25.7c-0.4,1.1,1.2,1.8,1.8,0.8c3.2-5.1,8.7-19.7,8.4-26.2
	C190.3,142.2,188.6,141.8,188.3,143L188.3,143z"/>
<path class="st0" d="M172.3,157.6c0.6-0.9,2.3-0.5,1.9,0.6c-3.9,11-3.6,14.8-4.4,25.7c-0.1,1.1-1.6,0.8-1.8-0.1
	C166.7,176.7,168.5,163.8,172.3,157.6L172.3,157.6z"/>
<path class="st0" d="M185.3,209.8c-0.9,1.1-1.8,0.6-2.7,0c-0.8-0.7-0.9-2-0.1-2.8s2-0.9,2.8-0.1c0.8,0.7,0.9,2,0.1,2.8l0,0
	L185.3,209.8z"/>
<path class="st0" d="M181.2,216.5c0.4,0.8-0.7,2.1-1.3,1.5c-5.5-5.5-17.6-12.3-23-15.6c-0.9-0.6-0.1-1.9,0.8-1.6
	C162.2,202.3,178.9,212.3,181.2,216.5z"/>
<path class="st0" d="M140.5,227.2c0.4,1.1-1.2,2.2-1.9,1.3c-5.3-7.5-11.8-14.1-19.3-19.4c-0.9-0.7,0.2-1.9,1.1-1.3
	C125.6,211.1,138.1,221.5,140.5,227.2L140.5,227.2z"/>
<path class="st0" d="M286.8,289.1c1.1,0.3,0.8,2.1-0.4,2.2c-5,0.6-9.3-6.2-14.5-6.1c-4,0.1-6.9,5-11.6,5.2c-0.5-0.1-0.9-0.6-0.9-1.1
	c0-0.4,0.3-0.7,0.7-0.8c4.3-0.9,6.8-5.3,11.9-6C276.3,282,282.8,287.9,286.8,289.1z"/>
<path class="st0" d="M269.2,326.3c-5.4,0.2-15.2,0.7-18.7-4.3c-0.6-0.9-2,0.1-1.6,1.1c2.6,6.3,13.6,6.1,19.2,5.9
	c8.6-0.2,17.2-2.1,25.1-5.4c1.6-0.7,0.4-3-1.2-2.4C284.8,324.1,277.1,325.9,269.2,326.3z"/>
<path class="st0" d="M261.9,318.9c-6.9,2.6-15.4,1.1-15.6-4.6c0-1.1,1.7-1.4,1.9-0.3c1,5.8,10.5,2.7,13.1,2.9
	C262.3,316.8,263,318.4,261.9,318.9L261.9,318.9z"/>
<path class="st0" d="M260.6,308.9c-4.2-0.2-10.5,1.9-13-3.7c-0.5-1.2-2.1-0.5-1.9,0.8c0.8,5.2,6.8,6.8,15.2,5.2
	C262.1,310.9,261.7,308.9,260.6,308.9L260.6,308.9z"/>
<path class="st0" d="M261.5,300.6c-0.8-0.3-6.1,0.2-8.2-0.2c-1.4-0.3-4.3-1.7-3.4-3.8c0.3-0.5,0.1-1.1-0.4-1.4s-1.1-0.1-1.4,0.4
	c-1.9,2.9,0.9,5.9,3.6,6.7c3.3,0.7,6.7,0.8,9.9,0.1c0.5-0.3,0.7-0.9,0.4-1.4c0,0,0,0,0-0.1C261.9,300.8,261.7,300.7,261.5,300.6
	L261.5,300.6z"/>
<g>
	<path class="st1" d="M265.9,194c-0.7-2.8-1.1-5.6-1.3-8.5c2.1-2,5-4.5,6.2-4.6s5.5,5.4,6.1,6.9c-1.7,2-3.1,4.3-4.1,6.8
		C270.6,194.3,268.3,194,265.9,194z M272.6,197.2c-2.2-0.5-4.4-0.9-6.7-1c-1.1,4-5.4,9.5-7.6,19.3c0.3,8.1,1.5,16.1,3.6,24
		c2.2-8.3,5.8-14.5,10.7-22.5C272.9,212,272.3,202.6,272.6,197.2L272.6,197.2z M95,192.5c0-2.3,1.1-8.5,1-9.4
		c-2.7-2.7-6.7-5.4-7.7-5.4c-1.4,0-6.5,9.2-7.3,10.3c5,3.4,7.1,4.6,8.3,6.1C91.2,193.2,93.1,192.7,95,192.5z M96,258.6
		c0.3-7.8-4.3-52.8-6-62.3c1.9-0.8,3.9-1.3,5.9-1.5c3.5,6.2,16.6,30,20.4,73.4C112.8,266.8,99.5,261.6,96,258.6L96,258.6z"/>
	<path class="st0" d="M268.2,167.2c0.9,3.1,2.2,6,4,8.7c10.9-3.1,21.4-7.3,31.4-12.6c1.7-0.9,2-1,3.7,0c2.9,1.7,5.6,3.8,8,6.2
		c0.5,0.4,0.5,1.2,0,1.6c-0.4,0.4-1.1,0.5-1.5,0.1c-2.5-2.4-5.2-4.6-8.1-6.4c-9.9,5.7-20.6,10-31.8,12.7c2.4,2,4.7,4.2,6.9,6.5
		c3.9,3.7,3.8,4.4,9.1,2.1c6.2-2.4,12-5.9,17-10.2c0.9-0.8,2.1,0.6,1.2,1.5c-4.3,4.6-13,9.5-19,11.6c-4.1,1.5-5.7,0.9-8.8-2
		c-1.6-1.6-7.8-8-9-8.9c-3.4,1.5-6.7,3.3-9.8,5.3c-1.7,0.9-2.2-0.9-0.8-1.9c2.9-1.8,5.9-3.4,9.1-4.8c-1.4-2.4-2.6-5-3.5-7.7
		c-2.2,1.9-4,4.2-5.5,6.6c-0.3,0.4-0.9,0.5-1.3,0.2c-0.3-0.2-0.4-0.6-0.3-1c1.3-2.9,3.3-5.5,5.7-7.5
		C265.4,167.4,267.2,164.6,268.2,167.2z"/>
	<path class="st0" d="M250.2,287.3c-10.7,1.2-8,24.7-3.9,32.2c-4.6,6.1-25.3,5-30.3,2.5c-1.5-34.3,2.7-59.6,10.6-92.7
		c0-0.6-0.4-1-0.9-1.1c-0.4,0-0.7,0.2-0.9,0.5c-6.8,18.3-10.4,45.5-11.2,65c-11.5,4.4-23.3,8.2-35.2,11.3
		c-2.2-8.2-13.8-28.5-21.2-32.4c27.5-14,46.4-27.2,58.7-50.6c12.7-24.3,29-42.8,42.9-49.1c-3.8,10.9-5.7,56.2,0.8,71.8
		C254.5,258.5,251.4,272.8,250.2,287.3L250.2,287.3z"/>
	<path class="st0" d="M238,224.9c1.4-3.9,3.4-7.5,5.7-10.9c-2.7-3.5-4.6-7.6-5.6-11.9c-0.1-1,1.3-1.6,1.7-0.6c1.1,3.6,2.8,7,5,10
		c1.4,1.9,1.3,2.3,0.2,4.2c-2.2,4-4.1,8.2-5.8,12.5c4.8,10.7,7.8,14.3,14.5,22.6c0.8,1-0.2,2.3-1.1,1.5c-6.3-6.4-11.4-14-15-22.3
		C236.6,226.9,236.8,227.8,238,224.9L238,224.9z"/>
	<path class="st0" d="M318.3,173c50.4,8,77.2,86,70.5,112.7c-5.5,21.8-61.3,43-89.5,40.4c-3.7-1.4-9.6-31-9.3-43.7
		c18-3.8,39.9-10.2,52.7-24.2c0.8-0.9-0.3-2.2-1.3-1.4c-2.8,2.5-5.8,4.8-9,6.8c-1.8-7.1-8.8-19.4-13.2-24.6
		c-0.3-0.4-0.8-0.6-1.3-0.3c-0.4,0.3-0.6,0.8-0.3,1.3l0,0c5.8,9.7,9.3,14.9,12.4,25.1c-14.4,8.8-28.4,12-43,15.6
		c-6-1.7-10.9-6.2-13.5-6.5c-9.4-1.1-13.1,7.7-19,8.3C258.2,242.4,279.2,198.2,318.3,173L318.3,173z"/>
	<path class="st0" d="M320.4,197.4c-7.6,3.4-14.8,7.5-21.7,12.2c1.6,4.8,4.9,10.9,6.4,14.9c0.7,1.9,0.3,2.6-1.2,3.8
		c-14.6,11.5-27.9,24.6-39.8,38.9c-0.8,0.9-2-0.4-1.3-1.3c9.8-14.3,27.5-30.3,40.2-40c-2.3-4.6-4.3-9.3-5.9-14.1
		c-1-3.3-1-2.8,1.6-4.8c7-5.2,14.6-9.4,22.7-12.6c0.4-3.9,0.2-7.8-0.6-11.7c-0.2-0.9,1.3-1.4,1.8-0.6c1.5,3.6,1.9,7.6,1.1,11.4
		C323.3,196.4,323.1,196.2,320.4,197.4L320.4,197.4z"/>
</g>
<path d="M114.4,92h-1.5H90.3c-3-0.2-5.7,1.7-6.7,4.5c-2.7,7.6-6.4,11.7-12.6,18.3c-0.4,0.5-1.3,0.9-1.7,0.4c-3.3-3.7-10-3.2-11.7,4
	c-1.3,5.8,1.6,11.6,6.9,14.2c2.8,1.7,0.6,3.2-1.3,2.3c-0.9-0.4-1.8-1-2.6-1.7c0.4,7.7,0.4,18.2,0,25.6c-0.1,1.7-2.8,1.4-2.8-0.2
	c0.2-7.1,0-14.2-0.5-21.4c-0.1-1.4-0.6-2.8-1.5-3.9c-0.6-0.7-1-1.6-1.3-2.5c-0.4-1.5-0.8-2.9-1.4-4.4c-0.5-1.2-0.9-2.6-1.1-3.9v-0.6
	v-0.4c0.1-2.5-0.6-5-1-7.6v-0.1c0.3-3.3,0.8-6.7,1.8-9.8c1.2-3.9,3.2-7.6,5.7-10.8c7.5-9.3,18.9-14.6,30.9-14.2
	C98.8,80.5,107.8,84.8,114.4,92z"/>
<path class="st0" d="M70.7,103c-0.7,9.5-1.4,19-2.2,28.5l8.2,0.7c-0.4-11.6-0.8-23.1-1.2-34.7"/>
<path class="st1" d="M104.7,84.1c-6.6-7.9-18.4-11.1-28.8-8.2C66.4,78.6,59.7,86,58.8,94.7"/>
<path d="M318.1,118c0,1-0.1,2-0.3,3.1c-0.3,1.8-0.9,3.6-1.8,5.2c-1.8,2.9-4.7,4-6.8,4.3c-0.9,0.1-1.7,0-2.2-0.1c0-0.1,0-0.2,0-0.3
	c0-0.2,0.1-0.5,0.1-0.7c1-0.6,3.1-1.6,4.7-3.6c0.8-1,1.5-2.2,1.8-3.7c1.1-4.5-1.4-9.7-1.5-9.9c0-0.1-0.1-0.2-0.1-0.3
	c-0.6-1.2-1.2-2.1-1.7-2.9c-0.9-1.3-1.7-2.3-2.8-4.1c-3.4-5.9-4.3-14.8-2.8-16c2-1.6,9.7,9.6,12.2,19.2c0.2,0.8,0.4,1.6,0.5,2.5
	C317.7,111.7,318.2,114.7,318.1,118z"/>
<path d="M303.8,90c-2.9,3.3-10.4,5.7-19.3,5.7c-11.3,0-20.5-3.9-20.5-8.7c0-2.3,2.1-4.4,5.6-6c3.7-1.7,9-2.7,14.9-2.7
	c6.8,0,12.8,1.4,16.5,3.5C302.5,84.3,303.5,87.1,303.8,90z"/>
<path d="M288.1,132.5c0.5-3.1,4.3-1.6,3.4,1.4c-2.1,7.5-14.6,6.3-19.3,5.3c-0.7-0.1-1.2-0.8-1.1-1.5s0.8-1.2,1.5-1.1
	C276.4,137.2,287.3,137.7,288.1,132.5z"/>
<path d="M284.1,102.2c3.3-2,7.7-0.9,9.7,2.4c0.3,0.5,0.6,1.1,0.7,1.6c0.5,2.4-1.6,3.4-2.6,1.4c-1.3-2.6-4.1-3.9-6.9-3.2
	C283.9,104.6,282.7,103,284.1,102.2z"/>
<path d="M270.3,101.5c1.1,1.3-0.5,2.7-2.3,2c-2.2-0.9-4.6-0.2-6.1,1.6c-0.4,0.6-1.3,0.8-1.9,0.4s-0.8-1.3-0.4-1.9l0,0
	C261.1,100.4,267.5,98.1,270.3,101.5L270.3,101.5z"/>
<path d="M267,113c0.3,1.9-0.8,4-2.5,4c-2.3,0-2.6-1.8-2.5-3.2c-0.2-1.4,0.7-2.7,2.1-2.9S266.8,111.6,267,113
	C267,112.9,267,112.9,267,113L267,113z"/>
<path d="M286,111.2c1.3,0.4,1.7,2.4,1.5,3.5c-0.3,1.9-1.6,3.6-3.6,3c-1.5-0.6-2.2-2.3-1.6-3.8C282.8,112,284.5,110.7,286,111.2
	L286,111.2z"/>
<path d="M278.2,126.7c1.8,0.8,0.7,3.5-1.1,3.1c-2.2-0.5-4.1,0.4-6.4,0.1c-4.2-0.5-5.1-3.6-3.6-7.1c1.3-3.4,3.1-6.5,5.3-9.4
	c0.9-0.7,2.1,0.3,1.9,1.3c-0.3,1.4-1.9,3.5-4,8.5c-0.9,2.3-1.4,3.6,1.7,3.4C274,126.2,276.1,126.2,278.2,126.7L278.2,126.7z"/>
<path d="M315.2,120.7c-0.9,3.9-4,7.3-8.2,8.7v3.2c0.2,6.5,1,10.2,0.9,11c-0.2,0.9-1.3,0.9-1.7,0.3c-1.4-1.9-1.6-11.3-1.1-14.2v-0.3
	c-0.4-0.2-0.3-0.5-0.3-0.7c0.2-1.4,0.3-1.4,2-2c1-0.3,1.8-0.8,2.6-1.4c2.7-2.1,4.2-5.7,3.4-9.3c-0.5-1.9-1.7-3.4-3.2-4.1
	c-1.9-1-4.3-0.7-6.1,1.2c-0.1,0.1-0.2,0.3-0.4,0.4c-0.7,0.9-1.2,1.1-3.1,0.3c-1-0.4-1.9-0.9-2.7-1.5c0.1-0.9,0.2-1.8,0.2-2.7
	c1.2,1,2.5,1.9,4,2.7c0.3-0.6,0.7-1.1,1.2-1.6c0.2-0.2,0.4-0.4,0.6-0.5c1.4-1.1,3-1.5,4.7-1.3c1.1,0.1,2.1,0.5,3.1,1.1
	c1.6,1,2.9,2.5,3.7,4.5c0.4,1,0.6,2,0.7,3C315.6,118.8,315.5,119.7,315.2,120.7z"/>
<path d="M303.4,113.3c0.2,3.6,0.3,7.1,0.4,10.7l-7.7-0.6c0.3-3.6,0.7-7.3,1-10.9c0.1-0.9,0.2-1.8,0.2-2.8c0.2-1.8,0.3-3.6,0.4-5.5
	c-1.3-2.1-2.3-4.5-2.8-7l0.8-6.3c1.4-1.1,3.7-1.8,6.3-1.8c1.4,0,2.7,0.2,3.8,0.5c0.9,2,1.5,4.1,1.8,6.5c0,0.2,0.1,0.5,0.1,0.7
	c-1.3,0.7-3,1.2-5,1.3c0.1,2.8,0.2,5.6,0.3,8.3c0.1,1.4,0.2,2.4,0.2,3.4c0,0.1,0,0.2,0,0.4c0,0.2,0,0.4,0,0.5
	C303.3,111.7,303.3,112.5,303.4,113.3z"/>
<rect x="301.3" y="96.3" width="10" height="14.6"/>
<path class="st1" d="M308.7,91.6l-40.5-10.9l-0.7-0.2c5.9-8.1,16.5-11.6,25.8-8.5c5.1,1.7,9.3,5.2,12,9.6
	C307.2,84.7,308.4,88.1,308.7,91.6z"/>
<polyline points="257.9,92.1 256.3,95.5 257.9,99.3 259.3,96.2 "/>
</svg>
