<?xml version="1.0" encoding="utf-8"?>
<!-- Generator: Adobe Illustrator 26.0.1, SVG Export Plug-In . SVG Version: 6.00 Build 0)  -->
<svg version="1.1" id="Layer_1" xmlns="http://www.w3.org/2000/svg" xmlns:xlink="http://www.w3.org/1999/xlink" x="0px" y="0px"
	 viewBox="0 0 400 400" style="enable-background:new 0 0 400 400;" xml:space="preserve">
<style type="text/css">
	.st0{fill:#191919;}
	.st1{fill:#EFB134;}
	.st2{fill:none;}
	.st3{fill:#EEB031;}
</style>
<path class="st0" d="M253.4,199c-0.5-7.4-1.7-11.1-9.6-11.2c-4.2,0-11.3,0.2-12.4,0.4c-0.4,0.1-0.7,0.5-0.6,0.9
	c0.1,0.3,0.3,0.6,0.7,0.6c4.3,0.2,8.1,0.4,12.1,0.3c5.2-0.1,7.1,1.6,7.9,12.3c0.4,5.7,0.9,11.4,1.2,17.2s-0.8,6.9-6.2,7.1
	c-9.9,0.4-19.9,0.2-29.7,1c-0.8,0.1-0.8,1.4,0.1,1.4c9.5,0.3,19.1-0.2,28.7-0.3c6.4-0.1,9.4-1.3,9.1-7.6
	C254.3,213.6,253.9,206.3,253.4,199"/>
<path class="st0" d="M178.5,228c-4.8,0-23.2-0.4-27.6,0.2c-0.9,0.1-0.7,1.4,0.1,1.5c4.3,0.6,22.7,0.4,27.4,0.4
	C179.7,230.1,179.9,228,178.5,228"/>
<g>
	<path class="st0" d="M213,226.9c-0.2-1.7-2.2-0.9-2,0.3c0.3,5.6,1.9,11.1,4.7,15.9c0.4,0.7,1.5,0.2,1.3-0.5
		C214.9,237.6,213.5,232.3,213,226.9"/>
	<path class="st0" d="M184,227.3c-0.8,4.9-1.9,9.7-3.4,14.5c-0.5,1.6,0.6,2.4,1.6,0.5c1.4-2.3,4.1-12.7,3.5-14.9
		C185.5,226.5,184.1,226.4,184,227.3"/>
	<path class="st0" d="M98.2,267.4c-24.1,0.1-59.3,0.3-80.8,0.8c-1.2,0-0.9,1.9,0.2,1.9c23.1,0.9,57.2-0.2,80.5-0.4
		C99.7,269.8,99.8,267.4,98.2,267.4"/>
	<path class="st0" d="M383.9,266.9c-19.4-0.1-53,0.4-74.2,0.3c-0.9,0-0.9,1.6,0,1.8c3.7,0.6,67.1,0.3,74.1,0.3
		c0.7-0.1,1.1-0.6,1.1-1.3C384.9,267.4,384.5,267,383.9,266.9"/>
	<path class="st0" d="M228,214.8l11.6-0.3c0.1,0.9,0.2,1.9,0.3,2.9c0.1,0.8,1.4,0.7,1.4-0.1c0-0.9-0.1-1.9-0.1-2.8l4.6-0.2
		c0.6,0,1-0.5,1-1.1s-0.5-1-1.1-1l-4.7,0.2c-0.2-3.5-0.5-7.1-0.7-10.7c2.1,0,4.9,0.5,5-1c0-0.6-0.4-1.1-0.9-1.1h-4.2
		c0-0.8-0.2-1.6-0.4-2.3c-0.2-0.4-0.6-0.5-1-0.3c-0.2,0.1-0.3,0.2-0.4,0.4c-0.6,3.4,1.4,1.7-3.4,2.5c-0.4,0.1-0.7,0.5-0.6,1
		c0,0,0,0,0,0c0.1,0.3,0.3,0.5,0.6,0.6c1.2,0.2,2.3,0.3,3.5,0.2l0.9,10.7l-11.5,0.9c-0.4,0.1-0.7,0.5-0.6,0.9
		C227.3,214.5,227.6,214.8,228,214.8"/>
	<path class="st0" d="M101.2,230.1c1.1,0,4.8,0.1,7.2,0c2.8-0.2,3.4-1.8,0.7-2c-8.9-0.8-15.1,2.7-13.5-6.9c1.4-8.2,3.6-16,5.5-23.8
		c1.2-4.8,5.1-6.4,9.7-6.4c17.1,0,34.3-0.1,51.4-0.2c0.6-0.1,1-0.7,0.9-1.3c-0.1-0.5-0.5-0.9-1-0.9c-17.1,0.1-34.3,0.5-51.4,0.6
		c-12.8,0-11.9,7.2-17,31.5C92.1,227.9,94,230,101.2,230.1"/>
	<path class="st0" d="M151.6,215.8c0.1-0.8,0.3-1.6,0.4-2.5c2.4,0,8.6,0.4,10.4,0.1c0.5-0.2,0.7-0.8,0.5-1.3
		c-0.1-0.2-0.3-0.4-0.5-0.5c-3.4-0.3-6.8-0.4-10.3-0.3c0.2-3.4,0.3-6.8,0.5-10.1c2.1,0,4.4,0.1,6.5-0.1c0.6,0,1-0.4,1-1s-0.4-1-1-1
		c-2.1-0.2-4.3,0-6.4,0v-0.9c0.1-1.4-2-1.6-2.1-0.2v1.2l-9.9,0.1c0.1-0.8,0.6-2.4-0.7-2.5s-1.2,1.7-1.3,2.6l-12.1,0.2
		c0.2-0.8,0.9-2.6-0.3-2.9c-1.4-0.3-1.5,2-1.7,2.9l-10,0.1c0.3-0.6,0.3-1.2,0.2-1.8c-0.2-0.4-0.7-0.6-1.1-0.4c0,0,0,0,0,0l0,0
		c-0.8,0.4-0.9,1.5-1.1,2.2c-1.7-0.1-3.4,0.1-5.1,0.3c-0.4,0.1-0.6,0.5-0.5,0.9c0.1,0.2,0.3,0.4,0.5,0.5c1.5,0.2,3,0.3,4.5,0.2
		l-1.2,4.5c-0.1,0.4,0.2,0.8,0.6,0.8c0,0,0,0,0,0c0.3,0.1,0.7-0.1,0.8-0.5l1.7-4.9l10.3-0.1c-0.1,0.7-0.9,2.8,0.1,3s1.3-1.9,1.7-3.1
		l12.5-0.1c0,0.8-0.1,1.6-0.1,2.4c0,0.4,0.4,0.7,0.8,0.7c0.3,0,0.6-0.3,0.7-0.6c0.2-0.9,0.3-1.7,0.5-2.6l10.1-0.1
		c-0.2,3.3-0.3,6.7-0.5,10.1c-3.1-0.2-6.2-0.2-9.2,0c-0.8,0.1-1.2,1.4-0.2,1.5c3.1,0.4,6.3,0.5,9.4,0.4c0,0.9,0,1.7,0.1,2.6
		c0.1,0.4,0.5,0.6,0.9,0.5C151.4,216.2,151.6,215.9,151.6,215.8"/>
	<path class="st0" d="M275.2,153.4c3.2-28.2,5-55.1,7.5-82.6c1.1-12.1-1.2-12.8-12.4-12.8c-54.2-0.1-110.1-0.5-164.1,0.3
		C96,58.5,94.3,62.4,95.7,72c4.1,27.1,8.7,54.1,12.9,81.2c1.4,9.1,3.9,10.9,14.5,11.2c4.5,0.1,36.3,0.6,42,0.1
		c1.1-0.1,0.8-2.2-0.1-2.2c-11.9-0.1-38.7-0.2-42.2-0.4c-8.5-0.5-10.3-0.2-11.6-9.1c23.9,0.2,47.5,0.1,71.4,0.3
		c0.6,0.2,1.3-0.2,1.5-0.8c0.2-0.6-0.2-1.3-0.8-1.5c-0.2-0.1-0.4-0.1-0.6,0c-21.7-0.2-48.6-0.2-71.7-0.4c-4-26.2-9.1-52.4-12.2-78.8
		c-0.8-7.3-0.5-10.3,7.5-10.4c54.7-0.8,109.6-0.9,164.4-0.4c9,0.1,10.2-0.5,9.4,9.8c-2.1,26.8-4.6,53.7-7.2,80.5
		c-1.8-0.5-44.4,0-57.1,0c-1.1,0-1,1.7,0,1.9c3.1,0.6,55.9,0.7,56.7,0.5c-0.9,6.3-0.9,8.3-9.9,8.7c-10.8,0.6-30.3-0.6-32.3,0.5
		c-0.5,0.3-0.6,0.9-0.4,1.4c0.1,0.2,0.2,0.3,0.4,0.4c1.4,0.8,21.4,0.5,31.8,0.3C270.9,164.4,274,163.9,275.2,153.4"/>
	<path class="st0" d="M220.4,135.3c2.1,0.2,18.9,0.6,21.2-0.5c0.6-0.3,0.7-1.5-0.1-1.5c-7.1-0.1-14.1,0.2-21.2,0.4
		C219.3,133.6,219.5,135.2,220.4,135.3"/>
	<path class="st0" d="M236.7,94.8c1.7-0.5,1.1-2.7-0.3-3.1c-1.6-0.5-27.9-0.4-30.1-0.1c-0.8,0.1-1.4,0.8-1.3,1.6
		c0.1,0.6,0.5,1.2,1.2,1.3C207.5,94.7,234.1,95.6,236.7,94.8"/>
	<path class="st0" d="M237.9,122.1c3.5-0.3,2.3-1.8,1.8-2s-16.4,0.9-17.6,1c-0.4,0.1-0.7,0.6-0.6,1c0.1,0.3,0.4,0.6,0.7,0.6
		C227.5,122.9,232.7,122.6,237.9,122.1"/>
	<path class="st0" d="M160.2,91.1c-9.6,0.6-21-0.2-30,0.9c-0.7,0.2-1.2,1-1,1.7c0.1,0.5,0.5,0.9,1,1c6.5,1.1,23.3,0.3,30.5-0.1
		C162.9,94.5,162.5,91,160.2,91.1"/>
	<path class="st0" d="M146.8,134.1c7.4,0.3,14.7,0.2,22.1-0.3c0.8-0.1,0.7-1.6,0-1.6c-4.8-0.3-18.3-0.6-22.1,0.4
		C146,132.8,145.9,134,146.8,134.1"/>
	<path class="st0" d="M147.2,121.2c-0.4,0.1-0.7,0.5-0.6,1c0,0,0,0,0,0c0.1,0.4,0.4,0.6,0.8,0.6c1.2,0.1,16.1,0.2,16.6-0.2
		c0.4-0.2,0.5-0.8,0.3-1.2l0,0C163.5,119.9,149.1,120.7,147.2,121.2"/>
	<path class="st0" d="M241.7,107.9c-9.9,1.2-17.3,0.1-20.4,0.4c-0.8,0.1-1,1.3-0.2,1.6c4.3,1.3,16.8,0.6,20.9,0.1
		c0.6-0.1,0.9-0.7,0.8-1.3C242.6,108.2,242.2,107.8,241.7,107.9L241.7,107.9z"/>
	<path class="st0" d="M177.7,80.7c-5-0.2-46.7,0.1-49.4,0.7c-0.8,0.1-1.3,0.9-1.1,1.6c0.1,0.6,0.5,1,1.1,1.1
		c2.7,0.5,44.5,0.3,49.4,0c0.9-0.2,1.5-1.2,1.3-2.1C178.8,81.3,178.3,80.8,177.7,80.7"/>
	<path class="st0" d="M166.5,108.3c-4.6,0-15.6-0.1-19.5,0.3c-0.5,0.1-0.8,0.5-0.8,1c0,0,0,0,0,0c0,0.4,0.4,0.7,0.8,0.8
		c3.8,0.3,14.7,0,19.2,0C167.6,110.3,167.8,108.3,166.5,108.3"/>
	<path class="st0" d="M258,81.4c-2.6-0.6-48.6-0.1-53.1,0.6c-0.7,0.1-1.2,0.8-1,1.5c0.1,0.6,0.6,1,1.2,1c5,0.7,47.3,1.4,52.7,0
		C259.1,84.2,259.7,81.8,258,81.4"/>
	<path class="st0" d="M119.8,206.5c-2.8,3.8-4,14.3-1.7,17.5c0.4,0.5,1.4,0.3,1.4-0.4c-0.4-3.2-1.4-10.6,1.5-16.6
		C121.3,206.3,120.2,205.9,119.8,206.5"/>
	<path class="st0" d="M113.2,214.8c-1.7,5.1-0.8,17.6,3.6,24.1c0.3,0.5,1.6,0.3,1.4-0.4c-2.1-7.1-4.7-12.5-3.6-23.4
		c0-0.4-0.4-0.7-0.8-0.7C113.5,214.5,113.3,214.6,113.2,214.8"/>
	<path class="st0" d="M122.6,315.3c-9.9,4-21.4,0.4-23.8-10.9c-4.1-18.7,8.6-44.8,18.5-60.8c0.7-1.2-1-2.5-1.7-1.3
		c-9.8,15.5-23.8,44.3-18.9,63.3c3.1,12.1,15.2,17.2,26.8,10.8C124.2,316,123.4,315,122.6,315.3"/>
	<path class="st0" d="M130.2,204.6c-3.8,1.9-7.5,12.6-5.7,17c0.3,0.7,1.5,0.7,1.5-0.1c0.2-6.4,1.5-9.6,5.1-15.9
		C131.4,205.1,130.9,204.3,130.2,204.6"/>
	<path class="st0" d="M144.3,223.8c-0.8,2.2-0.1,5.2-1.8,9.3s-6.4,6.5-6.5,7.8c-0.8,7.4-2.1,9.1-3.4,15c-0.2,0.9,1.1,1.1,1.4,0.4
		c2.1-4.8,3.5-9.9,4.1-15.1c5.1-3.3,8.5-7.5,7.8-17.2C145.8,223,144.6,223,144.3,223.8"/>
	<path class="st0" d="M134.5,227.3c-3.1-6.2-0.6-12.6,1.8-16.9c0.4-0.7-0.5-1.8-1.8-0.4c-3.6,3.8-5.4,14.5-1.1,18.2
		c0.3,0.3,0.8,0.3,1,0C134.6,228,134.7,227.6,134.5,227.3"/>
	<path class="st0" d="M294.9,215.4c0.9-3.8,0.9-12.2-1.2-15.4c-0.8-1.3-1.8-0.5-1.6,0.1c1.4,4.9,1.8,10.1,1.2,15.1
		C293.3,216.1,294.7,216.3,294.9,215.4"/>
	<path class="st0" d="M286,223.2c2.6-4.6,3.6-15.5,2.4-21.1c-0.2-0.9-1.5-0.5-1.5,0.3c0.4,6.9-0.5,13.7-2.5,20.3
		C284.2,223.6,285.5,224.1,286,223.2"/>
	<path class="st0" d="M297.8,201.2c1.9,5.5,1.6,10.1,1.8,15.2c0.1,0.4,0.4,0.7,0.8,0.6c0,0,0,0,0,0c0.2,0,0.4-0.2,0.5-0.4
		c1.1-3.2,0.3-12.4-1.4-15.3C298.5,199.6,297.6,200.6,297.8,201.2"/>
	<path class="st0" d="M277.4,267.4c0.1,0.8,1.5,0.9,1.5,0.1c2.6-37,6.4-32.2,1.4-39.6c-2.1-3.2-4.2-4.9-4.1-9.7
		c0.1-1.8,0.6-3.5,0.6-5.2c0-1-2.4-1.8-2.7,5.2c-0.2,6.6,3,8.5,6.9,14.8C280.2,234.7,276.8,262.6,277.4,267.4"/>
	<path class="st0" d="M303.4,206.1c0.1,3.6,3.2,9.6,0.9,22.3c-1.2,4.7-1.8,9.6-1.7,14.5c-0.1,16.8,0.1,62.1-12.1,73.7
		c-7,6.3-17.3,6.9-25,1.6c-0.7-0.5-1.6,0.6-0.9,1.2c8.4,7.5,24.1,5.5,30.8-5.5c9.1-15,9.1-51.8,9.4-71c-0.1-4.8,0.4-9.6,1.6-14.3
		c1-5.6,1.3-18.2-1.7-23.2C304.2,205,303.4,205.5,303.4,206.1"/>
	<path class="st0" d="M283,147c12.7,2.8,23.2,16.8,13.6,28.4c-4.5,5.5-9.6,8.2-6.8,19.1c-5.2,1-9.1,5.2-9.9,10.5
		c-0.5,4.1-0.4,8.3,0.4,12.3c0.2,0.4,0.6,0.6,1,0.4c0.2-0.1,0.4-0.3,0.5-0.6c0.7-5.9-1.8-13.5,3.9-18.3c4.5-3.8,11.3-3.1,15.1,1.4
		c0,0,0,0,0,0c0.2,0.3,0.7,0.4,1,0.2c0.3-0.2,0.4-0.7,0.2-1c-2.3-3.4-6.2-5.3-10.3-5.1c-2.8-12.4,4.9-14.8,8-20.1
		c7.3-12.8-2.4-26-16.4-28.8c-0.5,0.1-0.8,0.5-0.7,1C282.6,146.7,282.8,146.9,283,147"/>
	<path class="st0" d="M28.8,93.3c2.8,3.7,7.1,10.1,10.2,14.4c0.4,0.6,1.1,0.7,1.7,0.3s0.7-1.1,0.3-1.7l0,0c0-0.1-0.1-0.1-0.2-0.2
		c-2.8-4.6-5.9-9.1-9.2-13.4c-1.7-2-1.8-2.5-3.6-2c-13.9,4.7-21.4,19.8-16.7,33.7c0.1,0.3,0.5,0.5,0.9,0.4c0.3-0.1,0.5-0.4,0.4-0.7
		C9.3,111.3,16.3,97.9,28.8,93.3"/>
	<path class="st0" d="M382,144.4c0.4,0,0.7-0.4,0.7-0.8c0,0,0,0,0,0c0-0.1-0.1-0.3-0.2-0.4c-2.4-2.1-2.5-5.8-1.6-8.6
		c0.4-1.3-1.6-1.7-2-0.5C377.8,137.7,378.6,144.1,382,144.4"/>
	<path class="st0" d="M389,163.5c-1-2.4-5-9-6.6-11.6c-7.5,3.6-16,7.3-20.5,9.4c-7.1,3.4-10.9,1.7-13.9,0
		c-2.5-1.4-20.8-18.5-28.8-26.7c-1.6,0.4-6.4,0.6-5.7,2.9c2.7,8.4,13.5,33,16.5,37.3c1.1,1.5,0.6,1.2,3.1,0.7
		c17.8-3.9,34.6-8.5,51.7-11.6c4,1.2,3.6,12.9-2.8,14.6c-14.5,4-32.8,8.6-48.9,11.6c-6.2-13.2-12.6-25.5-18.1-40
		c-0.3-0.8-1.7-0.2-1.4,0.6c4.7,13.9,10.6,27.4,17.4,40.4c0.8,1.5,2.5,1.2,4.4,0.8c15.8-3.3,31.5-6.8,46.9-11.1
		C389.6,178.8,391.5,169.4,389,163.5"/>
	<path class="st0" d="M336.7,187.1c1.9-2.1,2.7-5.1,2-7.8c-1-5.1-3.9-3-2.7-1.4c1.6,2,0.5,6.8-0.8,8.3S335.5,188.3,336.7,187.1"/>
	<path class="st0" d="M52.8,183.2c8.9,0,21.4-5.3,22.4-19.9c-9.6,9.3-31.7,10.8-43.5,3.8C33.3,176.1,41.6,183.2,52.8,183.2"/>
	<path class="st1" d="M138.5,133.5c-0.5-1.1-1.8-1.5-2.9-1c-1.1,0.5-1.5,1.8-1,2.9c0.5,1,1.6,1.5,2.7,1.1c1.1-0.4,1.7-1.7,1.3-2.8
		L138.5,133.5"/>
	<path class="st1" d="M206.8,136.7c1,1,3.3-0.3,2.9-2.1C209.1,131.4,203.6,133.5,206.8,136.7"/>
	<path class="st1" d="M210.7,123.6c1.2-1.4,2.3-2.8,3.4-4.2c0.4-0.5,1-1.2,0.3-1.9c-1.2-1.3-2.6,1.2-3.8,2.8
		c-3.4,4.2-1.8,2.9-4.4,0.6c-1.4-1.3-2.9-0.2-1.9,0.7S207.4,127.5,210.7,123.6"/>
	<path class="st1" d="M206.8,111c1,0.8,2.4,0.6,3.2-0.4c0,0,0,0,0,0c0.6-0.8,0.6-1.8,0.1-2.6C208.3,105,204.1,108.9,206.8,111"/>
	<path class="st1" d="M135,113.1c0.5,0.3,1.1,0.2,1.4-0.3c0,0,0,0,0,0l0,0c1.2-2,2.5-3.9,3.7-5.8c0.9-1.3,0-2.3-0.9-1.9
		s-3.3,4.6-4,5.7c-1.2-0.8-2.4-1.8-3.6-2.6c-0.8-0.5-1.9,0.8-1.1,1.4C132,110.7,133.6,111.8,135,113.1"/>
	<path class="st1" d="M137.2,122.2c-0.6-3.1-4.2-1.8-4.5,0.6C132.4,125.9,137.8,125.6,137.2,122.2"/>
	<path class="st1" d="M384.2,145.1l-24.5,11.8c-2.1,1-5.1,2.8-7.4,1.1c-2.6-2-3.3-8.9,1-11.9c1.8-1.3,10.9-5.4,13.8-6.9
		c2.4-1.2,16.4-8.5,16.6-10.5c0.2-1.6-1-2.2-2.1-3.4c-6.1-6.7-14.8-15.7-21.4-21.7c-0.8-0.7-3.7-3.8-4.9-3.3
		c-10.1,3.6-25.6,9.3-34.5,15.3c-4.1,2.8-0.7,14,1.2,17.1c2.5,4,23.1,21.4,28.4,26.5c4,3.8,10.4-0.4,14.4-2.4
		c6.8-3.3,13.6-6.6,20.5-9.9C386.7,146.5,385.5,144.5,384.2,145.1 M343.4,122.3c2.1-1.8,8.9-4.5,11.1-6c1.1-0.7,2.5,1.4,1.2,2.1
		c-3.8,2-7.7,3.8-11.6,5.5C343.3,124.2,342.7,122.8,343.4,122.3L343.4,122.3z M347.6,142.8c-1.8-0.2-21.3-19.4-23.5-21.9
		c-0.2-0.3-0.2-0.7,0.1-0.9c0.2-0.2,0.5-0.2,0.8,0c2.7,2.1,23.2,20,23.5,21.8c0.1,0.4-0.2,0.9-0.6,1
		C347.8,142.9,347.7,142.9,347.6,142.8L347.6,142.8z M348.5,126.6c0.7-1.2,8.3-5.2,9.5-5.8s2.2,1.3,1.2,1.9
		c-1.3,0.8-8.6,5.1-10.1,5.1C348.3,127.9,348.2,127.1,348.5,126.6L348.5,126.6z"/>
	<path class="st1" d="M24.5,133c-5.3,5.9-2.4,8.6,1.7,8.9s4.3,0.4,4.3,3.8s-0.1,6.8,3,8.2s9.5,0.3,10.6-3.4
		c2.3-7.5,8.5-7.7,14.7-12.4s1.1-9.8-3.3-9.4s-10.9,1.1-14.6-4.9c-1.3-2.1-8.1-8.6-8.2-1.5C32.6,128.2,29.7,127.1,24.5,133"/>
	<path class="st1" d="M65.3,96.7c-7.8-2.7-17-2.2-26.2-0.3c-1.4,0.3-0.8,2.5,0.6,2.2c8-1.6,16.4-2.4,24.3,0.1
		c-3.2,5.6-3.9,11.7-2.4,14.1s14.6,0.3,16.1,7.3s-3.6,10.3-5.9,12.4s-3.4,6.2,0.5,6.6s7.3,7.9,3.7,16.4c-14.3,13.6-39,15-51.8-0.8
		C12,139.3,14.1,113.8,30.8,103c0.8-0.5,0.2-2.2-0.7-1.7c-19.7,10.4-20.2,39.4-7.1,55.2c14.8,17.8,44.9,14.3,58.7-3.9
		C95.2,134.8,89.2,104.9,65.3,96.7"/>
	<path class="st1" d="M221.7,243.4c-6.8,12.9-37.3,16.3-47.7-1.5c-28.2,6.4-50.7,24.8-57.1,32.1c-9.8,11.3-4.6,34.5,8.8,39.4
		c4.8,1.7,12.8,2.4,18.7-2c0.3-5.7,0.8-11.4,1.7-17c0.1-0.9,1.4-0.7,1.4,0.2c-0.2,11.6-1.7,26.5-1.4,38
		c21.1,11.4,85.7,14.3,106.1,0.4c-1.3-12.9-3-28.4-5-38.2c-0.2-0.8,1.2-0.9,1.4-0.2c2.2,8.2,3.8,16.6,4.6,25.1
		c20.7-5.4,27.6-19,28.3-40C263.3,252.9,238.2,244.7,221.7,243.4"/>
	<rect class="st2" width="400" height="400"/>
	<path d="M217.3,204.8c-1.1,0.7-1.8,2-1.9,3.3c-0.9,5.8-4,11-8.8,14.4h-21.3l-0.2-0.2c-4.9-3.7-8.4-9.1-9.9-15.1
		c-0.2-0.8-0.7-1.4-1.3-1.9c-3.8-3-4.7-5.7-3-10.2c0.9-2.5,0.8-5,0.9-7.5c0.1-2.4,0.4-4.9,0.8-7.3c0.3-2.1,0.8-4.1,1.4-6.1l0,0
		c6.7-12.2,22-16.7,34.2-10c6.1,3.3,10.5,9,12.3,15.7h0.1c0.1,2,0.1,4-0.2,6c-0.4,3-0.1,6,0.6,8.9
		C222,199.3,221.1,202.1,217.3,204.8"/>
	<path class="st0" d="M169,194c1.4,0.7,1.6-2.6-1.8-2.7c-5.7,0-5.9,9.2-0.8,15.2c4.6,5.4,7.7,3.6,6.5,2c-0.8-1.1-4.6-1.3-7-7.5
		C164.5,197.3,164.5,191.7,169,194"/>
	<path class="st0" d="M222.8,192.3c-0.4,0.8,0.6,1.3,1.2,0.8c1.6-1.3,3.4,0,3.8,1.7c0.8,3.8-4.3,12.9-9.2,13.5
		c-2.4,0.3-3.4,2.9,0.6,2.3c7.4-1.2,13.8-13.9,10-18.4C227.6,190.4,224,190,222.8,192.3"/>
	<circle class="st3" cx="195.7" cy="184.6" r="19.2"/>
</g>
</svg>
