<svg width="64" height="65" viewBox="0 0 64 65" fill="none" xmlns="http://www.w3.org/2000/svg">
<g clip-path="url(#clip0_2206_272)">
<path d="M63.9951 32.3899C63.9951 14.7168 49.6682 0.389893 31.9951 0.389893C14.322 0.389893 -0.00488281 14.7168 -0.00488281 32.3899C-0.00488281 50.063 14.322 64.3899 31.9951 64.3899C49.6682 64.3899 63.9951 50.063 63.9951 32.3899Z" fill="#F2B420"/>
<path d="M44.8886 25.6566C44.0353 22.7633 41.622 20.3499 38.7286 19.4966C36.5286 18.8566 35.0086 18.9099 33.9553 19.6966C32.6886 20.6433 32.542 22.3499 32.542 23.5633V26.8833C32.542 30.1633 34.0353 31.8299 36.9686 31.8299H40.7953C41.9953 31.8299 43.7153 31.6833 44.662 30.4166C45.4753 29.3766 45.542 27.8566 44.8886 25.6566Z" fill="white"/>
<path d="M41.2083 34.2032C40.8616 33.8032 40.355 33.5765 39.835 33.5765H35.0616C32.715 33.5765 30.8083 31.6699 30.8083 29.3232V24.5499C30.8083 24.0299 30.5816 23.5232 30.1816 23.1765C29.795 22.8299 29.2616 22.6699 28.755 22.7365C25.6216 23.1365 22.7416 24.8565 20.8616 27.4432C18.9683 30.0432 18.275 33.2165 18.875 36.3899C19.7416 40.9765 23.4083 44.6432 28.0083 45.5099C28.7416 45.6565 29.475 45.7232 30.2083 45.7232C32.6216 45.7232 34.955 44.9765 36.9416 43.5232C39.5283 41.6432 41.2483 38.7632 41.6483 35.6299C41.715 35.1099 41.555 34.5899 41.2083 34.2032Z" fill="white"/>
</g>
<defs>
<clipPath id="clip0_2206_272">
<rect width="64" height="64" fill="white" transform="translate(-0.00488281 0.389893)"/>
</clipPath>
</defs>
</svg>
