<svg width="636" height="479" viewBox="0 0 636 479" fill="none" xmlns="http://www.w3.org/2000/svg">
<mask id="path-1-inside-1_2203_799" fill="white">
<path d="M0 75C0 70.5817 3.58172 67 8 67H628C632.418 67 636 70.5817 636 75V399C636 403.418 632.418 407 628 407H7.99999C3.58172 407 0 403.418 0 399V75Z"/>
</mask>
<path d="M8 85H628V49H8V85ZM618 75V399H654V75H618ZM628 389H7.99999V425H628V389ZM18 399V75H-18V399H18ZM7.99999 389C13.5229 389 18 393.477 18 399H-18C-18 413.359 -6.35943 425 7.99999 425V389ZM618 399C618 393.477 622.477 389 628 389V425C642.359 425 654 413.359 654 399H618ZM628 85C622.477 85 618 80.5228 618 75H654C654 60.6406 642.359 49 628 49V85ZM8 49C-6.3594 49 -18 60.6406 -18 75H18C18 80.5228 13.5228 85 8 85V49Z" fill="#F0F0F0" mask="url(#path-1-inside-1_2203_799)"/>
<path d="M513.343 471.462C418.984 506.821 358.889 405.57 295 302.886C302.886 284.332 343.002 236.526 440.209 225C622.228 226.479 635.144 425.819 513.343 471.462Z" fill="#F2B420"/>
<path fill-rule="evenodd" clip-rule="evenodd" d="M34 86.018H281.917C284.762 -29.8893 88.506 -22.5021 40.5389 71.346C38.0172 76.2798 35.8445 81.1717 34 86.018Z" fill="#1D1E1B"/>
<rect width="600" height="304" transform="translate(18 85)" fill="white"/>
<mask id="mask0_2203_799" style="mask-type:luminance" maskUnits="userSpaceOnUse" x="254" y="157" width="128" height="129">
<path d="M382 157.8H254V285.8H382V157.8Z" fill="white"/>
</mask>
<g mask="url(#mask0_2203_799)">
<path d="M373.725 263.187H352.845C352.578 263.187 352.365 262.973 352.365 262.707V249.489C352.365 248.867 351.858 248.369 351.245 248.369H345.698C345.076 248.369 344.578 248.876 344.578 249.489V284.671C344.578 285.293 345.085 285.791 345.698 285.791H351.245C351.867 285.791 352.365 285.285 352.365 284.671V271.453C352.365 271.187 352.578 270.973 352.845 270.973H373.725C373.991 270.973 374.205 271.187 374.205 271.453V284.671C374.205 285.293 374.711 285.791 375.325 285.791H380.871C381.494 285.791 381.991 285.285 381.991 284.671V249.489C381.991 248.867 381.485 248.369 380.871 248.369H375.325C374.703 248.369 374.205 248.876 374.205 249.489V262.707C374.205 262.973 373.991 263.187 373.725 263.187Z" fill="#1D1E1B"/>
<path d="M307.556 256.173H335.556C336.178 256.173 336.676 255.667 336.676 255.053V249.507C336.676 248.884 336.169 248.387 335.556 248.387H300.409C299.787 248.387 299.289 248.893 299.289 249.507V284.689C299.289 285.311 299.796 285.809 300.409 285.809H335.547C336.169 285.809 336.667 285.302 336.667 284.689V279.142C336.667 278.52 336.16 278.022 335.547 278.022H307.547C307.28 278.022 307.067 277.809 307.067 277.542V271.48C307.067 271.213 307.28 271 307.547 271H335.582C336.205 271 336.702 270.493 336.702 269.88V264.333C336.702 263.711 336.196 263.213 335.582 263.213H307.547C307.28 263.213 307.067 263 307.067 262.733V256.671C307.067 256.404 307.28 256.191 307.547 256.191L307.556 256.173Z" fill="#1D1E1B"/>
<path d="M374.205 158.92V172.138C374.205 172.404 373.991 172.618 373.725 172.618H352.845C352.578 172.618 352.365 172.404 352.365 172.138V158.92C352.365 158.298 351.858 157.8 351.245 157.8H345.698C345.076 157.8 344.578 158.307 344.578 158.92V194.102C344.578 194.725 345.085 195.222 345.698 195.222H351.245C351.867 195.222 352.365 194.715 352.365 194.102V180.884C352.365 180.618 352.578 180.404 352.845 180.404H373.725C373.991 180.404 374.205 180.618 374.205 180.884V194.102C374.205 194.725 374.711 195.222 375.325 195.222H380.871C381.494 195.222 381.991 194.715 381.991 194.102V158.92C381.991 158.298 381.485 157.8 380.871 157.8H375.325C374.703 157.8 374.205 158.307 374.205 158.92Z" fill="#1D1E1B"/>
<path d="M367.608 210.884H380.79C381.412 210.884 381.91 210.378 381.91 209.764V204.218C381.91 203.595 381.403 203.098 380.79 203.098H345.688C345.066 203.098 344.568 203.604 344.568 204.218V209.764C344.568 210.386 345.075 210.884 345.688 210.884H358.87C359.137 210.884 359.35 211.098 359.35 211.364V232.244C359.35 232.511 359.137 232.724 358.87 232.724H345.768C345.146 232.724 344.648 233.231 344.648 233.844V239.391C344.648 240.013 345.155 240.511 345.768 240.511H380.87C381.492 240.511 381.99 240.004 381.99 239.391V233.844C381.99 233.222 381.483 232.724 380.87 232.724H367.608C367.341 232.724 367.128 232.511 367.128 232.244V211.364C367.128 211.098 367.341 210.884 367.608 210.884Z" fill="#1D1E1B"/>
<path d="M300.409 203.089C299.787 203.089 299.289 203.596 299.289 204.209V239.391C299.289 240.014 299.796 240.511 300.409 240.511H305.956C306.578 240.511 307.076 240.005 307.076 239.391V211.365C307.076 211.098 307.289 210.885 307.556 210.885H313.618C313.885 210.885 314.098 211.098 314.098 211.365V239.391C314.098 240.014 314.605 240.511 315.218 240.511H320.765C321.387 240.511 321.885 240.005 321.885 239.391V211.365C321.885 211.098 322.098 210.885 322.365 210.885H328.427C328.694 210.885 328.907 211.098 328.907 211.365V239.391C328.907 240.014 329.414 240.511 330.027 240.511H335.574C336.196 240.511 336.694 240.005 336.694 239.391V204.209C336.694 203.587 336.187 203.089 335.574 203.089H300.409Z" fill="#1D1E1B"/>
<path d="M307.556 165.596H335.556C336.178 165.596 336.676 165.089 336.676 164.476V158.92C336.676 158.298 336.169 157.8 335.556 157.8H300.409C299.787 157.8 299.289 158.307 299.289 158.92V194.102C299.289 194.725 299.796 195.222 300.409 195.222H335.547C336.169 195.222 336.667 194.715 336.667 194.102V188.555C336.667 187.933 336.16 187.435 335.547 187.435H307.547C307.28 187.435 307.067 187.222 307.067 186.955V180.893C307.067 180.627 307.28 180.413 307.547 180.413H335.582C336.205 180.413 336.702 179.907 336.702 179.293V173.747C336.702 173.124 336.196 172.627 335.582 172.627H307.547C307.28 172.627 307.067 172.413 307.067 172.147V166.084C307.067 165.818 307.28 165.604 307.547 165.604L307.556 165.596Z" fill="#1D1E1B"/>
<path d="M290.302 157.8H255.12C254.507 157.8 254 158.307 254 158.92V164.476C254 165.089 254.507 165.596 255.12 165.596H278.16C278.604 165.596 278.809 166.147 278.471 166.44L254.391 187.098C254.142 187.311 254 187.622 254 187.951V194.111C254 194.725 254.507 195.231 255.12 195.231H290.302C290.925 195.231 291.422 194.725 291.422 194.111V188.565C291.422 187.942 290.915 187.445 290.302 187.445H267.262C266.818 187.445 266.613 186.893 266.951 186.6L291.031 165.933C291.28 165.72 291.422 165.409 291.422 165.08V158.92C291.422 158.298 290.915 157.8 290.302 157.8Z" fill="#1D1E1B"/>
<path d="M290.302 248.369H255.12C254.507 248.369 254 248.876 254 249.498V255.045C254 255.667 254.507 256.173 255.12 256.173H278.16C278.604 256.173 278.809 256.725 278.471 257.018L254.391 277.667C254.142 277.88 254 278.191 254 278.52V284.68C254 285.293 254.507 285.8 255.12 285.8H290.302C290.925 285.8 291.422 285.293 291.422 284.68V279.133C291.422 278.511 290.915 278.013 290.302 278.013H267.262C266.818 278.013 266.613 277.462 266.951 277.169L291.031 256.511C291.28 256.298 291.422 255.987 291.422 255.658V249.498C291.422 248.876 290.915 248.378 290.302 248.378V248.369Z" fill="#1D1E1B"/>
<path d="M272.711 240.511C283.045 240.511 291.422 232.134 291.422 221.8C291.422 211.466 283.045 203.089 272.711 203.089C262.377 203.089 254 211.466 254 221.8C254 232.134 262.377 240.511 272.711 240.511Z" fill="#F2B420"/>
</g>
<g clip-path="url(#clip0_2203_799)">
<g clip-path="url(#clip1_2203_799)">
<g filter="url(#filter0_d_2203_799)">
<path d="M318.021 279.754C341.482 279.754 360.5 260.736 360.5 237.276C360.5 213.815 341.482 194.797 318.021 194.797C294.561 194.797 275.542 213.815 275.542 237.276C275.542 260.736 294.561 279.754 318.021 279.754Z" fill="black"/>
<path d="M318.021 277.754C340.377 277.754 358.5 259.631 358.5 237.276C358.5 214.92 340.377 196.797 318.021 196.797C295.665 196.797 277.542 214.92 277.542 237.276C277.542 259.631 295.665 277.754 318.021 277.754Z" stroke="white" stroke-width="4"/>
</g>
<g filter="url(#filter1_d_2203_799)">
<path d="M328.818 234.572C330.899 235.774 330.899 238.777 328.818 239.979L314.964 247.977C312.883 249.179 310.282 247.677 310.282 245.274V229.277C310.282 226.874 312.883 225.372 314.964 226.574L328.818 234.572Z" fill="#F2B420"/>
</g>
</g>
</g>
<rect x="18" y="68" width="600" height="18" fill="#F0F0F0" fill-opacity="0.52"/>
<rect x="18" y="388" width="600" height="18" fill="#F0F0F0" fill-opacity="0.52"/>
<defs>
<filter id="filter0_d_2203_799" x="244.48" y="163.735" width="147.082" height="147.082" filterUnits="userSpaceOnUse" color-interpolation-filters="sRGB">
<feFlood flood-opacity="0" result="BackgroundImageFix"/>
<feColorMatrix in="SourceAlpha" type="matrix" values="0 0 0 0 0 0 0 0 0 0 0 0 0 0 0 0 0 0 127 0" result="hardAlpha"/>
<feOffset/>
<feGaussianBlur stdDeviation="15.5311"/>
<feComposite in2="hardAlpha" operator="out"/>
<feColorMatrix type="matrix" values="0 0 0 0 0 0 0 0 0 0.447059 0 0 0 0 1 0 0 0 0.3 0"/>
<feBlend mode="normal" in2="BackgroundImageFix" result="effect1_dropShadow_2203_799"/>
<feBlend mode="normal" in="SourceGraphic" in2="effect1_dropShadow_2203_799" result="shape"/>
</filter>
<filter id="filter1_d_2203_799" x="300.917" y="220.949" width="38.8253" height="40.9779" filterUnits="userSpaceOnUse" color-interpolation-filters="sRGB">
<feFlood flood-opacity="0" result="BackgroundImageFix"/>
<feColorMatrix in="SourceAlpha" type="matrix" values="0 0 0 0 0 0 0 0 0 0 0 0 0 0 0 0 0 0 127 0" result="hardAlpha"/>
<feOffset dy="4.16192"/>
<feGaussianBlur stdDeviation="4.68216"/>
<feComposite in2="hardAlpha" operator="out"/>
<feColorMatrix type="matrix" values="0 0 0 0 1 0 0 0 0 0.72 0 0 0 0 0 0 0 0 0.44 0"/>
<feBlend mode="normal" in2="BackgroundImageFix" result="effect1_dropShadow_2203_799"/>
<feBlend mode="normal" in="SourceGraphic" in2="effect1_dropShadow_2203_799" result="shape"/>
</filter>
<clipPath id="clip0_2203_799">
<rect width="149" height="148" fill="white" transform="translate(243.5 163)"/>
</clipPath>
<clipPath id="clip1_2203_799">
<rect width="149" height="148" fill="white" transform="translate(243.5 163)"/>
</clipPath>
</defs>
</svg>
