<?xml version="1.0" encoding="utf-8"?>
<!-- Generator: Adobe Illustrator 26.0.1, SVG Export Plug-In . SVG Version: 6.00 Build 0)  -->
<svg version="1.1" id="Layer_1" xmlns="http://www.w3.org/2000/svg" xmlns:xlink="http://www.w3.org/1999/xlink" x="0px" y="0px"
	 viewBox="0 0 400 400" style="enable-background:new 0 0 400 400;" xml:space="preserve">
<style type="text/css">
	.st0{fill:#191818;}
	.st1{fill:#FFFFFF;}
	.st2{fill:#EEB031;}
	.st3{fill:#191919;}
</style>
<path class="st0" d="M357.1,177.8c0.1,1.8,0,3.7-0.2,5.5c-0.9,8.8-5.3,14.8-11,17.5c-3.2,1.3-6.5,2.3-9.9,2.8
	c-0.4,0.1-0.7,0.5-0.6,1c0.1,0.4,0.5,0.7,0.9,0.6c4-0.5,6.7-0.3,10.7-2c9.5-4.7,14.3-15.5,11.6-25.7c-0.1-0.4-0.5-0.7-0.9-0.7l0,0
	C357.4,177,357.1,177.4,357.1,177.8z"/>
<polygon class="st1" points="273.8,66.1 273.5,78.1 273.9,87.2 279.4,85.1 280.5,59.8 275,60.8 "/>
<path class="st0" d="M296.5,245.2c-0.5-4.4-0.7-8.8-1.3-13.2l-16.6,0.9c0.2,2.2,0.6,4.4,1,6.5c3,0.2,6,0.6,8.9,1.3
	c0.4,0.1,0.7,0.5,0.7,0.9c-0.1,0.4-0.5,0.7-1,0.7c-2.8-0.2-5.6-0.6-8.3-1.1c1.5,7.4,3.7,14.8,5,22.2c4.6,0.2,9.2,0.2,13.8,0
	C298.2,257.4,297.2,251.2,296.5,245.2z"/>
<path class="st0" d="M298.8,231.8c1.8,10.4,2.7,20.9,4.3,31.3c5.1,0.1,11.3-0.2,15.4-3.6c6.7-5.5,5.9-19.5,5.2-28.2L298.8,231.8z"/>
<path class="st2" d="M238.6,215.3c0,6.3-0.6,12.5-0.4,18.8c36.3-0.2,72.5-1.5,108.7-1.9c-0.2-5.6-0.5-11.2-0.7-16.8H238.6V215.3z"/>
<path class="st0" d="M291.7,103c-0.2-1.1-1.7-1-4.4-0.8c-3.7,0.7-7.4-0.5-9.9-3.2c-3.7-4.1-4.8-11.1-4.9-16.7
	c-0.1-3.2,0-3.6,0.2-16.1c0-0.5-0.4-1-0.8-1.1c-0.5-0.1-1,0.4-1.1,0.8l0,0c-0.4,2.3-1.1,5.6-1.2,8c-1.3,12,0.4,28,12.1,31
	c0.1,4.3,0.2,7.5,0.7,11.9l-1.8,0.6c-0.5,0.2-0.8,0.7-0.6,1.2s0.7,0.8,1.2,0.6l2.5-0.6c0.5-0.1,0.8-0.6,0.8-1.2
	c-0.1-2.9,0-9.2,0-12.1c1.4,0.1,2.8,0,4.1-0.2C289.1,105,291.9,104.2,291.7,103z"/>
<path class="st0" d="M283.1,80c0.5,0.1,0.2,0,1.4,0.4c0.4,0,0.8,0.4,0.8,0.9s-0.4,0.8-0.9,0.8h-0.1l-2.6,0.2c-0.7,0-1.2-0.6-1.2-1.2
	c0-0.8,0-1.6,0-2.4c0.2-2.3,0.6-4.5,1.3-6.8c1.2-3.5,3.1-3.8,2.5,0.6c-0.1,0.9-0.6,2.8-1,5.1C283.2,78.4,283.2,79.7,283.1,80z"/>
<path class="st0" d="M287.1,64.9c1.7-1.7,4.3-1.9,6.2-0.4c0.4,0.5,1,0.5,1.3,0.1c0.5-0.4,0.5-1,0.1-1.3l0,0
	c-1.3-2.5-4.4-3.5-6.9-2.3c-1.1,0.6-2,1.6-2.4,2.8C285,65.1,286.1,65.9,287.1,64.9z"/>
<path class="st0" d="M275.1,65.7c1.7-1.7,4.3-1.9,6.2-0.4c0.4,0.5,1,0.5,1.3,0.1c0.5-0.4,0.5-1,0.1-1.3l0,0
	c-1.3-2.5-4.4-3.5-6.9-2.3c-1.1,0.6-2,1.6-2.4,2.8C272.9,65.9,274.1,66.7,275.1,65.7z"/>
<path class="st0" d="M289.8,69.1c1.3,0,2.4,1.4,2.4,3.1s-1.1,3.1-2.4,3.1s-2.4-1.4-2.4-3.1S288.5,69.1,289.8,69.1z"/>
<path class="st0" d="M276.2,69.1c1.3,0,2.4,1.4,2.4,3.1s-1.1,3.1-2.4,3.1s-2.4-1.4-2.4-3.1C273.8,70.5,274.9,69.1,276.2,69.1z"/>
<path class="st0" d="M299.6,46.6c-15.9-5.6-29.3,12.9-29.3,12.9c2.5,1,1.2,2.2,9.3,0.4c5.9-1.3,10.3-4.4,17.4,1.4
	c-0.5,2.6-0.2,5.3,0.7,7.8c2.2,4.3,5.7,3.4,8.9,4.7c0.7,0.4,1.3,0.8,1.8,1.6c2.8,3.5-1.7,7.4-5.7,7.9c-0.8,0.1-1.4,0.8-1.4,1.7
	c0,3.7-1.7,12.1-4.7,15.3c-0.6,0.7-0.2,0.2,0.7,15.3c0,0.5,0.4,0.8,0.7,1l1.8,0.6c0.5,0.2,1.1,0,1.3-0.5c0.2-0.5,0-1.1-0.5-1.3h-0.1
	l-1.1-0.5c0-9.9,0-10.5-0.1-12.9c0.8-1.1,1.6-2.3,2.2-3.5c1.6-3.8,2.6-7.9,3-12.1c6-1.6,10.5-7.8,6.5-12.6
	c3.7-6.5,5.7-16.8-1.1-19.9"/>
<path class="st0" d="M59.1,149.8c0-0.4-0.3-0.8-0.7-0.9l0,0c-6.4-1-9.7-1.2-9.5-1.2c-0.7-0.1-1.4,0.5-1.4,1.2l0,0l-1,15.1
	c-0.1,0.7,0.5,1.4,1.3,1.5l0,0l9.6,0.6c0.7,0,1.3-0.5,1.4-1.2C58.9,161.6,59.2,149.3,59.1,149.8z M50,150.5L49.2,163l6.9,0.5
	c0.3-3.7,0.9-9.7,1.3-12.9C55.2,150.6,52.2,150.6,50,150.5z"/>
<path class="st2" d="M48.8,149.1l9.6,0.6l-1,15.1l-9.5-0.6L48.8,149.1z"/>
<path class="st0" d="M121.8,80.5H59.4c-0.7,0-1.3,0.3-1.3,1.1v67.3c-3.3-0.5-6.3-0.9-9.2-1.1c-0.7-0.1-1.4,0.5-1.4,1.2l0,0l-0.5,7.2
	c-6.3-0.5-11.5-0.8-11.5-0.8c-0.7-0.1-1.4,0.5-1.5,1.3l0,0l-1.8,27.2c0,0.8,0.5,1.4,1.3,1.5l34,2.1c0.7,0,1.3-0.5,1.3-1.2l1.4-27.3
	c0-0.4-0.3-0.8-0.7-0.9l0,0c0,0-5.6-0.5-10.5-1c0-0.5,0-0.9,0-1.4c0.3,0.1-4.1,0.1,62.8,0.1c0.7,0,1.1-0.6,1.1-1.3V81.6
	C122.8,81,122.4,80.6,121.8,80.5z M50,150.5c2.2,0.1,5.2,0.1,7.4,0.1c-0.4,3.5-1,9.5-1.3,12.9l-6.9-0.5L50,150.5z M66.5,184.8
	c-2.2-0.2-28.2-2-31.4-2.2l1.6-24.5c1.9,0.1,5.8,0.4,10.1,0.6l-0.4,5.3c-0.1,0.7,0.5,1.4,1.3,1.5l0,0l9.6,0.6c0.7,0,1.3-0.5,1.4-1.2
	c0,0,0.1-2.5,0.2-5.5c4.2,0.2,8.8,0.3,9.6,0.3L66.5,184.8z M120.6,153.1H60.8V82.9c2.8,0,56.8-0.5,60.2-0.5
	C121,87.3,120.6,150.1,120.6,153.1z"/>
<path class="st0" d="M71.9,95.7c1.7,0.3,4.5,0.5,5.8,0.6c3.7,0.2,19.6,0.4,21.8,0.4c4.9,0,8.9-0.3,8.7-0.3c0.5,0,0.8-0.3,0.9-0.8
	c0-0.5-0.3-0.8-0.8-0.9c0,0,0,0-0.1,0c-0.3,0-5.2-0.5-8.7-0.6c-4.8-0.3-19.7-0.5-21.8-0.5c-2.4,0-6,0.4-5.8,0.4
	c-0.4,0-0.8,0.3-0.8,0.8S71.5,95.7,71.9,95.7z"/>
<path class="st0" d="M72.5,109.1c2,0.3,4.2,0.5,5.8,0.6c3,0.2,19.3,0.4,21.8,0.4c4.3,0,9-0.3,8.7-0.3c0.5,0,0.8-0.4,0.8-0.8
	s-0.3-0.8-0.8-0.8c-2.8-0.1-5.7-0.8-21.7-1c-6.2-0.1-7.5-0.2-11.6,0c-1.8,0.1-2.9,0.2-2.9,0.2c-0.5,0-0.8,0.4-0.8,0.8
	C71.7,108.7,72.1,109.1,72.5,109.1L72.5,109.1z"/>
<path class="st0" d="M73.1,122.5c1.7,0.3,4.5,0.5,5.8,0.6c3.8,0.2,19.4,0.4,21.8,0.4c3.8,0,8.9-0.3,8.7-0.3c0.5,0,0.8-0.4,0.8-0.8
	s-0.3-0.8-0.8-0.8c-8.4-0.9-27.3-1.2-30.4-1.1c-2.8,0-6,0.4-5.8,0.4c-0.4,0-0.8,0.3-0.8,0.8l0,0C72.3,122.1,72.6,122.5,73.1,122.5
	L73.1,122.5z"/>
<path class="st0" d="M73.6,135.9c2,0.3,4.2,0.5,5.8,0.6c3.7,0.2,19.6,0.4,21.8,0.4c4.8,0,8.9-0.3,8.7-0.3c0.4,0,0.8-0.3,0.9-0.8l0,0
	c0-0.5-0.4-0.8-0.8-0.9c-0.3,0-5.2-0.5-8.7-0.6c-3.6-0.2-19.8-0.6-24.7-0.3c-1.8,0.1-2.9,0.2-2.9,0.2c-0.4,0-0.8,0.4-0.8,0.8
	C72.8,135.5,73.2,135.9,73.6,135.9L73.6,135.9z"/>
<path class="st2" d="M104.3,47.4c0,2.6,2.1,4.7,4.6,4.7c2.6,0,4.6-2.1,4.6-4.7l0,0c0-2.6-2.1-4.7-4.6-4.7
	C106.3,42.7,104.3,44.8,104.3,47.4z"/>
<path class="st0" d="M130.8,71.3c-5-27.8-4.6-26.3-4.9-26.6s0.3-0.3-11.2,1.3c-0.6-2.6-3.1-4.4-5.8-4c-3.1-0.2-5.7,2.2-5.9,5.3
	c0,0.1,0,0.2,0,0.2c0,0.4,1.2,0-10.7,2c-0.7,0.1-1.2,0.8-1.1,1.6l4.2,26.1c0.1,0.7,0.8,1.2,1.5,1.1H97l32.8-5.6
	C130.4,72.6,130.9,71.9,130.8,71.3z M106.4,44.9c0.6-0.8,1.5-1.2,2.5-1.3c1,0.1,1.8,0.7,2.4,1.5c1.3,1.4,1.2,3.6-0.3,4.9
	c-0.6,0.5-1.4,0.8-2.1,0.9c-2-0.1-3.5-1.8-3.4-3.7C105.5,46.2,105.8,45.5,106.4,44.9z M97.8,75.3L94,51.9c1.8-0.3,5.4-0.9,9.6-1.6
	c1.5,2.9,5.1,4.1,8,2.5c1.8-0.9,3-2.6,3.2-4.6c4.2-0.8,9.1-1.8,9.9-1.9l3.5,24.1C126,70.7,101,74.8,97.8,75.3z"/>
<path class="st0" d="M180.2,94.6c-2.3,1.8-4.4,3.9-6.2,6.2c-0.3,0.3-0.4,0.8-0.1,1.2c0.3,0.3,0.8,0.4,1.2,0.1l0,0
	c2.3-1.8,4.4-3.9,6.2-6.2C182,94.8,181.1,94,180.2,94.6z"/>
<path class="st0" d="M189,101.3c-1.7,2.5-3.1,5.1-4.2,7.9c-0.2,0.4-0.1,0.9,0.3,1.1c0.4,0.2,0.9,0.1,1.1-0.3l0,0
	c1.7-2.5,3.1-5.1,4.2-7.9C190.8,101,189.8,100.4,189,101.3z"/>
<path class="st0" d="M197.5,103.8c-0.5,2.7-0.5,5.4-0.1,8.1c0,0.5,0.3,0.8,0.8,0.9c0.5,0,0.8-0.3,0.9-0.8c0,0,0,0,0-0.1
	c0.4-2.7,0.5-5.4,0.1-8.1C199,102.9,197.8,102.8,197.5,103.8z"/>
<path class="st0" d="M207,102.2c1.8,2,3.8,3.7,6.1,5.1c0.9,0.6,1.8-0.4,1-1.3c-1.8-1.9-3.9-3.6-6.1-5
	C207.1,100.5,206.3,101.3,207,102.2z"/>
<path class="st0" d="M212.4,95.7c2.4,1.9,5.1,3.3,8.1,4.1c0.4,0.2,0.9,0,1.1-0.4c0.2-0.4,0-0.9-0.4-1.1l0,0
	c-2.5-1.5-5.1-2.8-7.9-3.9C212.3,94,211.6,95,212.4,95.7z"/>
<path class="st0" d="M216.8,170.9c-3.1-0.6-7,0.5-7.8,3.4c-0.2,0.7-0.2,1.3-0.2,2c-0.1,0.4,0.1,0.7,0.4,0.9c0.1,0.2,0.3,0.3,0.6,0.3
	c3.4,1,7-1,8-4.5c0-0.1,0.1-0.2,0.1-0.4c0.2-0.7-0.2-1.5-0.9-1.7C216.9,170.9,216.8,170.9,216.8,170.9z"/>
<path class="st0" d="M216.9,187.6c-0.1-0.6-0.1-0.9-0.4-1.2s-0.6,0-1.4-0.1c-1.7-0.3-2.8-1.9-2.5-3.6c0.1-0.5,0.3-0.9,0.5-1.3
	c0.4-0.6,0.2-1.3-0.4-1.7h-0.1c-5.3-2.8-11.4,1.5-11.4,7.8c-0.2,4.6,3.4,8.5,8,8.7c0,0,0,0,0.1,0c4.3-0.1,7.7-3.8,7.6-8.1
	C217,188,217,187.8,216.9,187.6z"/>
<path class="st2" d="M52.4,311.7c-3.5-2.3-4.2-6-6.4-9.3c-3-4.4-7.5-7.9-9-13.2c-1.3-4.6,0.1-10.3-2.8-14.4
	c-5.4-7.9-15.5-11.7-18.2-21.6c-2.1-7.6,2.3-14.5,0.3-21.1c-1.5-5.2-5-9.5-6.1-14.9c-1.6-8.5,4.2-21.4,13.2-23.9
	c12.2-3.4,16.5,11.7,15.7,20.9c-0.4,4.1-2.2,10.2-0.9,15.2c1.9,7.3,10.1,11,13.3,17.8c1.8,3.5,2.3,7.5,1.3,11.3
	c-0.9,3.3-3,7.2-1.8,10.6c1.6,4.8,9.7,7.2,12.6,12.5c3.6,6.5-2.7,10.5-2.6,16.6c0.1,4.7,4.9,7.9,3.7,12.9L52.4,311.7z"/>
<path class="st0" d="M59.1,310.1c-1.5-3.2-28.8-71.3-29.8-73.8c-1-2.6-1.9-5.3-2.8-8c-0.1-0.4-0.6-0.7-1-0.6l0,0
	c-0.4,0.1-0.7,0.6-0.6,1c3,10.9,6.7,21.7,11.2,32.1c14,34.5,16.2,40.5,21.5,50c0.2,0.4,0.7,0.6,1.1,0.4
	C59.2,311,59.3,310.5,59.1,310.1z"/>
<path class="st2" d="M66.3,310.2c0.1-4.4-3.2-7.8-3.4-12c-0.1-2.7,1.8-5.5,2.5-8c1.7-5.2,0.1-11-4-14.6c-3.4-3.5-2-10.2-0.1-14.9
	c1.4-3.4,4.2-6,4.6-9.7c1.2-9.6-10.6-16.3,4.4-37c3.7-5.1,0.6-12.3,1.1-18c0.9-9.4,7.7-18,14-24.6c2.5-2.6,5.4-5.7,9-6.8
	c8.2-2.4,10.5,9.3,11.5,15c0.2,1.4,0.4,2.9,0.6,4.4c1.8,21-7.7,25.5-9.3,34.9c-1.3,7.4,3.8,13.7,3.6,21c-0.3,8.1-6.9,13.1-11.5,19
	c-0.8,0.8-1.5,1.6-2.3,2.5c-3.9,6.3,1.4,11.7,1,18.2c-0.2,3.6-3,6.1-3.9,9.4c-0.9,3.2,0.6,6.7-0.3,10c-1.3,4.9-7.2,8.2-11,11.1
	L66.3,310.2z"/>
<path class="st0" d="M71.1,308.6c1.5-5.7,0-10.2,0.6-15.5c0.4-3.5,1.8-7.1,2.7-10.8c2.4-11.3-3.7-14.1,1.3-26.4
	c3-7.2,8.3-14.4,8.3-21c0-5.4-2.4-10.8-1.5-15.8c1.1-6.3,6.7-11.4,9.1-17.5c2.2-5.7,0-12.7,3-17.5c0.2-0.4,0.1-0.9-0.2-1.1
	c-0.4-0.2-0.9-0.1-1.1,0.2c-3.6,5.3-1.3,12-3.7,17.5c-1.8,4.3-5.2,7.8-7.4,11.9c-4.6,8.3-1.5,13.3-0.9,20.4
	c1.1,10.9-11.6,20.3-10.2,34.3c0.6,5.8,2,8.2,0.7,14.4c-1,3.7-1.9,7.4-2.5,11.2c-0.4,5.2,1.3,10.4,0.2,15.4c-0.1,0.4,0.2,0.9,0.6,1
	S71,309,71.1,308.6L71.1,308.6z"/>
<path class="st2" d="M75.8,309.7c3.7-2.7,8.4-6.2,9.6-10.7c0.9-3.4-0.1-6.8,0.8-10.2c0.7-2.7,2.5-5.1,3.1-7.9
	c0.4-2.3,0.2-4.6-0.4-6.9c-0.9-4.5,6.1-6.8,7.9-11.1c0.7-2.5,1.2-5.1,1.3-7.7c1.8-10.1,8.2-12.1,12-17.9c3.3-5.1,2.2-11.2,11.3-16.7
	c0.8-0.5,1.7-0.8,2.6-1c5.7-1.4,8.3,5.3,7.5,10.1c-0.7,3.8-4.2,7.2-4.2,11c0,2.5,1.4,4.9,2,7.2c1.7,6.2-1.7,12.4-6.9,16.1
	c-3.4,2.5-7.3,4.7-9.2,8.7c-2,4.2-0.6,9.4-1.1,13.8c-0.1,2-0.8,3.9-2,5.5c-2.6,2.6-6.9,2.9-10.1,4.5c-5.5,2.8-9.5,7.7-11.1,13.7
	L75.8,309.7z"/>
<path class="st0" d="M88.7,296.2c1.5-2.2,3.3-4.2,5.3-5.9c5.4-5.3,4-10.2,6.5-15c1.6-3.1,4.5-5.2,6.5-7.9c4-5.4,2.3-9,4.6-13.4
	c1.8-3.5,6-6.2,7.6-10.4c1.6-4.1,0.7-7.9,2.9-11.2c0.2-0.4,0.1-0.9-0.2-1.1c-0.4-0.2-0.8-0.2-1.1,0.2c-3.3,4.3-1.6,8.7-4.9,13.2
	c-2,2.8-4.8,4.7-6.7,8.1c-2,3.8-1.5,7.6-3.2,11c-1.9,3.9-5.8,6-8,10.3c-2,3.9-1.9,8.9-4.1,12.2c-1.9,3.1-5.2,5.3-6.8,9.3
	c-0.1,0.4,0.1,0.9,0.5,1C88.1,296.7,88.5,296.6,88.7,296.2z"/>
<path class="st0" d="M102,312.8c-0.4-0.4,3.2-0.5-59.1-0.9c-0.8,0-1.4,0.6-1.4,1.4c0,0.1,0,0.2,0,0.2l10.4,49.9
	c0.1,0.6,0.7,1.1,1.3,1H92c0.6,0,1.2-0.5,1.3-1.1C102.8,310,102.3,313.2,102,312.8z M96.6,333.5c-8.4-0.4-37.6-0.9-48.1,0l-1.8-8.9
	c11.9,0.9,39,0.4,51.8-0.1L96.6,333.5z M94.4,344.3c-7.8-0.4-34.1-0.9-43.8,0l-1.9-9c11.1,0.9,35.4,0.5,47.4-0.1L94.4,344.3z
	 M92.4,355c-2.2-0.1-7.1-0.4-8.9-0.4c-1.9-0.1-22.2-0.2-25-0.1c-1.5,0-4.4,0.3-5.6,0.4l-1.8-8.7c5.6,0.4,11.2,0.6,16.8,0.4
	c16.5,0,17.4-0.1,26.2-0.5C93.5,349.3,92.9,352.4,92.4,355z M54.3,361.9l-1.1-5.2c8.3,0.8,29.2,0.5,38.8,0c-0.5,2.6-0.9,4.5-1,5.2
	H54.3z M98.7,322.8c-1.7-0.1-9.9-0.4-12.5-0.4c-2.4-0.1-28.4-0.1-32.1,0c-2.1,0-5.8,0.3-7.8,0.4l-1.7-8.1c4.3,0,53.8-0.5,55.8-0.5
	C100.2,314.8,99.6,318.2,98.7,322.8L98.7,322.8z"/>
<path class="st0" d="M219.8,86c-3.1-3.5-7.6-8.9-10.4-11.9c-0.1-4.5-0.4-9.3-3.1-12.9c-2.2-2.7-5.6-4.3-9.1-4.2c0-1.3,0.1-2.6,0.1-4
	c0-3-0.6-14.7-0.6-15.2c-0.3-3-0.3-2.6-0.6-4.4c0-0.4-0.4-0.8-0.8-0.8s-0.8,0.4-0.8,0.8c-0.2,1.3-0.4,2.6-0.4,4
	c0,6.1,0.4,12.3,1.2,18.3c0.2,1.6,0.3,1.3,0,1.4c-4.1,0.4-7.8,2.5-10.2,5.9c-2.4,3.8-1.8,8.5-1.9,12.8c-2.8,4-5.4,8.2-7.8,12.5
	c-0.3,0.5-0.1,1.2,0.4,1.5c0.2,0.1,0.4,0.1,0.6,0.1c9.9-0.4,14.5,0.2,26.4-0.4c1.6-0.1,12.5-1,16.3-1.3c0.8-0.1,1.3-0.7,1.3-1.5
	C220.2,86.6,220,86.3,219.8,86z M186.5,80.6c-0.2,0.3-0.4,0.6-0.6,0.9c-0.6,0.7-1.8,2.1-2.6,1.7c-0.7-0.5-0.1-2.3,0.4-3.1
	c0.2-0.3,0.4-0.7,0.6-1c0.6-0.9,2-2.2,2.8-1.6C187.4,77.7,187.7,78.8,186.5,80.6z M192.8,63.8c-1.3,1-2.3,2.3-2.9,3.8
	c-0.7,1.8-1.1,3.8-1.4,5.7c-0.2,1.6-0.1,2.3-0.9,2.4s-1-1-1.2-2.3c-0.7-4.5,1.1-8.9,4.7-11.7c1-0.6,3.4-1.4,3.8-0.3
	C195.2,62.2,194.5,62.3,192.8,63.8L192.8,63.8z"/>
<path class="st2" d="M320.2,177.9c-0.2,0-0.5,0-0.9,0c-1.7,0.1-3,0.8-3.4,1c-2.5,1.3-5.2,2.3-7.7,3.7c-2.1,1.2-5.1,2.7-9,4.4
	c-6.2-4.2-14-4.7-20.2-1.3c-6.7,3.6-8.7,10.3-9.1,11.7l0.2,0.1c-1.6,0-3.2,0-4.7-0.1c-1.2-7-5.8-20.5-8.6-30.4
	c-1.2-4.2-1.9-10.2-3.9-11.5c-2-0.9-4.2-1.3-6.4-1c-3.3,0-6.8-0.2-10.2-0.5c6.8-18.2,24.7-32.8,44-35.2c2.3,4.6,4.1,9.4,6.4,14
	c5.8-5.2,11.2-10.9,17-16.1c9.5,1.4,19.3,3.6,27.7,8.4c17.5,10.1,29.8,31.4,30.4,51.6c0.2,7.6-2.9,14.6-7.5,20.5c-1,1.3-2,3.1-3.4,4
	c-1.6,1-3.2,2.1-4.8,3.1c-1.6,1-2.9,1-4.7,1c-2.1,0-4.2,0-6.3,0c-7.3,0-14.5,0-21.8,0c-3.1,0-6.1,0-9.2,0c-0.4,0-0.1-2.6-1.2-8.4
	c-0.7-3.5-3-8.4-2.6-8.6l9.5-5l4.3-2.4L320.2,177.9z"/>
<path class="st0" d="M273.8,140.9c0.3-0.3,3.7-3.2,8.1-6.4c0.4-0.3,0.9-0.2,1.2,0.1c0.3,0.3,0.2,0.8-0.1,1.1
	c-3.1,3.2-6.3,6.3-9.6,9.1c-0.6,0.5-1.4,0.4-1.9-0.2c-0.2-0.2-0.3-0.5-0.3-0.9c0-0.7,0-13.5,0.3-16.2c0.3-3.2,0.2-4.4,1.2-4.4
	c0.9,0,0.9,0.7,1.2,4.4C274,131.6,273.8,137,273.8,140.9z"/>
<path class="st0" d="M299.4,143c3.5-7.3,7.4-14.4,11.7-21.3c0.2-0.4,0.7-0.5,1.1-0.3s0.5,0.7,0.3,1.1l0,0
	c-0.6,1.3-10.2,20.6-11.6,23.4c-0.3,0.7-1.2,0.9-1.8,0.6c-0.1-0.1-0.2-0.1-0.3-0.2c-3.6-3.6-3.5-3.1-10.5-10.3
	c-0.3-0.3-0.4-0.8-0.1-1.1s0.8-0.4,1.1-0.1C293,137.1,296.4,139.9,299.4,143z"/>
<path class="st0" d="M295,160.7c1.6,0,9-0.5,10.6-0.6c5.4-0.6,5.8-0.4,5.9-1.4c0-1.1-1.6-1-4.4-1.2c-4.1,0-8.2,0.2-12.3,0.6
	c-3.1,0.5-3.7,0.5-3.8,1.3C290.9,160.5,293.8,160.7,295,160.7z"/>
<path class="st0" d="M318.1,162.3c0,1.2,0.5,7.8,0.7,9.3c0.5,3.8,0.8,4.5,1.6,4.4c0.8,0,1-0.8,1-4.6c0-1.6-0.5-8.1-0.7-9.3
	C319.9,157.6,318.1,158,318.1,162.3z"/>
<path class="st0" d="M300.4,188.9c-0.5,0.2-1,0.4-1.3,0.5c-11.1-7-21.3-4-26.1,6.4c-0.2,0.4-0.1,0.9,0.3,1.1
	c0.4,0.2,0.9,0.1,1.1-0.3c1-1.6,2.3-3,3.7-4.2c6-5.7,13.3-4.9,20.1-0.3c0.4,0.2,0.8,0.3,1.3,0.1c0.6-0.2,1.2-0.5,1.8-0.7
	L300.4,188.9z"/>
<path class="st0" d="M282.1,196.5c1.2-0.7,2.4-1.3,3.7-1.8c1.4-0.4,2.9-0.7,4.4-0.7c1.2,0.1,2,0.3,2.2-0.5c0.3-1-1.8-1.6-2.9-1.8
	c-3.2-0.3-6.4,0.6-8.9,2.7c-0.5,0.4-2,2-1.4,2.8C279.7,197.8,281.4,196.9,282.1,196.5z"/>
<path class="st0" d="M181.7,218c-0.4,2.4-2.1,12.4-2.5,15c-1,7.2-9.6,75.9-9.9,78.9c-0.1,0.5,0.3,0.9,0.7,0.9
	c0.4,0.1,0.9-0.3,0.9-0.7c0.5-3,12.2-91.4,12.4-93.9c0.1-0.4-0.3-0.8-0.7-0.9C182.1,217.3,181.7,217.6,181.7,218L181.7,218z"/>
<path class="st0" d="M167.8,358.7c0.9-1.1,1.5-2.4,2-3.7c1.6-4.3,2.8-8.6,3.7-13.1c0.1-0.4,0.5-0.8,0.9-0.7s0.8,0.5,0.7,0.9
	c-0.4,4.6-1.3,9.2-2.8,13.6c-0.5,1.6-1.2,3.1-2.2,4.4c-2,2.3-4.4,1.2-5.6-1.4c-0.7-2-1-4.1-0.9-6.3c-0.2-5.4-0.1-10.8,0.4-16.2
	c0-0.4,0.4-0.8,0.8-0.8c0.4,0,0.8,0.4,0.8,0.8l0,0c1.3,12.8,0.2,17.3,1.2,20.8C166.9,357.8,167.2,358.4,167.8,358.7z M167.8,358.8
	C167.7,358.7,167.6,358.7,167.8,358.8C167.7,358.9,167.7,358.8,167.8,358.8z"/>
<path class="st0" d="M245.3,170c0.8,3.8,0.3,1.9,1.4,6c1.3,4.5,4.6,15.2,5.5,17.7c1.1,3.2,2.2,5.9,3.6,9c0.2,0.4,0.6,0.6,1,0.5
	c0.4-0.2,0.6-0.6,0.5-1c-1.4-4.7-1.1-4.2-3-10.6c-5.6-18.8-5.8-18.5-7.4-22.2c-0.1-0.4-0.6-0.7-1-0.5S245.1,169.6,245.3,170z"/>
<path class="st0" d="M275,240.8c-2.1-0.1-4.2-0.5-6.3-1c-1.2-0.4-0.8-1.6,0.1-1.6c2,0,3.9,0.3,5.9,0.8c-0.4-2.1-0.8-4.2-1.2-6.2
	l-8.1-0.5c0.3,2.3,0.3,4.6,0.6,6.8c-11.1-3-22.6-4.8-34.1-5.3c-6.2-0.4-12.8-0.5-18,3.5c-7,5.3-7.8,15.4-9.7,23.3
	c-3,11.9-4.2,24.5-5.9,36.6c-1.4,9.9-3.3,19.8-4.6,29.7c-4-2-6.5-3.6-12.1-6.3c-3.9-1.8-12.8-5.1-17.2-5.4
	c-6.9-0.5-8.2,4.7-3.9,10.4c1.1,1.3,2.2,2.5,3.5,3.5c5.5,4.5,11.5,8.3,17.9,11.3c5.9,3,12.9,7.1,19.5,6.7c6.1-0.5,8.8-5,7.9-10.7
	c0.7,0.3,1.4,0.6,2.1,0.9c2.6,7.3,7.1,13.7,13.1,18.7c2.7,2.1,1.9,8.3,6.5,10.3c1.4,0.7,3,1.1,4.7,1c2.4-0.3,3.1-1.9,3.6-4.3
	c0.4-1.7,1-9.4,1-10.1c0.1-1.8,0.2-5.5-1-5.6c-0.9,0-1.1,0.8-1.6,5.3c-0.1,0.9-0.4,3.2-0.6,5.4c-1.5-2.8-3.1-5.6-4.9-8.2
	c-0.1-0.1-0.2-0.3-0.4-0.3c-2.9-5.4-5.2-11-7-16.8c1.3,1.7,3,3,5.1,3.6c0.9,0.2,1.8,0,2.6-0.5c4.4,4.2,7.9,9.4,10,15.1
	c1.7-30.2,2.2-61.2,7-91.2c10.1,1.6,20.2,3.9,30.5,4.2C277.6,256.3,276.4,248.5,275,240.8z M182.9,337.8c-6.2-3-12-6.6-17.3-11
	c-0.4-0.4-0.2-0.1-1-1.4c-0.3-0.4-0.4-0.9-0.2-1.4c0.1-0.3,0.6-0.4,1.1-0.4c3.1-0.3,12.6,6.2,15.1,8c2,1.9,4.3,3.7,6.6,5.3
	c3,1.6,6.2,1.4,9.2,2c2.4,0.5,7.7,2.2,8.4,4.6C199.2,347.2,188.8,341,182.9,337.8z M206.1,342.3c-1.4-2.9-6.1-4.8-9.2-5.7
	c-2-0.5-4.2-0.7-6.3-1.2c-1.5-0.4-2.9-1.1-4.1-2.1c-2.9-2.8-6.1-5.3-9.6-7.4c-2.8-1.8-5.8-3.4-9-4.5c-2.4-0.6-5.2-0.1-5.8,2.1
	c-1.6-2.1-2.8-5-0.2-5.6c2.6-0.5,6.6,0.8,9,1.6c11.5,3.9,9.6,3.8,20.1,8.5c0.4,0.2,4.7,2,5.1,2c3.6,1.8,7.2,3.7,10.8,5.5
	C207.7,337.7,207.4,340.2,206.1,342.3L206.1,342.3z M230.5,351c0.1,0.1,0.2,0.3,0.4,0.3c1.6,2.8,3.1,6,4.4,8.9
	c1.8,4,0.8,5.4-3.6,3.5c-3.2-1.5-2.4-7.2-5.9-10c-7.5-6.2-12.4-14.8-13.9-24.4c-0.5-2.6-0.4-5.3,0.1-8c0.2-0.9,0.6-1.7,1.6-1.4
	C220.2,321.6,222.6,339.4,230.5,351L230.5,351z M217,318.7c1.7-7.9,3.6-15.8,5.5-23.7c0.1,10.7,0.2,21.5,0.4,32.2
	c-0.2-0.2-0.4-0.3-0.7-0.4C221.1,323.7,219.3,321,217,318.7L217,318.7z M244.5,254.2c-4.1-1.2-8.4-1-12.4,0.4
	c-6.5,2.7-8.3,9.9-9,16.9c-0.3,3.4-0.3,6.9-0.9,15.2c0,0.4-0.4,0.8-0.8,0.8c-0.4,0-0.8-0.3-0.8-0.8l0,0
	c-1.1-12.6-1.2-30.1,10.6-34.5c4.5-1.5,9.4-1.3,13.9,0.4c0.4,0.1,0.7,0.6,0.5,1C245.4,254.1,244.9,254.3,244.5,254.2L244.5,254.2z"
	/>
<path class="st0" d="M249.6,272.6c1.2,1.2,2.7,2.3,4.2,3c8.4,3.9,21.3,1.4,26.1,1c0.5,0,0.8-0.4,0.8-0.9s-0.4-0.8-0.8-0.8l0,0
	c-10.9-0.4-16.7,1.3-25-1.7c-1.5-0.5-2.9-1.2-4.2-1.9c-0.3-0.3-0.9-0.2-1.1,0.1C249.2,271.8,249.3,272.3,249.6,272.6L249.6,272.6z"
	/>
<path class="st0" d="M389.3,345.3c-0.7-3.8-20.6-123-21.2-129.3h9c2.9-0.1,5.2-2.5,5.2-5.4c-0.1-2.8-2.3-5.1-5.2-5.2
	c-3.1,0-38.8-0.1-80.2-0.2c-0.4-4-4.8-4.7-8.8-5.3c-8.5-1.2-17-1.8-25.6-2c-1.7-4.2-3.1-8.5-4.5-12.9c-6.4-20.3-5.5-21.7-7.9-23.5
	c-2.2-1.7,1.3-0.8-78.5-2.1c-2.7,0-4.9,2.1-4.9,4.8c0,0.6,0.1,1.3,0.3,1.9c3.9,9.7,12.9,34.3,13.9,36.7c0.2,0.4,0.6,0.6,1.1,0.5
	c0.4-0.2,0.6-0.6,0.5-1.1c-3.5-9.9-12.3-34.6-13.2-37c-0.5-1.2,0.2-2.6,1.4-3c0.3-0.1,0.6-0.2,0.9-0.2c6.4,0.1,64.9,1.1,75.6,1.3
	c1,0,1.8,0.7,2.1,1.6c3.1,11.8,6.8,23.5,11.1,34.9c0.2,0.5,0.7,0.8,1.2,0.8c8.3,0.2,18.3,0.5,26.3,1.4c2.8,0.3,6.8,0.5,7.4,3.3
	c-141.5-0.3-132.9-0.5-134.5,0.2c-3,1.2-4.4,4.6-3.1,7.6c0.6,1.4,1.7,2.5,3.1,3.1c1.5,0.6-1.5,0.5,42.3,0.4
	c-2.4,10.1-22.9,97.4-23.5,99.5c-0.1,0.4,0.1,0.9,0.6,1c0.4,0.1,0.9-0.1,1-0.6c4.6-14.5,19.8-76,23.7-99.9
	c25.5-0.1,58.7-0.1,89.2-0.2c0.8,5.9,3.9,32.3,6.9,57.8c-4.3,0.1-8.6,0.6-12.8,1.6c-0.4,0.1-0.8,0.5-0.7,0.9
	c0.1,0.4,0.5,0.8,0.9,0.7c2.5-0.1,5.8,0,12.9-0.4c2.6,22.1,5,43,5.7,48.8c0.7,5.9,3.6,24.6,0.6,31.4c-0.5,1.1-1.1,1.8-2,1.9
	c-0.8,0-1.3-0.6-1.8-1.3c-2-2.8-4.1-11.5-4.9-14.8c-3.5-15-23.4-117.5-25.2-125.4c-0.1-0.4-0.5-0.7-1-0.6c-0.4,0.1-0.7,0.5-0.6,1
	l0,0c0.9,4.5,22.9,120.5,24.1,125.7c0.8,3.5,1.8,7,2.9,10.4s3,7.9,6.6,7.8c4.4-0.1,5.5-6,5.8-10.4c0.6-8.9-0.3-14.1-8-74.6
	c7.2-0.5,19.5-1.8,22.2-8.5c1-2.6,0.3-5.6-3.2-8.4c-0.4-0.3-0.9-0.2-1.2,0.1c-0.3,0.3-0.2,0.8,0.1,1.1c2.5,2.2,3,4.4,2.1,6.2
	c-2.6,5.2-14.5,6.3-20.3,6.7c-3.1-24.4-6.3-49.7-7.5-57.6l57.6-0.1c1.4,6.6,28.6,128.6,29.2,131.1c0.3,1.7,0.9,3.4,1.5,5.1
	c0.6,1.2,1.3,2.4,2.1,3.5c0.3,0.4,0.7,0.7,1.2,0.7c1.5,0.1,2.5-2.3,2.7-3.9C390.1,350.1,389.9,347.7,389.3,345.3z M163,213.8
	c-1.7,0-3.1-1.4-3.1-3.1c0-1.7,1.4-3.1,3.1-3.1c6.6,0,63.6-0.1,117.1-0.2c-1.2,2.1-1.2,4.6,0.1,6.6
	C227.1,213.9,170.5,213.8,163,213.8z M283.4,214c-2.2-3-1.3-4.3-0.3-6.6c47-0.1,90.6-0.2,94.1-0.2c2,0,3.6,1.6,3.6,3.5l0,0
	c0,2-1.6,3.6-3.6,3.6C373.8,214.3,330.3,214.1,283.4,214L283.4,214z M387.2,352.5c-2.1-3.5-2.5-8.4-3.5-13.4
	c-1.3-6.5-26.3-112.3-28.8-123.1h11.5c1.8,22.2,19.1,124.2,20.2,129.8C387.2,348,387.4,350.2,387.2,352.5L387.2,352.5z"/>
<path class="st0" d="M279.4,279.5c0,0,0.7,26.3,1,39.3c-7.9,0.4-17.3,1.9-22.3,8.6c-2.3,3.3-3.4,7.3-3.1,11.4
	c0.1,1.1,0.5,3.7,2.1,3.7c1.3,0,1.8-1.8,2-2.7c0.7-3.2,0.4-6.1,2.7-8.7c4.6-5.3,12.2-6.8,18.9-7.2c0.3,7.9,0.2,6.2,0.7,13.3
	c-0.1,1.8,0.3,3.5,1,5.1c1.6,2.5,3.5,0.6,4-1.7c1-5.3,0.2-11.5,0-16.8c1.5,0.1,3.1-0.1,4.7,0.1c-0.4-1.7-0.9-3.3-1.4-5
	c-1-0.1-2.1-0.2-3.1-0.2c-0.8-7.7-1-15.5-0.7-23.3C285.8,295.3,282.8,283.4,279.4,279.5z"/>
<path class="st0" d="M305.4,321.3c-3.3-1.4-6.8-2.3-10.4-2.4c0.5,1.6,1,3.2,1.4,4.8c3.4,0.4,7,0.5,10,2.4c-0.4-1.7-0.7-3.4-1-5.1
	V321.3z"/>
<path class="st0" d="M311.2,329.5c1.6,1,2.8,2.6,3.4,4.4c0.4,1.9-0.2,5.4,2.3,6.1c2.5,0.8,1.9-4.3,1.7-5.5c-0.8-4.3-3.5-8-7.4-10.1
	c0.1,1.8,0.3,3.6,0.5,5.3L311.2,329.5z"/>
<circle class="st0" cx="285.6" cy="141.3" r="2.4"/>
<circle class="st0" cx="284.6" cy="161.9" r="2.4"/>
<circle class="st0" cx="283.6" cy="180.9" r="2.4"/>
<path class="st0" d="M307.2,128.2"/>
<g>
	<path class="st2" d="M277.8,51.7c5.3-6.8,14.6-9.7,22.9-7.1c7.5,2.4,12.9,8.7,13.5,16.3"/>
	<path class="st2" d="M277.8,51.7c7.3-9.9,23.6-11,31.6-1.6c2.8,3,4.4,6.8,4.8,10.8c-0.4-4-2.2-7.8-4.9-10.7
		C301.2,41.1,285.3,42,277.8,51.7L277.8,51.7z"/>
</g>
<rect x="297.1" y="67" class="st0" width="4.4" height="15.3"/>
<path class="st3" d="M280.7,89.2c1.6,5.4,9,4.4,9.7-1.8c0.1-0.4-0.2-0.9-0.6-1s-0.9,0.2-1,0.6c-1,3.2-4.5,4.4-6.6,1.4
	C281.5,87.6,280.4,88.2,280.7,89.2z"/>
</svg>
